<svg id="Layer_1" data-name="Layer 1" xmlns="http://www.w3.org/2000/svg" width="64" height="64" viewBox="0 0 64 64"><defs><style>.cls-1{fill:#fff;}.cls-2{fill:#1d1d1b;}.cls-3{fill:#696a9b;}.cls-4{fill:#92a0d1;}.cls-5{fill:#cbe7f5;}</style></defs><title>alien-1</title><g id="alien-1"><path class="cls-1" d="M25.65,59.9H25.2a8.79,8.79,0,0,1-3-.7,2.58,2.58,0,0,0-1.09-.28h-.28c-.95.08-2.13.3-3.18.49s-1.9.34-2.56.39-1.41.08-2,.08a5.38,5.38,0,0,1-2.66-.46,2.46,2.46,0,0,1-1.15-1.79,7.12,7.12,0,0,1,1.46-5.38A10,10,0,0,1,17,48.42a10.56,10.56,0,0,1,1.07-.07,60.14,60.14,0,0,1-5-10.7c-2.22-6.54-2-13.53.39-18.33l-3.5-3a4.35,4.35,0,0,1-1.29.2,4.14,4.14,0,0,1-2.92-1.24A4.8,4.8,0,0,1,4.4,11a5.44,5.44,0,0,1,3.2-4,8.92,8.92,0,0,1,3.55-.77,4.88,4.88,0,0,1,4.6,2.38,3.73,3.73,0,0,1,0,3.37l2.63,1.85a27.93,27.93,0,0,1,9-5.13,15.7,15.7,0,0,1,5.11-.77,35.24,35.24,0,0,1,12.14,2.53c.49.22,1,.45,1.35.65l1.07-1a4.33,4.33,0,0,1,2-5,7.22,7.22,0,0,1,3.68-1,6.83,6.83,0,0,1,5.68,3.13,6,6,0,0,1,.91,5.58,4.42,4.42,0,0,1-3.19,2.7,6.53,6.53,0,0,1-1.43.16,6.75,6.75,0,0,1-2.47-.47l-.56.59a17.44,17.44,0,0,1,3.65,9.5,39.42,39.42,0,0,1-2.43,17.62c-.75,1.71-1.53,3.38-2.15,4.67a6.23,6.23,0,0,1,3.9,1.93,18.34,18.34,0,0,1,2.16,3l.24.39a2.23,2.23,0,0,1,1.44,1.23,2.6,2.6,0,0,1-.22,2.24,4.77,4.77,0,0,1-4,2.24,3.21,3.21,0,0,1-.69-.07l-.15,0a9.16,9.16,0,0,0-1.64-.27h-.11l-.13.06a9.54,9.54,0,0,1-3.71.86,6.83,6.83,0,0,1-2.72-.56,8,8,0,0,0-3-1,4.38,4.38,0,0,0-.56,0,10.25,10.25,0,0,0-1.39.45,15.15,15.15,0,0,1-5.22,1.19h-.39a11.69,11.69,0,0,1-4.08-.89A9.74,9.74,0,0,1,25.65,59.9Z"/><path class="cls-2" d="M15.61,18.94l-5.42-4.58A2.53,2.53,0,0,1,6.9,14.1c-1.58-1.54-1-4.5,1.37-5.54s5.13-.79,6,.83-.83,3-.83,3L18.57,16a25.22,25.22,0,0,1,9.38-5.71c5.92-2,14.79,1.17,16,1.71s2.29,1.17,2.29,1.17l2.83-2.54s-1.5-2.62.88-4A5.1,5.1,0,0,1,57,8.19c1.75,2.58,1,5.17-1.25,5.67a5,5,0,0,1-3.87-.75l-2.54,2.67s3.71,3.08,4.29,9.67a37.57,37.57,0,0,1-2.29,16.79C49.78,45.85,48,49.31,48,49.31s3.54-.71,5.38,1.33,2.25,3.58,2.79,3.75,1.08.21.58,1.17a3.07,3.07,0,0,1-2.83,1.29,6.49,6.49,0,0,0-2.79-.25c-.67.25-3,1.46-5.37.42s-3.21-1.21-4.5-1-4,1.75-6.71,1.63a13.42,13.42,0,0,1-4.29-1c-.33,0-2.5,1.79-5,1.63s-2.67-1.12-4.58-1-4.5.79-5.71.88-3.08.17-3.67-.17-.58-2.92.79-4.62a8.36,8.36,0,0,1,5-3.21,20.5,20.5,0,0,1,4,.17c.17,0-4.08-6-6.5-13.17S13,22.94,15.61,18.94Z"/><path class="cls-3" d="M49.53,51c-2.33-.33-4.29,2.13-4.54,2.33s-1-.54-1.17-.79,0-.21.42-.92a12.69,12.69,0,0,1,2.13-2,9.57,9.57,0,0,1,.42-1.25c.25-.58,1.92-4.08,3-7A45.43,45.43,0,0,0,52,27.23c-.08-4.92-1.75-9.83-6.92-12.38s-9.58-3.92-16.38-2.54-8.5,4.5-8.5,4.5l3,2.33c.44.34-2.81,4-3.31,3.84-.21-.06-3-2.64-3-2.64a9.6,9.6,0,0,0-1.5,3.71c-.58,2.58-.54,7,1,12.62S22.4,49.81,22.4,49.81A22.44,22.44,0,0,1,25,49.06a1.82,1.82,0,0,1,1.5.33s.25.67,0,.79a31.1,31.1,0,0,1-3.87,1.5c-2,.63-3.29-.12-5.92.21S12.82,56,12.82,56.44s1.46.29,2.88.17,3.29-1.25,4.42-1.29,2.17.75,4.83.83a6.18,6.18,0,0,0,4.29-1.37c.88-.46,2-2.58,3.58-3s2.25-.08,3.83.42a7.36,7.36,0,0,0,3.54,0,.78.78,0,0,1,.67.21c.25.21-.71,1.58-2.37,2s-5.46-.92-6-.79-.79,1.25-.63,1.42a13.15,13.15,0,0,0,4.67.67c2.08-.08,3.83-1.42,6.63-1.5s4.29,1.46,5,1.67,1.75-.46,2.54-.71,2.58,0,2.79-.21S51.86,51.31,49.53,51Z"/><path class="cls-4" d="M47.44,13.52c.13-.08,2.92-2.71,2.92-2.71s-1.58-2,.42-3.33,4.63-.08,5.67,1.79-.29,3.62-1.5,3.5-2.58-1.08-3.08-.87-2.92,2.92-3.12,2.88A9.34,9.34,0,0,1,47.44,13.52Z"/><path class="cls-2" d="M19.86,23.4a4.72,4.72,0,0,0,4.29-.21,6.6,6.6,0,0,0,2.42-3.29.65.65,0,0,1,.75.25c.21.29-.37,2.42-2,3.58a5.15,5.15,0,0,1-3.92,1.21c-1.33-.08-1.58-.08-1.79-.33S19.69,23.4,19.86,23.4Z"/><path class="cls-2" d="M18.28,28.81c.2-.28.83,0,.79.38a6.15,6.15,0,0,0,.29,3.54c.71,1.88,1.08,1.92.92,2.21s-.71.58-1,.42A8.49,8.49,0,0,1,18,32,4.84,4.84,0,0,1,18.28,28.81Z"/><path class="cls-2" d="M28.94,29.35a3.85,3.85,0,0,1,1.5-2.29c1.33-1,2.13-1.08,2.33-1s.46.5.29.71S31.61,27,30.73,28s-.87,1.83-1.08,1.88S29.15,29.48,28.94,29.35Z"/><path class="cls-2" d="M40.65,23.27a4.45,4.45,0,0,1,3,1.13c1.46,1.25,1.67,2.33,1.5,2.54a1.93,1.93,0,0,1-.71.38A3.69,3.69,0,0,0,43.07,25a8,8,0,0,0-2.46-.83C40.44,24.15,40.4,23.44,40.65,23.27Z"/><path class="cls-2" d="M34.9,31.6c1.14-.48,2.63.5,2.83,2.29s-.21,3-1.42,3-2.42-1.58-2.62-2.58A2.17,2.17,0,0,1,34.9,31.6Z"/><path class="cls-5" d="M35.27,32.8c.61-.26,1.41.27,1.52,1.23s-.11,1.59-.76,1.61-1.3-.85-1.41-1.39A1.16,1.16,0,0,1,35.27,32.8Z"/><path class="cls-2" d="M41.23,29.85c1.18-.79,2.33.13,2.29,2.71a4.79,4.79,0,0,1-2.75,4.25A1.29,1.29,0,0,1,39,35.44C39,34.06,40.11,30.6,41.23,29.85Z"/><path class="cls-5" d="M41.86,30.77c.44-.13,1.17,1.46.38,3.12s-1.62,1.83-1.83,1.71-.12-1.29.29-2.62S41.44,30.9,41.86,30.77Z"/><path class="cls-2" d="M31.65,39.85c.75-.16,1.25.54,2.08,1.42s.83,1.5,2.21,1.63,1.92-.17,2,.13.17.46-.12.67-2.08,1.25-5.17.08S29.07,40.4,31.65,39.85Z"/><path class="cls-2" d="M48.44,34.9c.23-.13,1.58.83,1.46,1.17s-.08.42-.33.42a3.94,3.94,0,0,1-1.71-.87C47.73,35.31,48.15,35.06,48.44,34.9Z"/><path class="cls-2" d="M46.23,37.27c.13-.1,2.54.79,2.54,1.17s-.21.79-.42.79a11.85,11.85,0,0,1-2.67-1A2.32,2.32,0,0,1,46.23,37.27Z"/><path class="cls-2" d="M45.32,39.85c.37-.06,3,1.58,3,1.83s-.08.46-.29.46-3.25-1.25-3.25-1.58A.81.81,0,0,1,45.32,39.85Z"/><path class="cls-2" d="M43.86,42.19c.27-.27,3.38,1.75,3.38,2s-.12.46-.33.46a17.12,17.12,0,0,1-3.37-1.71C43.44,42.69,43.73,42.31,43.86,42.19Z"/><path class="cls-2" d="M42.57,44.27c.24-.08,3.71,2.13,3.67,2.46a.74.74,0,0,1-.29.5,31.19,31.19,0,0,1-4-1.92A2,2,0,0,1,42.57,44.27Z"/><path class="cls-2" d="M41.19,47s3.88,2.08,3.79,2.29,0,.38-.33.38-3.75-1.12-3.87-1.46S40.94,47,41.19,47Z"/><path class="cls-2" d="M40.23,49.31c.29-.1,2.17,1.13,2,1.42s-.08.42-.29.33a14.08,14.08,0,0,1-2.37-1A2,2,0,0,1,40.23,49.31Z"/><path class="cls-4" d="M21.67,19.64c-2.59-1.85-9.63-7.2-9.6-7.41s1.42-.92.92-2S10.86,9,9.69,9.27c-2.37.58-3.17,3.17-2,4s2.37-.17,2.75-.12,7.77,6.4,9.66,8.1Z"/></g></svg>