<svg id="Layer_1" data-name="Layer 1" xmlns="http://www.w3.org/2000/svg" width="64" height="64" viewBox="0 0 64 64"><defs><style>.cls-1{fill:#fff;}.cls-2{fill:#1d1d1b;}.cls-3{fill:#e6e4da;}</style></defs><title>alien-5</title><g id="alien-5"><path class="cls-1" d="M33.76,60.15a4.09,4.09,0,0,1-1.55-.25,13.06,13.06,0,0,1-2.77.19h0c-1.2,0-2.56,0-3.1-1.19a4.22,4.22,0,0,1,.28-3.25,2.6,2.6,0,0,1,1.85-1.42,3.83,3.83,0,0,1,.55-.05L29,54a2.47,2.47,0,0,1-.83.14A3.06,3.06,0,0,1,27,53.91a2.71,2.71,0,0,1-1.61-1.65,3.2,3.2,0,0,1,.42-2.68,7.1,7.1,0,0,1,3.12-2.73l.48-.22A33.57,33.57,0,0,1,18.85,36.35c-4.36-6.83-5.58-10.29-5.2-14.81A20.62,20.62,0,0,1,18.42,9.19c4.09-4.62,13.07-5.25,14.82-5.32h.49c4,0,10.09,2.11,13.33,6s4.24,10.33,2.42,16.88-4.24,12-6.85,15.39c-2.49,3.25-3.89,4-5,4.36l-.11,0c-.36.14-1,.32-1.69.48a6.33,6.33,0,0,1,1.48,1.07c2.66,2.8,2.7,4,2.35,4.9a3,3,0,0,1-2.71,1.88,2.06,2.06,0,0,1,1,1.34A3.49,3.49,0,0,1,37.64,59a2.12,2.12,0,0,1-1.42.91A17.81,17.81,0,0,1,33.76,60.15Z"/><path class="cls-2" d="M31.38,45.81A31.43,31.43,0,0,1,20.29,35.44c-4.53-7.09-5.25-10-4.94-13.75s1.25-7.87,4.34-11.37S29.79,5.72,33.32,5.56,42.72,7.31,45.76,11s3.75,9.37,2.09,15.34-4,11.47-6.56,14.81S37.57,44.72,36.91,45s-3,.78-3,.78L34,48a8,8,0,0,1,2.09,1.25c.59.63,2.25,2.47,2,3.09a1.33,1.33,0,0,1-1.69.72,2.18,2.18,0,0,1-1-1.47A6,6,0,0,0,35,49.84a.76.76,0,0,0-.59-.25,20.78,20.78,0,0,1-.16,4c-.28.88-.5.81-.5.81l0,1.66s2.38-.16,2.53.56.28,1.56-.28,1.66-3.19.44-3.22-.09.13-3.44,0-3.47-.84-.22-.84-.06a27.54,27.54,0,0,1,0,3.59c-.16.13-3.84.31-4,0s0-2.12.87-2.28a5.32,5.32,0,0,1,2.25.38l-.16-1.84a7.29,7.29,0,0,1-.34-2.53,16.13,16.13,0,0,1,.25-2.31,4.24,4.24,0,0,0-1.53.78c-.44.47-.47.72-.34,1s.25.59,0,.75a1,1,0,0,1-1.25.22c-.75-.31-.94-.94-.37-1.91a5.48,5.48,0,0,1,2.41-2.06,3.88,3.88,0,0,1,1.56-.47Z"/><path class="cls-3" d="M32.57,46.28c.22,0,.69,0,.72,1.47s.16,5.72-.25,5.84-1.25.25-1.44-.09S31.85,46.28,32.57,46.28Z"/><path class="cls-3" d="M33.16,43.94a3.74,3.74,0,0,1-2.66-.5c-1.19-.75-5.44-5-8.87-9.28a19.85,19.85,0,0,1-4.19-12.91c.13-3.56,2.38-9.28,5.94-11.34A21.5,21.5,0,0,1,36.82,7.72a12.46,12.46,0,0,1,9.59,8.53c1.31,4.16-.94,11.94-2,14.75A49.84,49.84,0,0,1,41,37.5s-.62-1-.78-1-.66.22-.53.34,1,1.15.88,1.37-.94,1.41-.94,1.41-.71-1.11-.8-1.08-.6.14-.45.42.94,1.16.81,1.38a3.34,3.34,0,0,1-.69.78c-.19.13-1.22-1.26-1.31-1.26s-.41,0-.47.22,1.09,1.64,1,1.82a5.6,5.6,0,0,1-1.16,1l-.25.09a24,24,0,0,0-1.55-2.23c-.12,0-.69.19-.59.41s1.49,2,1.33,2.14a6.87,6.87,0,0,1-1.25.5S33.26,42,33.07,42s-.66.19-.62.34S33.16,43.94,33.16,43.94Z"/><path class="cls-2" d="M21.72,15.41A5.37,5.37,0,0,1,22.91,13C24,11.53,25,11.22,25.22,11.28s.41.81.34.91-1.66.84-2,1.69-.47,1.66-.75,1.81A1,1,0,0,1,21.72,15.41Z"/><path class="cls-2" d="M36,36.59a5.37,5.37,0,0,1-2.6.75c-1.8.15-2.72-.4-2.8-.58s.33-.85.44-.86,1.74.66,2.59.35,1.54-.76,1.85-.66A1,1,0,0,1,36,36.59Z"/><path class="cls-2" d="M24.13,20.13c1.42-.16,5,1.19,6.91,5.09s-.12,6-2.19,5.94-4.09-.59-6.44-3.47-2.22-5.28-1.53-6A4.91,4.91,0,0,1,24.13,20.13Z"/><path class="cls-2" d="M39.76,20.13c1.57-.78,5-.25,4.62,3.38A7.35,7.35,0,0,1,39,29.88c-2.44.66-4.62.5-4.84-1.91S34.88,22.56,39.76,20.13Z"/></g></svg>