<svg id="Layer_1" data-name="Layer 1" xmlns="http://www.w3.org/2000/svg" width="64" height="64" viewBox="0 0 64 64"><defs><style>.cls-1{fill:#fff;}.cls-2{fill:#1d1d1b;}.cls-3{fill:#cbe7f5;}.cls-4{fill:#ffe19b;}</style></defs><title>big-dipper</title><g id="big-dipper"><path class="cls-1" d="M47,56.6A5.09,5.09,0,0,1,46,56.48a4.7,4.7,0,0,1-3.71-3.09c-1.64-1.15-7.31-5-11.44-7.82h-.24a4.34,4.34,0,0,1-4.13-3.09,3.94,3.94,0,0,1,.12-3.33,4.28,4.28,0,0,1,1.76-1.71L28.82,31a5.05,5.05,0,0,1-.8-.94,3.63,3.63,0,0,1-.6-1.64l-5.28-3.69H22a5.11,5.11,0,0,1-4.19-1.92,4.36,4.36,0,0,1-.59-4.3l-1-2.22a4.21,4.21,0,0,1-1.86-.48,3.46,3.46,0,0,1-1.53-1.59h-1a6.75,6.75,0,0,1-.8,1.3A3.83,3.83,0,0,1,8,16.87,4.76,4.76,0,0,1,3.42,14a4.44,4.44,0,0,1,.49-4A5,5,0,0,1,7.79,7.74h.29a3.91,3.91,0,0,1,3.36,1.83l2,0a4.71,4.71,0,0,1,.77-1.14,4.63,4.63,0,0,1,3-1.06A4.14,4.14,0,0,1,20.58,9,4.91,4.91,0,0,1,21,13.93l.58,1.86a4.43,4.43,0,0,1,4,2.27,4.88,4.88,0,0,1,.52,3.2l4,2.44A4.6,4.6,0,0,1,32.53,23a4.89,4.89,0,0,1,2.23.56,4.63,4.63,0,0,1,2.65,4c2.69,1.14,10.54,4.37,16.22,6.69a10.82,10.82,0,0,1,1.16-.23,6.12,6.12,0,0,1,.83-.06c2.6,0,4.5,1.66,5.1,4.45A4.34,4.34,0,0,1,60,42a5.6,5.6,0,0,1-3.31,1.93l-5.54,7.62a6.93,6.93,0,0,1,.16,1.18A4.31,4.31,0,0,1,47,56.6Z"/><path class="cls-2" d="M59.05,38.69c-.72-3.37-3.34-3.16-4-3.06a11.27,11.27,0,0,0-1.5.34S35.8,28.72,35.71,28.6A3.35,3.35,0,0,0,34,25a3,3,0,0,0-3.78.75L24,22a3.62,3.62,0,0,0,0-3.16,2.91,2.91,0,0,0-2.87-1.37,3.73,3.73,0,0,0-.78.22l-1.22-3.94s1.31-2.19.09-3.75-3.44-.78-3.84-.37a6.6,6.6,0,0,0-.87,1.66l-4.16-.06A2.4,2.4,0,0,0,7.9,9.44,3.06,3.06,0,0,0,5,13.38c.69,1.91,3.78,2.31,4.72,1.09a3,3,0,0,0,.84-2s3.72,0,3.69.09a1.84,1.84,0,0,0,1,1.72,3,3,0,0,0,2.12.16l1.78,4.09a2.79,2.79,0,0,0,.06,3.22A3.77,3.77,0,0,0,22.62,23l6.56,4.59a1.65,1.65,0,0,0,.25,1.53,2.5,2.5,0,0,0,1.16,1L30,38.6s-2.87.69-1.91,3.28a2.61,2.61,0,0,0,3.19,1.91s12.5,8.5,12.53,8.59a2.88,2.88,0,0,0,2.56,2.44,2.67,2.67,0,0,0,3.28-2.09,12.28,12.28,0,0,0-.28-1.56l6.41-8.81S59.77,42.07,59.05,38.69ZM48.37,50.13a2.29,2.29,0,0,0-1.91-.41,9.44,9.44,0,0,0-1.37.63L33.15,43.22s1.5-1.53.56-3a3.41,3.41,0,0,0-2-1.66s.19-7.62.25-7.62a2.63,2.63,0,0,0,1.84-.19C34.9,30.29,35,30,35,30s8.59,4.16,12,5.53,5.91,2.31,5.91,2.31a2.25,2.25,0,0,0,.34,2.06,5.13,5.13,0,0,0,1.41,1.63Z"/><path class="cls-3" d="M6.8,11a1.66,1.66,0,0,1,2.62,1.34c.13,1.59-1.31,2.06-2.47,1.25A1.62,1.62,0,0,1,6.8,11Z"/><path class="cls-4" d="M15.9,10.47a1.66,1.66,0,0,1,2.62,1.34c.13,1.59-1.31,2.06-2.47,1.25A1.62,1.62,0,0,1,15.9,10.47Z"/><path class="cls-4" d="M20.55,18.94a1.66,1.66,0,0,1,2.63,1.34c.13,1.59-1.31,2.06-2.47,1.25A1.62,1.62,0,0,1,20.55,18.94Z"/><path class="cls-4" d="M31.3,26.35a2,2,0,0,1,3.19,1.5c.13,1.59-2,2.19-3.19,1.38A1.84,1.84,0,0,1,31.3,26.35Z"/><path class="cls-3" d="M56.59,37a2,2,0,0,1,.49,3.49c-1.27,1-2.94-.51-2.89-1.92A1.84,1.84,0,0,1,56.59,37Z"/><path class="cls-3" d="M29.84,40a1.76,1.76,0,0,1,2.77,1.3c.11,1.38-1.76,1.9-2.77,1.19A1.6,1.6,0,0,1,29.84,40Z"/><path class="cls-4" d="M45.69,51.07a1.76,1.76,0,0,1,2.77,1.3c.11,1.38-1.76,1.9-2.77,1.19A1.6,1.6,0,0,1,45.69,51.07Z"/></g></svg>