<svg id="Layer_1" data-name="Layer 1" xmlns="http://www.w3.org/2000/svg" width="64" height="64" viewBox="0 0 64 64"><defs><style>.cls-1{fill:#fff;}.cls-2{fill:#1d1d1b;}.cls-3{fill:#1f4863;}.cls-4{fill:#ffe19b;}.cls-5{fill:#696a9b;}</style></defs><title>black-hole</title><g id="black-hole"><path class="cls-1" d="M8.76,61.44a1.94,1.94,0,0,1-1.9-1.62A2.15,2.15,0,0,1,6,59.3,2.68,2.68,0,0,1,5.35,57a1.7,1.7,0,0,1,1.24-1.38l.76-.21A2.27,2.27,0,0,1,9.43,53.6h.18a2.39,2.39,0,0,1,1.9,1.71,1.92,1.92,0,0,1,1.83,1.4,1.8,1.8,0,0,1-.38,1.6,2,2,0,0,1-.19,1.56,1.84,1.84,0,0,1-1.6.88,3.14,3.14,0,0,1-.73-.1A2.52,2.52,0,0,1,8.76,61.44Zm44.49-.21a4.48,4.48,0,0,1-2.52-.73,3.41,3.41,0,0,1-1.41-3.33,3.85,3.85,0,0,1,.83-1.88A24.74,24.74,0,0,1,46.34,55l-1-.17-1.47-.24h0c1.15.37,2.06.67,2.35,1.74a3.21,3.21,0,0,1-1.45,3.41A14.32,14.32,0,0,1,38.29,61h0a21.14,21.14,0,0,1-7.7-1.45,21.21,21.21,0,0,1-11.41-9.88,5.46,5.46,0,0,0,.76,3.52,14.84,14.84,0,0,0,2.93,3.62,2.78,2.78,0,0,1,1,1.29A2.21,2.21,0,0,1,23.56,60,2.5,2.5,0,0,1,21.76,61h-.2c-.53,0-1.18,0-3.39-2.65a18.55,18.55,0,0,1-2.8-4.32A9.32,9.32,0,0,1,14.8,52a2,2,0,0,1-.22.4,3,3,0,0,1-2.35,1.09A2.15,2.15,0,0,1,10.82,53c-.53-.44-4.46-5.12-4.27-10.2A26.8,26.8,0,0,1,9.92,31.55a4.33,4.33,0,0,0-.54.48c-1,1-1.51,1.66-1.87,2.09a2.42,2.42,0,0,1-1.9,1.19A2,2,0,0,1,5,35.21s-2.62-.89-2.62-2.7c0-.79,1.59-8.75,7.32-12.24A28,28,0,0,1,20.2,16.34l.62-.11a24.5,24.5,0,0,1,3.35-.32c-.78-1.88-1.92-3.75-3.08-4.09a11.83,11.83,0,0,0-2.81-.61l-.23,0a3.71,3.71,0,0,1-.48,0l-.11,0a3.2,3.2,0,0,1-.54.06,2.16,2.16,0,0,1-.38,0c1.48.4,2.9,1.16,2.9,2.51a3,3,0,0,1-.59,1.73,1.7,1.7,0,0,1-2.09.52A7.37,7.37,0,0,0,14,15.49a5.28,5.28,0,0,0-1.09.11,19,19,0,0,0-2.94.89,4,4,0,0,1-1.44.37h0a2.24,2.24,0,0,1-.47-.06,2.56,2.56,0,0,1-1.69-2,1.72,1.72,0,0,1,.07-1.52c.54-1,2.69-1.68,4.34-2A2.18,2.18,0,0,1,9.37,9.09c-1.1-.63-1.95-1.33-1.71-2.5S8.77,5.22,9.71,5c.07-1,.35-2.43,1.88-2.43a1.82,1.82,0,0,1,.49.07c.59.17,1,.51,1.64,1.77A2,2,0,0,1,15,5.35a2.27,2.27,0,0,1,.32,1.31A2.54,2.54,0,0,1,16.46,6a19.71,19.71,0,0,1,6.24-.93,28.3,28.3,0,0,1,4.61.39c6.12,1,11.09,4.17,13.64,8.59A6.79,6.79,0,0,0,40,11.87a22.25,22.25,0,0,0-3.32-3.64,2.75,2.75,0,0,1-.53-.56,1.7,1.7,0,0,1,.47-2.36,3.12,3.12,0,0,1,1.82-.7c1.41,0,4.88,3.13,6.18,6.7.25.69,2.4,6.79-.09,8a2.6,2.6,0,0,1-1.16.31h0l-.32,0c.2.81.33,1.54.42,2.17a8.08,8.08,0,0,0,3.27-2.93A18.64,18.64,0,0,0,48.95,13a4.63,4.63,0,0,1,.38-1.27v0c-1-.46-1.15-1.53-1.2-2.55a3.46,3.46,0,0,1-1.25-.91,2.08,2.08,0,0,1-.44-1.77A1.85,1.85,0,0,1,48.27,5a2.06,2.06,0,0,1,1.62-1.62l.34,0A2.73,2.73,0,0,1,52.46,5a2,2,0,0,1,1.92,1.63A2.46,2.46,0,0,1,54,8.35l-.12.89a1.7,1.7,0,0,1-.48,1,2.72,2.72,0,0,1,1.2.86c1.24,1.53,2.28,6.77,1.79,12.55-.08,1-.19,1.94-.31,2.8a2.31,2.31,0,0,1,.85-.76,2,2,0,0,1,.82-.19A3,3,0,0,1,60,26.67a1.86,1.86,0,0,1,.15,1.58l0,.12a12.73,12.73,0,0,1-2.41,4.53c-1.64,1.83-2,2-2.17,2.13a1.7,1.7,0,0,1-2.26-.54l-.08-.12A16.27,16.27,0,0,1,51.86,36c-.3.32-.58.6-.85.86h.08l.83,0a31.44,31.44,0,0,0,4.82-.74A12.63,12.63,0,0,1,59,35.76a2.19,2.19,0,0,1,.66.09c2,.62,1.7,3.48,1.42,4.43-.38,1.33-4.53,6.23-10.37,8.26a26.1,26.1,0,0,1-6.41,1.31,11.14,11.14,0,0,0,3,.81c.39,0,.87.06,1.42.06,1,0,2-.06,2.85-.11.65,0,1.21-.07,1.58-.07a2.84,2.84,0,0,1,1.1.18s0-.05,0-.08a1.76,1.76,0,0,1,1.43-1.72c.26-1,.8-1.94,2-1.94h.18a2.43,2.43,0,0,1,1.86,1.55,2.42,2.42,0,0,1,1.34.8,2.25,2.25,0,0,1,.43,1.81,2.14,2.14,0,0,1-.84,1.37,1.74,1.74,0,0,1-1,1.86,2.18,2.18,0,0,1-1,.23,2.64,2.64,0,0,1-.39,0,2.45,2.45,0,0,1-1.19.34,1.92,1.92,0,0,1-.85-.2l.09.09a3.77,3.77,0,0,1,1,2.86,3.86,3.86,0,0,1-4.14,3.56ZM55.17,54a3.9,3.9,0,0,1,.53.27,1.92,1.92,0,0,1-.38-.68A2.41,2.41,0,0,1,55.17,54ZM35.65,49.25a8.57,8.57,0,0,0,3,3.12c.62.36,1.21.66,1.76.92a2,2,0,0,1-.42-1,3,3,0,0,1,.69-2.37A24.77,24.77,0,0,1,36,49.33ZM17.78,43.88a6.93,6.93,0,0,0-1.58,1.36,5.38,5.38,0,0,0-.79,1.45,5.2,5.2,0,0,1,.86-1.35,1.88,1.88,0,0,1,1.41-.61h.18C17.83,44.44,17.8,44.16,17.78,43.88Zm-3.3-33a13.16,13.16,0,0,1,1.75.29,2,2,0,0,1-1.05-.84l-.06.08A1.82,1.82,0,0,1,14.48,10.93Zm-1.91-.13-.19.16.44,0Z"/><path class="cls-2" d="M11,8.06s0,1.5.25,1.54.83-1.17.83-1.17,1.46,1.21,1.71.92-.5-1.67-.46-1.87.46-.83.21-1.25-.87.08-.87.08-.79-2-1.08-2-.17,1.92-.29,2-2,.42-2,.63S11,8.06,11,8.06ZM37.82,53.85a11.35,11.35,0,0,1-5.08-7.58c.17-.17,1.25.83,3.63,1.42a26.94,26.94,0,0,0,13.79-.75c5.5-1.92,9.13-6.54,9.29-7.12s.25-2.17-.29-2.33S55,38.43,52,38.56s-5.25-.42-5.21-.62a15.67,15.67,0,0,0,3.83-3.08c2.5-2.67,3.54-5.46,4-11.37S53.95,13,53.24,12.14s-2.17-.08-2.42.38a24.6,24.6,0,0,1-2.62,7.21,10.69,10.69,0,0,1-6.25,4.46,19.67,19.67,0,0,0-1.79-7.87c-2-4.63-6.83-8.08-13.13-9.12s-9.91.44-10.12.5c-.92.25-.54,1.29-.33,1.71s.5.17,1,.17.75-.33,4,.62,5,7.38,5,7.38a39.85,39.85,0,0,0-5.37.33,27.11,27.11,0,0,0-10.54,3.83c-5.12,3.13-6.5,10.42-6.5,10.79s1.21,1,1.46,1.08.5-.58,2.58-2.75a7.93,7.93,0,0,1,5.42-2.12H14.7a22.17,22.17,0,0,0-3.08,3.33A24.62,24.62,0,0,0,8.24,42.85c-.17,4.46,3.42,8.63,3.67,8.83a1.27,1.27,0,0,0,1.29-.29c.21-.29.08-1.12,0-1.83a9.11,9.11,0,0,1,1.67-5.37,13.21,13.21,0,0,1,4.54-3.08,21,21,0,0,0,1,7.08C21.49,51,24.78,55.47,31.2,58s12,.79,12.63.38a1.53,1.53,0,0,0,.75-1.54C44.45,56.35,41.82,56.14,37.82,53.85Zm3.58-43c1.67,2.38,1.71,6.54,1.75,6.83s.29.25.63.08.5-2.5-.75-5.92a11.36,11.36,0,0,0-4.58-5.58,2.85,2.85,0,0,0-.87.42A26,26,0,0,1,41.41,10.89Zm8.29-3c.21,0,0,2.17.38,2.29S51,9,51.16,8.85s1,.17,1,.17l.17-1.29s.42-.54.38-.79-1-.29-1.17-.25S50.66,5,50.2,5.06s-.37,1.46-.46,1.63-1.57-.13-1.62.13C48,7.39,49.49,7.85,49.7,7.85Zm4.5,25,.5.75a13,13,0,0,0,1.75-1.79,11.82,11.82,0,0,0,2.13-4.12c.08-.17-.76-.54-.92-.46-.42.21-.92,1.67-1.37,3A7.37,7.37,0,0,1,54.2,32.81Zm-.58,19.5c-.12-.25-4,.29-6.5,0s-4.76-1.6-4.92-1.5a1.28,1.28,0,0,0-.5,1.21c.08.58,2.17.83,4.92,1.29a24,24,0,0,0,7,0A1.28,1.28,0,0,0,53.61,52.31Zm-.79,3.17c-2,.67-2.33,2.79-1.12,3.63s3.92.5,4-1.5A2.1,2.1,0,0,0,52.82,55.47Zm6.88-4.33a.57.57,0,0,0,.08-.75,1.56,1.56,0,0,0-1-.25c-.21,0-.58-1.42-1-1.46s-.58,1.58-.62,1.83-1.17-.06-1.17.13c0,.54,1.17.88,1.17.88s-.37,1.33-.12,1.63,1-.46,1-.46.58.33.92.17-.37-1.29-.37-1.42S59.49,51.27,59.7,51.14ZM9.45,55.31c-.42,0-.62,1.33-.71,1.54L7,57.31a1.09,1.09,0,0,0,.17.79c.25.25,1.21.21,1.21.21s0,1.29.29,1.42,1-.71,1.17-.87,1.33.38,1.46.17-.29-.92-.25-1.12.67-.58.63-.75-1.17-.17-1.33-.21S9.86,55.35,9.45,55.31Zm9-1.21c-2.17-3.5-.33-7.12-.29-7.33s-.52-.45-.67-.29c-1.17,1.29-1.58,4.5-.58,7s4.25,6,4.63,5.92.75-.33.63-.75S20.66,57.6,18.49,54.1Zm-10-39c.33.08,1.54-.67,4.08-1.21a8.61,8.61,0,0,1,4.92.58,1.35,1.35,0,0,0,.25-.71c0-.37-2.42-1.5-5.17-1.17S7.88,14,7.95,14.1,8.16,15.06,8.49,15.14Z"/><path class="cls-3" d="M23,8.72c.25-.08,8.75,0,12.63,4.42S40,23.52,40.07,24.31s0,1.67.38,1.79,2.42,0,5-1.67a12.06,12.06,0,0,0,4.25-4.29c1.08-1.62,2.25-4.75,2.63-4.83S54,21.47,52,28s-5.58,8.75-6.67,9-1.58.17-1.79.46.33,1.33.58,1.42-.08.92,4.88,1,7.83-.62,7.92-.37-2,3.71-6,5.17-9,2-11.08,1.67a37.56,37.56,0,0,1-6.58-2c-.67-.33-1.33-.71-1.75-.46s-1.37,3.38.79,6.58a28,28,0,0,0,6.54,6.33c.67.46,1.08.54.92.71S33.2,57.68,28.95,55s-7.12-8.17-7.5-9.46S21,40.47,20.86,40s-1.33-.79-2-.46-4.42,1.92-5.92,4.67-1.46,3.21-1.46,3.21a11.46,11.46,0,0,1-1.17-8.37,21,21,0,0,1,6-9.71c1.29-.92,2.33-1.5,2.29-1.67a7.77,7.77,0,0,0-4.75-1,19.61,19.61,0,0,0-5.46,1.71,8.15,8.15,0,0,1-1.62.88s2-3.87,3.92-5.42a24.73,24.73,0,0,1,11-4.46,45,45,0,0,1,6.79-.54,1,1,0,0,0,.38-.33s-.33-3.67-2.08-5.87A31.7,31.7,0,0,0,23,8.72Z"/><path class="cls-4" d="M53.28,56.31c1.07-.41,1.79.88,1.67,1.63s-1.71,1.13-2.46.71S51.78,56.89,53.28,56.31Z"/><path class="cls-2" d="M27.24,10.68a9.29,9.29,0,0,1,1.38.13c.17.08,2.42,3,3.67,8.29s1,5.83,1,5.83-.75,0-.75-.25-1-6.5-2.46-9.42A41.59,41.59,0,0,0,27.24,10.68Z"/><path class="cls-2" d="M31.95,13c.21,0,.83-.08,1,.13a40.19,40.19,0,0,1,2.25,6.38,15.09,15.09,0,0,1,.46,5c-.17,0-.5.08-.58-.08a50.38,50.38,0,0,0-1.25-6.83A33.4,33.4,0,0,0,31.95,13Z"/><path class="cls-2" d="M36.41,17.93s.79,0,1,.17A15.37,15.37,0,0,1,38,22.52c.13,2.33,0,2.71-.12,2.67s-.54-.12-.58-.25-.08-2.25-.33-4A23.9,23.9,0,0,0,36.41,17.93Z"/><path class="cls-2" d="M41.91,28.43a7.4,7.4,0,0,0,4.38-1.29c2.46-1.62,3.5-2.92,3.75-3s.33.17.33.38a10.1,10.1,0,0,1-4.08,3.79c-2.33,1.08-4.12,1.08-4.25,1A1.66,1.66,0,0,1,41.91,28.43Z"/><path class="cls-2" d="M41.61,31.22c.15-.15,2.71.21,4.54-.54a22.41,22.41,0,0,0,3.21-1.83c.17,0,.17.42.08.67s-1.33,2-4.29,2.5-3.79.58-3.83.33A3.37,3.37,0,0,1,41.61,31.22Z"/><path class="cls-2" d="M41.86,34.18c.13.08.46.29,1.71.25s1.54-.29,1.5-.17-.08.71-.33.79a6.48,6.48,0,0,1-2.42.25c-.75-.17-.62,0-.75-.17S41.86,34.18,41.86,34.18Z"/><path class="cls-2" d="M38.91,36.31s1.42,2.88,3.33,3.83a21.44,21.44,0,0,0,7.25,1.63c1.58,0,1.88-.29,1.88-.08s0,.88-.54.92-6.37.21-9.17-1.62-3.54-3.75-3.5-4S38.78,36.18,38.91,36.31Z"/><path class="cls-2" d="M35.82,37.06a17.52,17.52,0,0,0,3.38,4.38c2.29,2,5.21,2.33,5.25,2.58s.29.46-.17.54a9.16,9.16,0,0,1-6.08-2.71c-2.75-2.54-3.33-4.62-3.12-4.75A1.61,1.61,0,0,1,35.82,37.06Z"/><path class="cls-2" d="M32.86,37.1c.18-.23.83.29.83.29A11.21,11.21,0,0,0,36,41.93c1.75,1.92,2,1.92,1.92,2.08s-.21.29-.58.17a9.17,9.17,0,0,1-3.25-3.5C32.78,38.43,32.7,37.31,32.86,37.1Z"/><path class="cls-2" d="M30.91,37.31c0-.12.75,0,.71.17a7.4,7.4,0,0,0,.25,2.58c.33,1.08,1,1.71.87,1.92s-.92.17-1.12-.08A10.05,10.05,0,0,1,30.91,37.31Z"/><path class="cls-2" d="M29.36,36.27c.27-.08.75.83.75.83s-2.08,5.58-.46,9.29,4.63,8.21,4.58,8.5a.61.61,0,0,1-.37.42s-3.87-5-5-8.71a13.39,13.39,0,0,1-.42-7.21C28.7,38.22,29.07,36.35,29.36,36.27Z"/><path class="cls-2" d="M27.91,34.18c.21-.07.5.5.5.5a15.92,15.92,0,0,0-2,8.83c.42,4.92,2.58,8.88,2.5,9.17s-.58.17-.79,0-3-6-2.5-10.92S27.53,34.31,27.91,34.18Z"/><path class="cls-2" d="M26.41,32.85c.2-.06.29.5.29.5A11.81,11.81,0,0,0,24,39.77a35,35,0,0,0,.13,5.79c-.12.08-.67.08-.79-.12a23.82,23.82,0,0,1-.12-7.08C23.74,35.85,25.82,33,26.41,32.85Z"/><path class="cls-2" d="M22.49,34.81c.21-.16.38.25.38.25s-1.33,2.75-1.58,2.71-.71-.17-.62-.29S22.28,35,22.49,34.81Z"/><path class="cls-2" d="M11.45,42.64a21.81,21.81,0,0,1,6.21-7.12c4-2.75,8-4.42,8.17-4.29s.17.58,0,.67S20,34.35,16.91,37.06s-4.33,6-4.58,6S11.45,42.64,11.45,42.64Z"/><path class="cls-2" d="M12.78,36.64a25,25,0,0,1,6-5.42,18.15,18.15,0,0,1,7.46-2.46c.08.13,0,.67,0,.67a21.18,21.18,0,0,0-7.37,2.67,23.69,23.69,0,0,0-5.17,4.83,1.42,1.42,0,0,1-.33.46S12.82,36.68,12.78,36.64Z"/><path class="cls-2" d="M20.49,26.77c.16,0,2.92-.33,4.33-.46s1.88.17,1.88.38a1.15,1.15,0,0,1-.21.5,16,16,0,0,0-4.29.17c-1.54.42-2,.63-2,.5S20.32,26.81,20.49,26.77Z"/><path class="cls-2" d="M10.78,25.39A34.17,34.17,0,0,1,15,24.64c2.5-.29,3.79.21,3.83.42s0,.75-.21.75a15.63,15.63,0,0,0-4.71-.17c-2,.38-3.33.79-3.37.63S10.82,25.39,10.78,25.39Z"/><path class="cls-2" d="M15.36,22.85c-.18,0,.46-.58.83-.75a19.21,19.21,0,0,1,8.63,0C29.28,23,30.24,25,30.24,25l-.87.38S28.2,23.52,24,23a28.51,28.51,0,0,0-6.62-.21A17.91,17.91,0,0,1,15.36,22.85Z"/><path class="cls-2" d="M24.36,20.56A6.52,6.52,0,0,1,26,20a7.11,7.11,0,0,1,4.17,1.92c1.71,1.67,1.33,2.29,1.33,2.29H31s-1.33-2.46-3.5-3S24.36,20.56,24.36,20.56Z"/><path class="cls-2" d="M32.45,26c3.07-.79,7.17-.12,6.63,5.63s-8.92,5-9.92,1.29C28.52,30.51,29.2,26.81,32.45,26Z"/><path class="cls-5" d="M33.2,27.43c2.06-.55,4.61-.1,4.24,3.78s-5.66,3.56-6.53,1.31S30.36,28.19,33.2,27.43Z"/></g></svg>