<svg id="Layer_1" data-name="Layer 1" xmlns="http://www.w3.org/2000/svg" width="64" height="64" viewBox="0 0 64 64"><defs><style>.cls-1{fill:#fff;}.cls-2{fill:#1d1d1b;}.cls-3{fill:#cbe7f5;}.cls-4{fill:#ffe19b;}</style></defs><title>cassiopeia</title><g id="cassiopeia"><path class="cls-1" d="M24.91,52a4.9,4.9,0,0,1-4-2.33,6,6,0,0,1-.82-2.44l-9.78-7.74a5.07,5.07,0,0,1-1.56.25,4.88,4.88,0,0,1-3.08-1.12,4.41,4.41,0,0,1-1.77-3.25,5.22,5.22,0,0,1,1.64-3.9A4.94,4.94,0,0,1,9,30.22a4.41,4.41,0,0,1,4.28,2.42,5.26,5.26,0,0,1,.42,2.71l9.51,7.36a3.87,3.87,0,0,1,1-.2l.46,0h.05l5.69-10.92a4.8,4.8,0,0,1,1.11-4.2,4.12,4.12,0,0,1,3.17-1.45,4.56,4.56,0,0,1,3.84,2A3.92,3.92,0,0,1,39,30.05l6.17,4.87,6.7-16a5.18,5.18,0,0,1-.56-2.9,4.3,4.3,0,0,1,4.33-4,5.39,5.39,0,0,1,.85.07,4.14,4.14,0,0,1,3.07,2.18,4.93,4.93,0,0,1,.12,4.3A5,5,0,0,1,56.6,21.1L49.92,37a3.84,3.84,0,0,1,.51,3.61,4.21,4.21,0,0,1-4.13,2.93,4.26,4.26,0,0,1-2.66-.87,3.63,3.63,0,0,1-1.11-3.43L36.22,34.1a5.65,5.65,0,0,1-.7.2,4.92,4.92,0,0,1-1.07.11h-.14L29,45a5,5,0,0,1-.73,5.49A4.45,4.45,0,0,1,24.91,52Z"/><path class="cls-2" d="M10.53,37.52a3.25,3.25,0,0,1-3.81-.22c-1.91-1.53-1.09-3.53,0-4.62s4.28-1.09,5,.63a2.85,2.85,0,0,1,0,2.69l11.31,8.75a2,2,0,0,1,1.25-.53,3.57,3.57,0,0,1,1.34.13l6.56-12.59a3.06,3.06,0,0,1,.56-3.25A2.79,2.79,0,0,1,37,28.8a2.41,2.41,0,0,1,.16,2l8.72,6.88,7.91-18.91A3.68,3.68,0,0,1,53,16.18a2.63,2.63,0,0,1,3.22-2.44,2.85,2.85,0,0,1,1.91,4.09,3.79,3.79,0,0,1-2.78,1.81l-7.5,17.81a2,2,0,0,1,.94,2.63,2.7,2.7,0,0,1-4.09,1.25c-1-.81-.28-2.75-.28-2.75l-8-6.5a3.14,3.14,0,0,1-1.28.56,4.51,4.51,0,0,1-1.81-.06L27.06,45s1.69,2.41-.06,4.31a2.85,2.85,0,0,1-4.66-.5,4,4,0,0,1-.59-2.41Z"/><path class="cls-3" d="M8.15,33.27a2,2,0,0,1,2.78,1.41,2,2,0,0,1-2.72,2.16A1.86,1.86,0,0,1,8.15,33.27Z"/><path class="cls-4" d="M24.18,45.71a1.65,1.65,0,0,1,2.33,1.18,1.71,1.71,0,0,1-2.27,1.8A1.55,1.55,0,0,1,24.18,45.71Z"/><path class="cls-4" d="M34.13,29a1.38,1.38,0,0,1,1.94,1,1.43,1.43,0,0,1-1.9,1.51A1.3,1.3,0,0,1,34.13,29Z"/><path class="cls-4" d="M55.16,15.16a1.53,1.53,0,0,1,2.16,1.09,1.59,1.59,0,0,1-2.11,1.68A1.44,1.44,0,0,1,55.16,15.16Z"/><path class="cls-3" d="M46.11,38.49a1.17,1.17,0,0,1,1.65.83,1.21,1.21,0,0,1-1.61,1.28A1.1,1.1,0,0,1,46.11,38.49Z"/></g></svg>