<svg id="Layer_1" data-name="Layer 1" xmlns="http://www.w3.org/2000/svg" width="64" height="64" viewBox="0 0 64 64"><defs><style>.cls-1{fill:#fff;}.cls-2{fill:#1d1d1b;}.cls-3{fill:#e6e4da;}</style></defs><title>falling-asteroid</title><g id="falling-asteroid"><path class="cls-1" d="M59.47,25.65c-.24-1.43-2.44-2.34-3.31-2.34H56c-.89.09-1.41.67-2.09,1.78-.85.59-1.61-4.65-1.61-4.65,5-6.13,5.12-6.44,5.18-6.55a1.92,1.92,0,0,0,0-1.57c-.55-1.2-2.53-1.76-2.54-1.76a1.74,1.74,0,0,0-.42-.05c-.49,0-1,0-3.35,2.77-.37-.22,0-2.5.13-3.21,3.12-4,3.17-4.34,3.21-4.77a2.29,2.29,0,0,0-.68-1.79,4.07,4.07,0,0,0-2.47-1.33c-.83,0-1,0-4.61,4.53a.94.94,0,0,0-.1.08c-1.34,1.59-3.87,1.51-4,1.5.5-.68.81-1.1.82-1.12a2,2,0,0,0-.24-1.86,4.24,4.24,0,0,0-2.88-1.64,2.06,2.06,0,0,0-.52.07c-.4.12-.62.19-2,1.89-.81.6-3.14,0-3.14,0a1.85,1.85,0,0,0-.18-1.77,3.92,3.92,0,0,0-2.8-1.49,2,2,0,0,0-.74.14C28.38,3.56,11.12,28,11,28.19,7.69,33.06,4.65,38.38,4.5,44.35c-.15,6.14,4.85,10.46,7.25,12.54,2.69,2.32,9.1,4.92,13.67,4.92h0a11,11,0,0,0,1.17-.06c4.62-.49,10.5-4.37,15-9.87,2.46-3,8.07-11,10.36-14.29C59.62,26.58,59.61,26.51,59.47,25.65Z"/><path class="cls-2" d="M56.12,25c-.42,0-1.25,1.83-2.54,4S44.5,42.52,42.21,45.43s-7.75,8.75-11,11-7.71,2.29-12.54.08-9-5.62-9.92-9.87S9.16,37.56,13.83,30,33,5.31,33.12,5,32,4,31.58,4.14c-1.5.58-15.79,19.92-19.21,25s-6,10-6.17,15.25,4.21,9.08,6.67,11.21,9.25,4.92,13.54,4.46,9.83-4.33,13.83-9.25S57.83,26.18,57.79,25.93A2.83,2.83,0,0,0,56.12,25ZM32.58,18.23C33,18.06,41.71,7,41.87,6.56s-1.29-1.25-1.58-1.17-8.88,11.29-9,12C31.16,17.77,32.16,18.39,32.58,18.23Zm7.67,2.63c.54,0,12.5-15.29,12.54-15.71s-1.08-1.25-1.46-1.25S39.16,19.15,39,19.77C38.87,20,39.71,20.85,40.25,20.85Zm5.58,4.63c.29,0,10-12.08,10.08-12.33s-1.08-.83-1.42-.92S44.44,24,44.58,24.56C44.62,24.73,45.54,25.52,45.83,25.48Z"/><path class="cls-2" d="M19.29,32.56c0-.42-1.5-1.71-1.79-1.75a.79.79,0,0,1-.79-.83c0-.67-.21-4.5,5-7.46s9.58-2.42,11.38-.83.5,2.08,2.71,2.79,5.38.58,7.25,4.08,2.54,6.46,1,9.71-3,3.08-3.83,4.88-2,5.21-3.42,5.67-4.12-.75-5-.83A22.06,22.06,0,0,0,28,48.1c-1.75.17-1.83,1-3.29.25s-2.46-3.46-4.29-3.79-4,0-4.92-2.54-1-6.54.08-7.17S19.25,33.27,19.29,32.56Z"/><path class="cls-2" d="M11.87,40.6c.24-.34,1.63-.37,1.67,0s-.62,2.58-.21,3.63a7.66,7.66,0,0,0,2.46,3A14.29,14.29,0,0,1,18.5,50c.79,1,.83,1.79,2.79,2.46s2.92,1,4.25.88,3.21-.67,3.33-.54.67,1.08.46,1.21a7.79,7.79,0,0,1-4.54.5c-2.71-.37-4.83-.46-6.33-1.79s-2.21-3.83-4-4.87a5.19,5.19,0,0,1-2.79-3.33A7.62,7.62,0,0,1,11.87,40.6Z"/><path class="cls-3" d="M16.87,36c.49-.49,3.75-1.46,4.25-2.79A3,3,0,0,0,20,30.14c-.5-.33-1.08-.62-1-1.21a7.19,7.19,0,0,1,5.13-5.58c4.38-1.5,6-1.79,7.67-.12s1.75,2.67,4.17,3.42,3.92.38,5.21,2.42,2.17,5.25,1.5,7.42S41.21,39.56,40.54,40a6.89,6.89,0,0,0-1.79,1.58,4.12,4.12,0,0,0-.33.75,17.21,17.21,0,0,0-1.5-2.67c-.21,0-.79,0-.62.29s1.63,2.83,1.71,3.17a8.82,8.82,0,0,1-1.29,3.38c-.54.58-2,.54-3.37.13a7.33,7.33,0,0,0-3.62-.46c-1.62.17-2.75,1-4,.25s-2-2.67-3.75-3.21-3.54-.37-4.5-1.92A8.45,8.45,0,0,1,16.87,36Z"/><path class="cls-2" d="M18.75,36.27a.49.49,0,0,1,.75.25,6.4,6.4,0,0,0,0,2.38c.33,1.13,1,1.63.79,1.92s-.79.58-1.08.29a5,5,0,0,1-1-2.46A4,4,0,0,1,18.75,36.27Z"/><path class="cls-2" d="M28.25,25.81a2.64,2.64,0,0,1,4,2.92c-.54,2.29-4.12,3.92-5.46,2S26.41,26.73,28.25,25.81Z"/><path class="cls-1" d="M28.67,26.81a1.82,1.82,0,0,1,2.73,2c-.37,1.58-2.84,2.7-3.76,1.35A2.22,2.22,0,0,1,28.67,26.81Z"/><path class="cls-2" d="M32.5,40.81c.22.1.42-.54.08-.87a4.46,4.46,0,0,0-3.79-.29c-1.5.67-2.83,3-1.75,4.29a4.2,4.2,0,0,0,3.38,1.5c.71,0,1.83-.54,1.5-.87s-2.87-.54-2.33-2S31.62,40.39,32.5,40.81Z"/><path class="cls-2" d="M40.21,32.27c-.29-.21-2.87-1-3.62,1.13s-.83,3,.08,3.79a2.93,2.93,0,0,0,2.67.67c.33-.21.29-.83.08-.92s-1.79-.67-1.29-2a3.82,3.82,0,0,1,1.79-1.87A1.11,1.11,0,0,0,40.21,32.27Z"/><path class="cls-2" d="M38.12,38.85c-.23-.23.58-.37.71-.21s.63,1,.38,1.33-.42.63-.58.42A12.88,12.88,0,0,1,38.12,38.85Z"/><path class="cls-2" d="M35.5,40.68A7.08,7.08,0,0,1,37,43.39c-.08.42,0,.88-.37.67A11.36,11.36,0,0,1,35,41.39C34.91,41.1,35.33,40.73,35.5,40.68Z"/><path class="cls-2" d="M30.79,33.77c.24-.24.38-.5.63-.25s1.67,3.08,1.38,3.42-.29.67-.58.33A15.41,15.41,0,0,1,30.79,33.77Z"/><path class="cls-2" d="M32.71,32.64c-.16-.32.29-.54.54-.42s1.5,3,1.21,3.21-.37.63-.62.29A32.5,32.5,0,0,1,32.71,32.64Z"/><path class="cls-2" d="M34,30.48c.1-.25.63-.67.83-.46a8.76,8.76,0,0,1,1.08,2.67c-.08.33-.58.58-.58.58A19.34,19.34,0,0,1,34,30.48Z"/><path class="cls-2" d="M35.83,28.52s.29-.46.54-.37a2.85,2.85,0,0,1,.88,1.58c-.08.29,0,.54-.37.42S35.91,28.64,35.83,28.52Z"/></g></svg>