<svg id="Layer_1" data-name="Layer 1" xmlns="http://www.w3.org/2000/svg" width="64" height="64" viewBox="0 0 64 64"><defs><style>.cls-1{fill:#fff;}.cls-2{fill:#1d1d1b;}.cls-3{fill:#696a9b;}.cls-4{fill:#e7413e;}.cls-5{fill:#92a0d1;}.cls-6{fill:#fab900;}</style></defs><title>landing-space-capsule</title><g id="landing-space-capsule"><path class="cls-1" d="M35.94,63.06q-1.33,0-2.84-.06c-8.7-.37-13.75-2.08-14.23-4.83-.08-.44-.4-7,.2-8.18a2.61,2.61,0,0,1,1.78-1.32c0-2.11.14-6,.75-7.85a14.25,14.25,0,0,1,3.66-5.89,36.44,36.44,0,0,0-7.55-6.36,57.57,57.57,0,0,1-5.81-3.67,3.68,3.68,0,0,1-2.38-1.06c-1.27-1.36-1.59-6-.63-9.15a19.27,19.27,0,0,1,10-11.57A24.09,24.09,0,0,1,29.69.94a63.56,63.56,0,0,1,9.37.83c6.2.94,12,2.24,14.77,7.8,2.46,4.93,2.21,11.88.74,13.64a7.21,7.21,0,0,1-3.54,2l-.1,0-.05,0a23.73,23.73,0,0,0-6.24,4.09,25.08,25.08,0,0,0-3.88,4.27,10.42,10.42,0,0,1,3.39,2.89c-.07-.68-.15-2-.25-4.59a1.7,1.7,0,0,1,1.46-1.75l.1,0a5.83,5.83,0,0,1,.93-.09,2,2,0,0,1,2,1.3s.76,5.45-.33,6.53a2.7,2.7,0,0,1-1.79.66h0a2.27,2.27,0,0,1-1-.22,12.52,12.52,0,0,1,.7,1.76,35.48,35.48,0,0,1,1.6,8.86,3.53,3.53,0,0,1,1.55,2.65c0,.07.65,6.66-.47,8.38C47.39,61.9,42.64,63.06,35.94,63.06ZM13.84,43.77A2,2,0,0,1,12,42.38c-.12-.31-.29-.73-.42-6.43-.14-6.09-.08-6.15.51-6.74a2.35,2.35,0,0,1,1.65-.73,2,2,0,0,1,1.86,1.25c.13.3.27.62.45,6.42.18,6.12.16,6.59-.84,7.11a2.1,2.1,0,0,1-1.33.52ZM53.3,42.26a1.91,1.91,0,0,1-1.93-1.61c0-.09-.62-11.52-.18-12.41a2.3,2.3,0,0,1,4.11.2c.17.46.63,11.42,0,12.71a1.82,1.82,0,0,1-1,.92A3.07,3.07,0,0,1,53.3,42.26ZM18.9,40.8a1.92,1.92,0,0,1-1.84-1.34c-.3-.9-.11-6.86-.11-6.9A1.86,1.86,0,0,1,18.9,31a2.3,2.3,0,0,1,2.17,1.3c.3.7.32,6.29-.08,7.1A2.43,2.43,0,0,1,18.9,40.8Z"/><path class="cls-2" d="M18.64,32.84c0,.25-.08,5.71,0,6.08s.63.08.79-.25a36.79,36.79,0,0,0,0-5.67C19.39,32.71,18.66,32.67,18.64,32.84ZM53.26,22.13c.83-1,1.38-7.12-1-11.79S45.14,4.42,38.8,3.46,25.22,1.88,19.64,4.63a17.56,17.56,0,0,0-9.12,10.54c-1,3.17-.33,6.88.25,7.5a2.49,2.49,0,0,0,1.75.54,42.94,42.94,0,0,0,6,3.88c4.67,2.67,9.25,8.13,9.25,8.13-2,1-3.83,3.79-4.58,6.13S22.55,50,22.55,50s-1.71.21-2,.71a40.34,40.34,0,0,0,0,7.13c.17,1,2.79,3,12.63,3.42s13.5-1.42,14-2.25.42-5.54.21-7.25-1.54-1.67-1.54-1.67a32,32,0,0,0-1.54-9.54,8.77,8.77,0,0,0-6.12-6.17A23.92,23.92,0,0,1,43.51,28a24.71,24.71,0,0,1,6.79-4.42A6.84,6.84,0,0,0,53.26,22.13ZM30.72,32.75c.21,1,.46,1.21.46,1.21l-1.87.5a23.52,23.52,0,0,0-8.08-7.79c-5.5-3.21-7.79-4.92-7.79-4.92a4.63,4.63,0,0,1,4.25-3.25,11,11,0,0,1,6.71,1.58c.17.25.54.63.79.63s2.21,2.54,3.83,5.75,2.33,4.63,2.33,4.63A1.75,1.75,0,0,0,30.72,32.75Zm3-2.92a2.1,2.1,0,0,0-1.17.25s-1.33-3.42-3-6.71A36.35,36.35,0,0,0,27,19.09,8,8,0,0,1,33.43,16a7.45,7.45,0,0,1,6.08,2.79S37.64,23,36.72,25.5s-1.87,4.58-1.87,4.58A10.06,10.06,0,0,0,33.68,29.84Zm15.42-7.5a26.1,26.1,0,0,0-8,6.21,64.36,64.36,0,0,0-4,5.33L36,33.63a2.62,2.62,0,0,0-.21-2.83c-.12-.14,3.13-7.29,4-9.5s1.92-3.46,3.54-3.46,3.58.13,4.75,1.42A4.58,4.58,0,0,1,49.09,22.34ZM13.26,30.42a105.82,105.82,0,0,0,.29,11.33c.25.63.5.17.75,0s-.12-11-.29-11.37S13.51,30.17,13.26,30.42ZM52.72,29c-.08.17.29,11.13.33,11.38s.33.21.71.08.08-11.08,0-11.42A.62.62,0,0,0,52.72,29Zm-7.12,2.83s.17,4.54.29,4.83.83.13,1,0a37.17,37.17,0,0,0-.08-4.79C46.68,31.63,45.89,31.79,45.59,31.84Z"/><path class="cls-3" d="M32.59,31.38a1.89,1.89,0,0,1,2.63,1.13c.13,1-.21,1.17-.21,1.17a10.41,10.41,0,0,0-1.71-.12,3.69,3.69,0,0,0-1,.17A1.37,1.37,0,0,1,32.59,31.38Z"/><path class="cls-4" d="M11.84,20.71A12.32,12.32,0,0,1,14,12.34c2.88-4.38,6.58-7.13,13-7.83s14.42.92,17.67,1.92a9.46,9.46,0,0,1,6.67,6.46,17.56,17.56,0,0,1,.5,7.58c-.12.5-.17.75-.37.79s-.58.17-.54,0-.75-3.12-.75-3.12-2.5-6.25-2.79-6.37-.83.21-.67.42,2.5,5.58,2.5,5.58a11.82,11.82,0,0,0-1.5-1,4.72,4.72,0,0,0-.83-.29A27.85,27.85,0,0,0,44.72,13c-.25,0-.87.25-.71.46a22.22,22.22,0,0,1,1.79,2.92,9.89,9.89,0,0,1-1,0,2.5,2.5,0,0,0-.62,0A23.19,23.19,0,0,0,42.64,14c-.17,0-.71.08-.54.29s1.17,2.21,1.17,2.21a5,5,0,0,0-1.33,0,3.21,3.21,0,0,0-1.21.71,10.7,10.7,0,0,0-7.83-2.58,11.61,11.61,0,0,0-7.75,4A11.49,11.49,0,0,0,17.26,17C12.84,17.84,11.84,20.71,11.84,20.71Z"/><path class="cls-2" d="M48.8,12.29s.71-.33.79-.21S51.26,16.29,51,16.5s-.67.21-.79,0A29.11,29.11,0,0,1,48.8,12.29Z"/><path class="cls-2" d="M14.93,14.21a8,8,0,0,1,2.67-4c2-1.71,2.67-1.79,3-1.71s.46.75.46.75a8.06,8.06,0,0,0-3.21,2.21,6.92,6.92,0,0,0-1.58,2.79C16.09,14.42,15,14.25,14.93,14.21Z"/><path class="cls-5" d="M24.26,51s-.29-6.42.83-9.71,3.46-6.46,10.17-6.25,7.83,6.71,8.13,8A67.52,67.52,0,0,1,44.14,51c-.12.17-2.12,1.71-10.42,1.42S24.26,51,24.26,51Z"/><path class="cls-2" d="M29.43,38.09c3-2.28,12.13-1.08,11.21,6.21s-9.29,9-12.42,4.79S26.26,40.46,29.43,38.09Z"/><path class="cls-4" d="M30,39c2.59-1.94,10.32-.92,9.54,5.29S31.67,51.9,29,48.36,27.34,41,30,39Z"/><path class="cls-2" d="M30.85,40.2c2-1.49,7.92-.71,7.32,4.06s-6.07,5.85-8.11,3.13A4.91,4.91,0,0,1,30.85,40.2Z"/><path class="cls-6" d="M32.51,40.67c1.14-.32,2.92-.21,3.67,1a7,7,0,0,1,.71,3.63c-.12-.08-1.37-1.12-1.58-1s-.42.25-.33.42,1.5,1.13,1.46,1.29a2.56,2.56,0,0,1-.46.58A12.43,12.43,0,0,0,34.09,45c-.25,0-.5.42-.29.58s1.54,1.42,1.46,1.58-.54.46-.67.38S33.39,46,33.18,46.09s-.67,0-.5.29l1,1.42a2.91,2.91,0,0,1-3.46-1.92A3.7,3.7,0,0,1,32.51,40.67Z"/><path class="cls-2" d="M32.34,41.71c.19-.1.71.13.58.46s-.87.38-1.08,1.33,0,1.38-.17,1.42-.67.17-.79,0a2.66,2.66,0,0,1,1.46-3.17Z"/><path class="cls-3" d="M22.39,52.09c.07-.37,3,1.79,10.58,1.75s12.33-1.67,12.42-1.42a48,48,0,0,1,.33,5.25c-.12,0-.87-2.46-1.12-2.5s-.62.13-.58.33a20.2,20.2,0,0,1,1.08,2.88,3.21,3.21,0,0,1-.92.54s-1.42-4.75-1.79-4.79-.87,0-.83.21,1.79,4.75,1.54,4.83-.67.17-.67.17S40.76,55.09,40.59,55s-.83.13-.79.33,1.79,4,1.63,4-.83.13-.83.13a39.4,39.4,0,0,0-1.67-3.92c-.17,0-.83.08-.75.29l1.38,3.58s-1.12.21-1.17.08-1-3.42-1.25-3.37-.75.08-.67.29a19.09,19.09,0,0,1,1,3.17,71.18,71.18,0,0,1-7.54-.5c-4.37-.46-7.21-1.67-7.37-1.92A42.31,42.31,0,0,1,22.39,52.09Z"/></g></svg>