<svg id="Layer_1" data-name="Layer 1" xmlns="http://www.w3.org/2000/svg" width="64" height="64" viewBox="0 0 64 64"><defs><style>.cls-1{fill:#fff;}.cls-2{fill:#1d1d1b;}.cls-3{fill:#85bfe9;}.cls-4{fill:#cbe7f5;}</style></defs><title>pluto</title><g id="pluto"><path class="cls-1" d="M34.25,60.11a30.91,30.91,0,0,1-8.81-1.37C14.61,55.55,9.8,49.82,6.53,44.64c-4.45-7-2.21-18.06-1.42-21.27.89-3.62,5.23-15.67,23.64-19a26.14,26.14,0,0,1,4.7-.46c4.23,0,7.41,1.2,11.46,3.28,4.92,2.52,8.18,5.1,12.32,12.2,4.6,7.88,2.79,18,1.29,23.4-1.95,7-4.87,10.79-10.43,13.53C44,58.31,39.89,60.11,34.25,60.11Z"/><path class="cls-2" d="M29,6c6.52-1.18,10.29.21,15.08,2.67s7.71,4.83,11.63,11.54S58.63,36,56.88,42.32s-4.21,9.83-9.54,12.46S36,60.07,25.92,57.11,11.26,48.94,8,43.73,5.22,30,6.76,23.77,14.13,8.73,29,6Z"/><path class="cls-3" d="M12.34,17.27c-.12-.36,4-5.92,12-8.25s11.38-1.37,13.88-.71,3.5,1.42,3.42,1.63-.21.42-.5.38-3.5-1.46-5.33-.75S34,10.82,32.67,10.9s-3.62.08-4.12.38-.71.83-.5,1.08,3.17,0,3.21.38.5,3.29,1.92,3.33,4.33-.92,5.42-.79,3.92,4.29,6,4.21,6.92-1.46,7.63-1.17S55,21.15,55.76,28.65,55,40.9,54.92,40.77a69.41,69.41,0,0,0-5.25-4.62c-.25,0-.75.67-.58.92s5.63,4.42,5.58,4.79-1.5,3.92-1.71,3.83S50.13,43,49.76,43.23s-.71.67-.62.79,3.46,2.25,3.38,2.5a8.19,8.19,0,0,1-.79,1.13,33.93,33.93,0,0,0-3.46-2.83c-.21.08-.75.54-.58.75s3.33,3,3.33,3-3.75-.83-4.71-.37S43,53,42.47,53.61s-1.92,2-2.92,2.21-8.42,1.29-14.67-1.33-10.5-4.79-14.37-10.92-2.83-13-2.63-13.12,5.17-1.25,5.5-2,1-3,1.46-4.21,1.5-4.42,1.08-5.08S12.42,17.52,12.34,17.27Z"/><path class="cls-2" d="M16.88,17.15c-.13-.18,1.42-1.83,3-3s3.17-2.37,3.58-2,.71.71.38,1a10.12,10.12,0,0,0-4.12,2.75c-1.54,2-1.62,2.38-1.87,2.33S17,17.32,16.88,17.15Z"/><path class="cls-4" d="M32.92,12.23c.18-.35,1.46.42,2,.17s1.25-1.29,2.21-1,3.25.79,3.88.5a1.86,1.86,0,0,0,.83-.67s.54-.79.79-.75A23.76,23.76,0,0,1,48,13.73c2.58,2,3.21,2.71,2.88,2.83a30.53,30.53,0,0,1-4.79.88,5,5,0,0,1-2.29-.25c-.5-.21-3.33-3.62-4.92-3.67a8.81,8.81,0,0,0-3.21.42c-1.08.29-1.21.75-1.71.42S32.76,12.57,32.92,12.23Z"/><path class="cls-4" d="M11.38,19c.15-.14,2.79,1,2.75,1.38a71.21,71.21,0,0,1-2.12,7c-.25.17-4.58,1.38-4.5,1.13S8.92,21.27,11.38,19Z"/><path class="cls-2" d="M13.34,34.27a9.92,9.92,0,0,1,6.75-2c3.13.46,3.83,1.29,5,.75s2.79-2.71,4-2.79,3.42.29,5.88.38,5.83,0,6.21.38a3.39,3.39,0,0,1,.33,2.58c-.29.67-2,1.67-2.17,2.21s-.12,1.38.25,1.38,2.54-1,3.38-.79,2.13,1.54,3.33,1.75,2.08-.21,2.38.25-.08,2.25-.29,2.88a3.8,3.8,0,0,1-1.87,2.33c-1.08.42-4,.79-4.29,1.13A4.38,4.38,0,0,0,41.47,46c-.21.46-1,2-2.21,2.29a9.31,9.31,0,0,1-2.87.25,22.25,22.25,0,0,1-3-.79S31,44.82,30.34,44.61s-3.46-.08-4.42-1.12-1.62-5.58-2.58-5.79a11.38,11.38,0,0,0-4,.25A7.94,7.94,0,0,1,15,37.4c-1.29-.5-1.54-.54-1.62-.92S13,34.73,13.34,34.27Z"/><path class="cls-4" d="M15.59,34.73c.18-.61,2.12-1.37,4.5-.87s3.33,1.75,5.33,1.17,2.83-2.62,4.25-2.75,5.67.54,6.92.58,2.71-.33,2.79,0S38.3,34,38,34.73s-.67,2.58-.29,3.17a2.21,2.21,0,0,0,1.5,1c.38,0,2.63-.83,3.33-.5a17.08,17.08,0,0,0,2.63,1.29c1.25.42,2,.08,2,.54a3.66,3.66,0,0,1-1.25,1.92c-.54.33-4.71.42-5,.88s-1,3.38-2.08,3.5-3,.25-3.5-.12-2.71-3.42-3.12-3.42-4.67-.17-4.75-.87a30.39,30.39,0,0,0-1.75-5.58,8.68,8.68,0,0,0-4.17-.79,18.9,18.9,0,0,1-3.79.29C15.88,35.9,15.47,35.15,15.59,34.73Z"/><path class="cls-2" d="M15,41.57c.23-.17,2.88-.21,2.92.17s.25.75,0,.88a7.43,7.43,0,0,1-2.71.08C14.92,42.48,14.84,41.69,15,41.57Z"/><path class="cls-2" d="M18.51,49c-.17-.17.79-.75,1.63-.58a5.18,5.18,0,0,0,2,.25c1-.08,2.13-.37,2.25-.12s.38.83.08.92a9.76,9.76,0,0,1-2.67.13,4.61,4.61,0,0,0-2-.08c-.42.17-.5.58-.83.33S18.67,49.15,18.51,49Z"/><path class="cls-2" d="M32.13,52.11a4.45,4.45,0,0,1,2.21-.33c.13.17.38.71.08.92s-1.42.79-1.83.54A1.11,1.11,0,0,1,32.13,52.11Z"/><path class="cls-4" d="M45.59,53.65c-.33.08-1.33-.42-1.08-.62s2.29-3.29,2.75-3.33,3.42.33,3.25.63a17,17,0,0,1-2.75,1.83C46.84,52.69,45.59,53.65,45.59,53.65Z"/><path class="cls-2" d="M20.51,25.4c.15-.09,1.42.5,2.21.42s1.25-.42,1.29,0,.08.71-.08.79a7.07,7.07,0,0,1-2.17.17,2.9,2.9,0,0,1-1.42-.37C20.26,26.27,20.3,25.52,20.51,25.4Z"/><path class="cls-2" d="M40.38,26.94c0,.17,1.88,0,1.92.33s.08.58-.33.67a3.8,3.8,0,0,1-1.83-.08C39.88,27.65,40.38,26.9,40.38,26.94Z"/><path class="cls-2" d="M51,22.9c.27-.2,3.13,2.17,3.17,2.46s.21.67-.17.67a16.35,16.35,0,0,1-3.46-2A1.92,1.92,0,0,1,51,22.9Z"/><path class="cls-2" d="M50.22,26.44s4.38,3.42,4.29,3.79-.08.63-.33.5-4.25-3.21-4.29-3.33A3.25,3.25,0,0,1,50.22,26.44Z"/><path class="cls-2" d="M50,30.11c.13,0,4.63,3.29,4.67,3.71s.13.92-.08.88a51.44,51.44,0,0,1-4.67-3.33A1.49,1.49,0,0,1,50,30.11Z"/><path class="cls-2" d="M50,33.48c.15-.22,4.5,3.5,4.5,3.79s.58,1-.12.67a30.8,30.8,0,0,1-4.5-3.5A1.74,1.74,0,0,1,50,33.48Z"/><path class="cls-2" d="M27.34,19.9c.06-.11,3.46.25,3.5-.25a6.33,6.33,0,0,1,.58-2.29,24.08,24.08,0,0,1,5.29-.21c2.08.17,3.67.75,3.79,1.17s-.46,1.08.25,1.42,2.67.75,2.75,1.25-1,3.54-1.46,3.58a7.86,7.86,0,0,0-3.37.13c-1.58.54-4.5,1-5.12.13s-2-3.33-2.33-3.29-2.83,1-3.17.67A4.57,4.57,0,0,1,27.34,19.9Z"/><path class="cls-4" d="M33.34,19.07c.27-.14,5.17,0,5.29.25A5,5,0,0,0,39.8,21c.42.21,2,.42,2,.75s.08.79-.21.83l-4.79.54c-1.17.13-1.54.58-2,.08s-1.21-2.71-1.62-2.92-.46-.37-.5-.62S33.09,19.19,33.34,19.07Z"/></g></svg>