<svg id="Layer_1" data-name="Layer 1" xmlns="http://www.w3.org/2000/svg" width="64" height="64" viewBox="0 0 64 64"><defs><style>.cls-1{fill:#fff;}.cls-2{fill:#1d1d1b;}.cls-3{fill:#f2910d;}.cls-4{fill:#ffe19b;}.cls-5{fill:#e7413e;}.cls-6{fill:#a42116;}</style></defs><title>space-ship_1</title><g id="space-ship-3"><path class="cls-1" d="M43.9,59.59A8.17,8.17,0,0,1,40.6,59a16.83,16.83,0,0,1-4.1-3.14,16.72,16.72,0,0,1-4.56.64l-.8,0a14,14,0,0,1-4.28-.84A10.74,10.74,0,0,1,19,59.21a10.42,10.42,0,0,1-1.19-.07c-6.12-.72-10.78-6.61-13.11-11.88a34.15,34.15,0,0,1-2.55-17.5C2.9,23.32,7,16.23,9,13.38l.08-.11c2.16-3,5.76-8,12.06-8.82a5.37,5.37,0,0,1,.65,0,4.73,4.73,0,0,1,3.9,2A6.18,6.18,0,0,1,26.23,12a32,32,0,0,1-2.08,4.4c-1.33,2.5-2.84,5.34-3.22,8.07-.47,3.42-.12,6.15,1,8.13.14.25.3.49.46.72a11.75,11.75,0,0,1,10-6.16h.16a9.5,9.5,0,0,1,8.86,5.39,10.2,10.2,0,0,0,.61-3.21c.26-5.49-.65-10.44-2.56-13.94l-1-1.77c-2.15-3.91-2.73-5-2.49-6.07.17-.82,1-2.71,4.86-2.71a19.43,19.43,0,0,1,3.2.31c5.63,1,12.66,6.64,15.67,12.67,3.47,6.94,2,17.83,1.49,21-1,5.91-5,13.53-9.15,17.35A12.14,12.14,0,0,1,43.9,59.59Z"/><path class="cls-2" d="M21.34,6.14c2.51-.31,4.41,2,3.28,5.34s-4.72,8-5.37,12.78.28,7.56,1.25,9.22a18.09,18.09,0,0,0,2.34,3.06s2.25-7.56,9.63-7.66,8.38,7.19,8.38,7.19,2.69-1.28,2.94-6.62S43.22,18.66,41,14.62s-3.42-6.08-3.29-6.67,1-2,6.11-1.08S55.55,13.2,58.26,18.62s2.29,14.21,1.33,20-5,13-8.62,16.38-7.83,3.29-9.67,2.46A19,19,0,0,1,37,53.87a14.3,14.3,0,0,1-5.75.88,9.78,9.78,0,0,1-4.83-1.25s-3,4.58-8.33,4-9.58-6-11.75-10.87A32.25,32.25,0,0,1,3.88,29.95c.67-6,4.5-12.79,6.5-15.58S15.72,6.82,21.34,6.14Z"/><path class="cls-3" d="M21.63,8.07c2,.17,1.63,2.71.29,5.17s-3.87,5.92-4.58,10.87a15.49,15.49,0,0,0,2,10.83,14.32,14.32,0,0,0,3,3.54,28.23,28.23,0,0,0-.21,7.33,18.45,18.45,0,0,0,2.42,6.58S22,55.7,18.18,55.57s-8-4-10.54-10.92S4.88,31.57,6.22,26.49a40.28,40.28,0,0,1,8-14.5C17,9.07,19.63,7.91,21.63,8.07Z"/><path class="cls-2" d="M16.93,10.91a2.91,2.91,0,0,1,1.83-.83c1.13-.21,2-.17,2,0s0,.83-.21.83a3.16,3.16,0,0,0-2.08.17c-.79.5-1.33,1-1.46.88A1.52,1.52,0,0,1,16.93,10.91Z"/><path class="cls-2" d="M14.76,15.57c1.74-.3,2.46.88,2.29,2.79s-3.29,2.79-4.5,1.29S12.84,15.91,14.76,15.57Z"/><path class="cls-4" d="M14.71,16.32c1.2-.21,1.69.6,1.58,1.92a1.87,1.87,0,0,1-3.1.89C12.36,18.1,13.39,16.55,14.71,16.32Z"/><path class="cls-2" d="M9.55,27.78c1.11-1.38,5.58-1.46,5.5,3.58s-5.67,4.13-6.58,1.92A5.13,5.13,0,0,1,9.55,27.78Z"/><path class="cls-3" d="M10.15,28.75c.78-1,3.92-1,3.86,2.51s-4,2.89-4.62,1.34A3.59,3.59,0,0,1,10.15,28.75Z"/><path class="cls-2" d="M11.63,40.2c1.5-1.78,6.17-1.46,6.42,3.38s-5.5,5.46-6.92,2.5S10.51,41.53,11.63,40.2Z"/><path class="cls-5" d="M12.28,41c1.12-1.33,4.62-1.09,4.8,2.53S13,47.65,11.91,45.44,11.44,42,12.28,41Z"/><path class="cls-2" d="M14.34,50.91a4.81,4.81,0,0,0,2.25,2c1.46.54,2.13-.33,2.42-.25s.5.75.29.92a2.7,2.7,0,0,1-3.42.08c-1.79-1.25-2.42-1.83-2.33-2.12S14.34,50.91,14.34,50.91Z"/><path class="cls-6" d="M32,30.66c2.71-.15,5.88.79,6.83,4.5s.67,10.17-.58,13.46-3.29,4.17-7,4.08-5.46-1.46-6.5-4.37-.71-11,.54-13.62S29.05,30.82,32,30.66Z"/><path class="cls-2" d="M30.47,32c2.19-.31,5.5-.42,6.92,3.71s-.17,12.25-1.08,12.46-2.21-2.08-5.5-1.92S27.51,48.12,26.55,48s-1.33-6.12-.87-9.54S27.8,32.37,30.47,32Z"/><path class="cls-5" d="M32,32.95c2.71,0,3.67,1.54,4.17,3.54a13,13,0,0,1,.42,3.5s-.83-1.54-1.08-1.46-.5.29-.33.5,1.42,1.54,1.42,2a6.76,6.76,0,0,1-.12,1,17.56,17.56,0,0,0-2-2.42.75.75,0,0,0-.42.79c.08.33,2.38,2.88,2.38,3.21s-.12,1.17-.12,1.17-2.42-3.21-2.71-3.08-.58.54-.42.79a35.93,35.93,0,0,1,2.63,3.75.65.65,0,0,1-.21.42l-.5-.25s-2.25-3.5-2.54-3.5-.71.21-.62.5a24.67,24.67,0,0,0,1.33,2.13L32,45.24c-.21,0-.46-1-.67-1.08s-.87.13-.75.33a2.1,2.1,0,0,1,.17.67,3.77,3.77,0,0,0-2.12.29c-1,.5-1.54,1-1.71.75a40,40,0,0,1,0-8.46C27.34,35.2,29,32.91,32,32.95Z"/><path class="cls-2" d="M31.43,33.95a.67.67,0,0,1,.62.67c0,.25-1.87,0-2.21,1.46s-.12,3.5-.37,3.54-1,.21-1.17,0a12.14,12.14,0,0,1,.33-4.25A2.91,2.91,0,0,1,31.43,33.95Z"/><path class="cls-3" d="M39.8,8.49c.2-.44,5.46-1,11,3.5a19.88,19.88,0,0,1,7.71,15.67c0,5.33-.29,12.38-3.29,17.71s-5.17,8-6.37,9S47,55.62,47,55.41s-1-4.12-1.33-4.25-.83,0-.75.13S46.26,55.62,46,55.7s-.83.46-1,.21-1.25-4.46-1.46-4.5-1,0-.83.33,1.5,4.08,1.25,4.13a4.29,4.29,0,0,1-1.12-.29s-1.08-3.5-1.33-3.5-.79,0-.71.33a15.66,15.66,0,0,1,.63,2.67,25.47,25.47,0,0,1-2.12-1.46c-.62-.46-1.42-1-1.25-1.25a13.11,13.11,0,0,0,3-7.87c.38-5.12.38-6.29.38-6.29s3.21-1.37,3.67-6.37.83-9.87-.75-14.21S39.63,8.87,39.8,8.49Z"/><path class="cls-2" d="M43.13,10c.68-.11,4,1.17,4.13,1.63s.17.71-.21.67-2-.92-2.79-1.12S42.88,10,43.13,10Z"/><path class="cls-2" d="M48.68,17.62c1.15-.77,4-.12,4.08,3S49.51,24,48.09,22.2A3.24,3.24,0,0,1,48.68,17.62Z"/><path class="cls-4" d="M49.13,18.5a2,2,0,0,1,2.75,2,1.71,1.71,0,0,1-3.14,1.09A2.18,2.18,0,0,1,49.13,18.5Z"/><path class="cls-2" d="M48.43,29c1.43-1.31,5.88-.5,5.63,3s-3.71,3.71-5.67,1.79A3.05,3.05,0,0,1,48.43,29Z"/><path class="cls-3" d="M49.15,29.89c1-.89,4-.34,3.82,2s-2.52,2.52-3.84,1.22A2.07,2.07,0,0,1,49.15,29.89Z"/><path class="cls-2" d="M45.68,40.95c2-.75,5.25.5,4.79,4.38a3.74,3.74,0,0,1-6.54,2.08C42.38,45.37,42.55,42.12,45.68,40.95Z"/><path class="cls-5" d="M46,42c1.45-.54,3.8.36,3.46,3.16a2.71,2.71,0,0,1-4.73,1.51A2.92,2.92,0,0,1,46,42Z"/><path class="cls-2" d="M51,37.78c.06-.3.71-.33.83-.08S53.18,41,53,41.32s-.87.46-1,.29A24.7,24.7,0,0,1,51,37.78Z"/><path class="cls-2" d="M53.26,37.24c.17-.17.83-.42,1-.29s1.17,3,.83,3.42-.71.5-.87.33A13.3,13.3,0,0,1,53.26,37.24Z"/><path class="cls-2" d="M55.22,36.41c.11-.22.54-.42.71-.25s.54,1.42.38,1.54-.71.5-.79.25A8.88,8.88,0,0,1,55.22,36.41Z"/><path class="cls-2" d="M46.59,50.66c.12-.24.88-.29.92-.17s1.13,3,.88,3.25-.58.5-.71.33A16.3,16.3,0,0,1,46.59,50.66Z"/><path class="cls-2" d="M48.59,50.16c0-.12.63-.29.75-.12a7.42,7.42,0,0,1,.42,2c-.08.13-.54.58-.67.38A9,9,0,0,1,48.59,50.16Z"/></g></svg>