<svg id="Layer_1" data-name="Layer 1" xmlns="http://www.w3.org/2000/svg" width="64" height="64" viewBox="0 0 64 64"><defs><style>.cls-1{fill:#fff;}.cls-2{fill:#1d1d1b;}.cls-3{fill:#1f4863;}.cls-4{fill:#e6e4da;}</style></defs><title>stormtrooper</title><g id="stormtrooper"><path class="cls-1" d="M31.93,63.06a12.07,12.07,0,0,1-5.88-1.9,19,19,0,0,1-5.54.95,10.61,10.61,0,0,1-2.84-.36,10.89,10.89,0,0,1-7.62-7.11,11.13,11.13,0,0,1-.65-3.37,12.58,12.58,0,0,1-3.13-6.39c-.58-4.41,1.64-8.73,2.33-9.94a15.2,15.2,0,0,1,1-1.6,10,10,0,0,1-.93-3.93A7.26,7.26,0,0,1,11.5,23c-.35-2.3-.84-7,1.23-10.64,2.77-4.88,6.62-9.6,15.92-11.09A26.72,26.72,0,0,1,32.84.94c7.82,0,14.11,3.34,16.64,6.43,3.25,4,3.67,11.26,3.72,12.68,0,1.2,0,2.26,0,3,1.5.83,3.06,2.78,3,6.7,0,3.24-.8,5.09-1.64,6.14,1.24,1.86,3.19,5.25,3.22,8.25a12.19,12.19,0,0,1-3.29,8.07l-.07.08a4.4,4.4,0,0,1-.75.7c0,1.93-.26,5.72-3.16,7.29-3.29,1.79-9.42,1.81-9.68,1.81a7.47,7.47,0,0,1-.79,0,12.58,12.58,0,0,1-1.9-.45,16.52,16.52,0,0,1-6.12,1.42Z"/><path class="cls-2" d="M13.37,24c.13,0-1.62-6.5.83-10.83S20,4.36,28.92,2.95s16.63,2.29,19.25,5.5,3.25,9.33,3.33,11.67,0,4.17,0,4.17,3.13.17,3.08,5.5-2.25,5.83-2.25,5.83,3.79,4.88,3.83,8.58-2.54,6.54-3,7a4.19,4.19,0,0,1-1.21.88s.63,5.17-2.21,6.71S41,60.49,40.29,60.41a16.42,16.42,0,0,1-2.21-.58A15.35,15.35,0,0,1,32,61.36a10.93,10.93,0,0,1-5.67-2.08s-4.58,1.83-8.17.83a9.14,9.14,0,0,1-6.46-6c-.83-2.54-.5-3.46-.5-3.46a11.25,11.25,0,0,1-3.21-6c-.46-3.46,1.13-7.12,2.13-8.87a8.16,8.16,0,0,1,1.71-2.29s-1.21-1-1.37-4.17S12.08,24.2,13.37,24Z"/><path class="cls-1" d="M17,23.2a20.91,20.91,0,0,1-.58-4.25,5,5,0,0,0,0-1.92,9.93,9.93,0,0,0-1.12-1s1.71-6,6.5-8.87S32.17,3.82,37.58,4.86,47.33,10,48.33,12.41a15.78,15.78,0,0,1,1,5.29s-1.83.42-1.79.63a38.3,38.3,0,0,1,.13,4.88,58,58,0,0,1-16.21,1.88A55.75,55.75,0,0,1,17,23.2Z"/><path class="cls-3" d="M51.42,26c.78-.41,1.54,1,1.63,1.33a6,6,0,0,1,0,1.17,1.07,1.07,0,0,0-1.5.67,3.24,3.24,0,0,0,.58,3.08,1.53,1.53,0,0,0,1.13.17s-.75,2-1.42,2.13-1.67-1.42-1.75-3.29S50.62,26.41,51.42,26Z"/><path class="cls-3" d="M12,26.95s.67-1.37,1.29-1.62,2.58,1,2.17,4.38-1.67,4-2.25,3.87S12,31.74,12,31.74A1,1,0,0,0,13.67,31a6.61,6.61,0,0,0,.08-3.29A2.36,2.36,0,0,0,12,26.95Z"/><path class="cls-1" d="M16.37,26.2a53.59,53.59,0,0,0,17.21,1.88c9.67-.62,15.71-1.37,15.71-1.37s-1,4.29-.25,5.92a14.69,14.69,0,0,0,1.83,2.83s4,7.92,3.38,10.17S51.17,50,51.17,50A10,10,0,0,0,48,46.28c-2-1.29-3.92-2.62-3.92-2.62S45.92,40.7,47,40a2.94,2.94,0,0,1,3,.08c.38.38.54.5.67.33a1.68,1.68,0,0,0,.29-.83,5.55,5.55,0,0,0-2.67-1.33C47.08,38,46,39.36,45.08,40.57s-1.5,1.92-1.5,1.92S41,40,38.42,37.16,34,33.49,32.08,33.53s-3.92,3.79-6.67,5.79S21,42.45,21,42.45s-3.92-4.21-4.87-4.29-3,1.17-2.87,1.46.58,1.08.83,1,1.75-1.17,2.29-.79,3.79,3.46,3.67,3.79S17.62,45,15.29,46.49a12.8,12.8,0,0,0-2.87,2.21s-3-2.75-2.46-6.17a27.36,27.36,0,0,1,3-7.71s2.83-.42,3.25-2.62A32.71,32.71,0,0,0,16.37,26.2Z"/><path class="cls-1" d="M32.71,39.11c2.29-.05,7.17,5,11.79,7.63S51,51.82,49.62,55s-3.33,3.21-6.17,3.29a38.7,38.7,0,0,1-5.58-.54,10.37,10.37,0,0,1-6,1.58c-3.54-.21-4.83-1.92-5.25-2s-4.42,1.79-8.5.29-5.62-6.21-4-8.12,7.25-3.25,10.75-6S29,39.2,32.71,39.11Z"/><path class="cls-2" d="M18,13.78a8,8,0,0,1,2.42-3.54c2-1.83,2.71-2.08,2.83-2s.88.67.75.83-2.62,2.12-3.29,2.79-1.29,2.79-1.5,2.75S18.29,13.82,18,13.78Z"/><path class="cls-2" d="M43.33,9.32c.34.07,2.71,1.21,2.54,1.62s-.12.54-.33.54a11.23,11.23,0,0,1-2.29-1C43.12,10.32,43.12,9.28,43.33,9.32Z"/><path class="cls-2" d="M43.25,11.78s4.5,2.17,4.58,2.54a.6.6,0,0,1-.17.58s-4.21-2-4.33-2.12S43,11.86,43.25,11.78Z"/><path class="cls-2" d="M43.25,14.45a32.51,32.51,0,0,1,4.42,2c.08.25,0,.67-.08.75a36.89,36.89,0,0,1-4.46-1.79A3.15,3.15,0,0,1,43.25,14.45Z"/><path class="cls-2" d="M42.92,16.86a10,10,0,0,1,3.67,1.71c0,.33.25.75,0,.75a26.91,26.91,0,0,1-3.87-1.58C42.54,17.57,42.75,16.95,42.92,16.86Z"/><path class="cls-2" d="M42.75,19.2A21.37,21.37,0,0,1,46.54,21c.13.17,0,.92-.12.88s-3.62-1.42-3.75-1.58S42.54,19.2,42.75,19.2Z"/><path class="cls-2" d="M42.25,21.7c.19.19,2.54.88,2.46,1.08a.59.59,0,0,1-.46.42,6.17,6.17,0,0,1-2.08-.71C42,22.28,42.21,21.66,42.25,21.7Z"/><path class="cls-2" d="M18.5,28a36.1,36.1,0,0,0,5.54.79c3,.13,4.38.42,4.38,1.17s-1.83,3.12-5.21,3.5-5,.29-5.33-.08S17.67,28.28,18.5,28Z"/><path class="cls-2" d="M37.62,29.2c.47-.69,5.63-.25,7.33-.25s2.54,0,2.58.25.25,4.08,0,4.33a10.15,10.15,0,0,1-6-.17C39.21,32.41,37.25,29.74,37.62,29.2Z"/><path class="cls-2" d="M16.71,34.61a6.12,6.12,0,0,0,4.54,1.29c2.75-.37,6.25-3.54,8.13-4.62s2.75-1.46,4.33-1.25,4,2.5,6.29,4,4,2.17,5.46,2.08,1.83-.37,1.88,0,.17.92,0,1A7.45,7.45,0,0,1,42.42,37c-2-.92-7.12-5.79-9.46-5.79s-8.08,5.5-11.42,5.83-5.46-1.46-5.46-1.67S16.5,34.57,16.71,34.61Z"/><path class="cls-2" d="M12.71,42.74c.05-.22,2.25-1.71,2.58-1.5a.54.54,0,0,1,.21.79,11.29,11.29,0,0,1-2.33,1.54C13,43.57,12.67,42.91,12.71,42.74Z"/><path class="cls-2" d="M13.62,44.45c.05-.22,2.25-1.71,2.58-1.5a.54.54,0,0,1,.21.79,11.29,11.29,0,0,1-2.33,1.54C13.87,45.28,13.58,44.61,13.62,44.45Z"/><path class="cls-2" d="M51.22,42.66c-.05-.22-2.25-1.71-2.58-1.5a.54.54,0,0,0-.21.79,11.29,11.29,0,0,0,2.33,1.54C51,43.49,51.26,42.82,51.22,42.66Z"/><path class="cls-2" d="M50.3,44.36c-.05-.22-2.25-1.71-2.58-1.5a.54.54,0,0,0-.21.79,11.29,11.29,0,0,0,2.33,1.54C50,45.2,50.34,44.53,50.3,44.36Z"/><path class="cls-2" d="M39.72,44.45c-.05-.22-2.25-1.71-2.58-1.5a.54.54,0,0,0-.21.79,11.29,11.29,0,0,0,2.33,1.54C39.47,45.28,39.76,44.61,39.72,44.45Z"/><path class="cls-2" d="M38.8,46.16c-.05-.22-2.25-1.71-2.58-1.5a.54.54,0,0,0-.21.79A11.29,11.29,0,0,0,38.34,47C38.55,47,38.84,46.32,38.8,46.16Z"/><path class="cls-2" d="M23,46.41c.33.33,1.38,1.88,1.63,1.75s.71-.33.54-.5-1.54-2-1.79-1.83A1.24,1.24,0,0,0,23,46.41Z"/><path class="cls-2" d="M39.37,47.91c.08-.21,1-1.37,1.29-1.37s.79.29.67.67a4,4,0,0,1-1.42,1.29C39.75,48.49,39.37,47.91,39.37,47.91Z"/><path class="cls-2" d="M32,45.57c2-.12,4,1.13,5.63,2.75s1,1.63,2.75,1.67,5.92-1.5,7.5,1.33S48,56.24,46,57s-5,0-6.17-.17a7.14,7.14,0,0,0-2.12-.25,6.85,6.85,0,0,1-5.62,1.88,8.38,8.38,0,0,1-5.5-2.25c-.37-.21-3.5,1.46-6.62.88s-4.12-2.92-3.75-5a5,5,0,0,1,5.88-3.58c2.71.75,3.92,1.79,4.83,1.21S28.62,45.78,32,45.57Z"/><path class="cls-4" d="M32.5,46.74c2.34,0,4.21,3.29,5.46,3.92s4.92-.25,7,.13A2.52,2.52,0,0,1,47.21,54C47,55.41,46,56.53,43.58,56.45s-5-1.37-5.75-1.25-2.58,2.08-4.25,2.33a7.63,7.63,0,0,1-4.67-1A12,12,0,0,0,26.75,55c-.67-.21-2.92,1.29-5.71,1s-3.71-2.08-3.37-3.75,1.88-3.08,3.58-2.62,4.71,2.13,5.88,1.5S29.71,46.74,32.5,46.74Z"/><path class="cls-3" d="M20.62,51.24c1.43-.81,2.88.71,2.75,2.08a1.87,1.87,0,0,1-3.21,1.08C18.75,53.2,19.67,51.78,20.62,51.24Z"/><path class="cls-3" d="M43.12,51.7c1.43-.81,2.88.71,2.75,2.08a1.87,1.87,0,0,1-3.21,1.08C41.25,53.66,42.17,52.24,43.12,51.7Z"/><path class="cls-3" d="M31.12,51.34a14,14,0,0,1,.18-2.19c.11,0,2.38-.22,2.48.11a15.07,15.07,0,0,1,.07,2.12s1.79,0,1.83.15a11.68,11.68,0,0,1,0,2.78c-.18.07-1.68.29-1.68.29a7.34,7.34,0,0,1,0,1.53,9.38,9.38,0,0,1-3,0c0-.22-.07-1.28-.07-1.28s-1.5-.18-1.5-.37a29.06,29.06,0,0,1,.29-3.25C29.73,51.19,31.12,51.34,31.12,51.34Z"/></g></svg>