<svg id="Layer_1" data-name="Layer 1" xmlns="http://www.w3.org/2000/svg" width="64" height="64" viewBox="0 0 64 64"><defs><style>.cls-1{fill:#fff;}.cls-2{fill:#1d1d1b;}</style></defs><title>brain-slug</title><g id="brain-slug"><path class="cls-1" d="M30.17,58.79a6.49,6.49,0,0,1-.67,0,15.14,15.14,0,0,1-2.79-.7,15.49,15.49,0,0,0-4.31-.92,4.47,4.47,0,0,0-1.06.12,19.55,19.55,0,0,1-4.47.72,4.61,4.61,0,0,1-4.39-2.3,5.39,5.39,0,0,1-.18-4.73A5.76,5.76,0,0,1,14.7,48.2c-.28-3.08-.81-11,.41-16.24,1.54-6.58,3.18-9.82,6.05-12a18.78,18.78,0,0,1,4.18-2.32,28.82,28.82,0,0,0-1.08-2.78l-.38,0a15.85,15.85,0,0,1-1.91.15,4.32,4.32,0,0,1-2.58-.68,18,18,0,0,1-1.92-1.71l-.05,0a2.53,2.53,0,0,1-1.49.4,6.43,6.43,0,0,1-3-.73,2.9,2.9,0,0,1-1.52-2.27,2.46,2.46,0,0,1,1.16-2.09A9.18,9.18,0,0,1,17,6.85,3.71,3.71,0,0,1,18,7a8.64,8.64,0,0,1,2.71,1.86c.35.29.84.7,1.17.95a13.82,13.82,0,0,1,1.89-.24l0-.07a2.73,2.73,0,0,1,.41-2.21,4.62,4.62,0,0,1,3.39-2,4.14,4.14,0,0,1,.6,0c2.75,0,5.71,2.75,5.92,4.81,0,.39.05.73.06,1,2.48,1,3.81,2.34,4,4.07a14.32,14.32,0,0,1,.08,2.38c2.41.79,6.69,3.26,9.06,10.86A43.94,43.94,0,0,1,49,45.67a6.94,6.94,0,0,1,3.6,6,6.31,6.31,0,0,1-1.82,4.61,7.92,7.92,0,0,1-5.64,2.21,8.36,8.36,0,0,1-1.46-.13l-1.18-.21a34.38,34.38,0,0,0-5.63-.73,7.8,7.8,0,0,0-1.11.07,12.81,12.81,0,0,0-2.24.6A10.29,10.29,0,0,1,30.17,58.79ZM31,16.12c.29,0,.62,0,1,0l.82.07a2.82,2.82,0,0,0-.09-.45c-.18,0-.39-.08-.6-.12a4.45,4.45,0,0,1-2.17-.86c.19.48.36.94.5,1.34Zm-2.5-4.42c.14.24.28.5.42.78a7.26,7.26,0,0,0-.18-.83Z"/><path class="cls-2" d="M47.14,46.69a41.52,41.52,0,0,0-1.46-17.83c-3-9.5-9.08-10-9.21-10a26.19,26.19,0,0,0,0-3.5c-.25-2.08-3.79-3-4-3s0-.83-.12-2.08-2.58-3.54-4.58-3.25-2.54,1.63-2.42,2a3.62,3.62,0,0,0,2.54,1.08c.79-.08,1.13-.42,1.54-.42s1,1.5,1.17,3,1.63,1.13,2.92,1.63,1,4,1,4a13.63,13.63,0,0,0-2.67-.37,6.72,6.72,0,0,0-2.58.17s-1.46-4.5-2.58-6-4.58-.58-5-.5-3.33-2.75-4.08-3a7.17,7.17,0,0,0-4,.83c-.87.63-.29,1.17.29,1.54a4.3,4.3,0,0,0,2.58.38c.29-.21.54-1,.75-1.17s2,2,3.21,2.83,4,0,4.71.17,2.38,5.54,2.38,5.54a17.48,17.48,0,0,0-5.29,2.63c-2.5,1.88-4,4.79-5.42,11s-.25,16.92-.25,16.92A4,4,0,0,0,14,54.85c1.13,2,3.92,1.5,7,.75s6.75,1.25,8.75,1.46,3.54-.92,5.83-1.25,5.38.33,8.46.88,7-1.12,6.92-5A5.44,5.44,0,0,0,47.14,46.69ZM44.06,55.1a25.52,25.52,0,0,0-8.42-.71c-3.75.17-4.42,1-6.54.79s-3.21-2-7.08-1.42-5.5,1.25-6,.63-1.37-2.25,0-3.29c.81-.63,2.87-.62,2.92-.92a50.16,50.16,0,0,1-.71-13.71c.75-7.37,2.08-11.62,5.75-14.29s8-2.42,11.67-1.83S43,24.85,44.43,30.6s.42,17.21.58,17.33,3.38.54,3.5,3.38S47.06,55.81,44.06,55.1Zm-25-3.17a2.88,2.88,0,0,0-2.12.75.77.77,0,0,0,.29.92c.21,0,.63-.29,1.38-.67s1.38.17,1.83.17.33-.17.42-.54S19.81,52,19.06,51.94Zm10.67,1.13c-.83,0-1.59-.9-1.87-1s-.58.63-.54.88,1.17.67,1.75,1a7.79,7.79,0,0,0,2.88.17c.25-.08.08-.67,0-1S30.56,53.06,29.72,53.06Zm15.08-.29a10.32,10.32,0,0,0-2.87-.08c-.12.08-.17.75.25.88s.58,0,1.33,0a17.68,17.68,0,0,1,2.33.42c.17,0,.33-.54.33-.75S46.06,53,44.81,52.77Zm-9.5-4.17c-.33,0-.71,0-.71.17s1.67,2.75,1.67,2.75a4,4,0,0,0,1-.17C37.51,51.23,35.62,48.56,35.31,48.6Zm2.13-.17a28.58,28.58,0,0,0,1.25,2.88c.17.17.71.08.88,0a9.7,9.7,0,0,0-1.29-2.79C38,48.4,37.35,48.11,37.43,48.44Zm2.25-.12A24.44,24.44,0,0,0,41,50.65c.13.13.67,0,.75-.17a12.38,12.38,0,0,0-1.21-2.33C40.43,48.06,39.55,47.91,39.68,48.31Zm4.42,1.46A11.82,11.82,0,0,0,42,47.19c-.25-.17-.62.25-.62.25a22.93,22.93,0,0,0,2.13,2.75S44,50,44.1,49.77Zm.25-2.21c.13,0,0-.42,0-.71a9.9,9.9,0,0,0-1.58-2c-.21-.21-.6.51-.46.54S44.22,47.56,44.35,47.56ZM23.47,24.15c-.33.13-.75.71-1.42,2.38s-1,2.67-.87,2.79.83.13,1,0a13.73,13.73,0,0,1,.46-2c.38-.83,1.58-2.83,1.63-3S23.81,24,23.47,24.15ZM39.75,36.35c-.45-4.87-3.48-6.58-6.92-6.54s-5.4.29-6.7,2c-1.13,1.46-2.2,3.67-1.87,5.5S26,43,31.44,43.48,40.2,41.23,39.75,36.35Zm-8.64,5.38a5.55,5.55,0,0,1-4.79-5.42c0-1.67,1.28-4.62,6.38-4.75A5,5,0,0,1,38,36.35C38.13,40.15,34.65,42.1,31.12,41.73Zm.11-6.83a2,2,0,0,0-.58,3.46c1.33,1.33,4.38.42,4.13-1.62A2.43,2.43,0,0,0,31.22,34.9Z"/></g></svg>