<svg id="Layer_1" data-name="Layer 1" xmlns="http://www.w3.org/2000/svg" width="64" height="64" viewBox="0 0 64 64"><defs><style>.cls-1{fill:#fff;}.cls-2{fill:#1d1d1b;}</style></defs><title>cassiopeia</title><g id="cassiopeia"><path class="cls-1" d="M24.91,52a4.9,4.9,0,0,1-4-2.33,6,6,0,0,1-.82-2.44l-9.78-7.74a5.07,5.07,0,0,1-1.56.25,4.88,4.88,0,0,1-3.08-1.12,4.41,4.41,0,0,1-1.77-3.25,5.22,5.22,0,0,1,1.64-3.9A4.94,4.94,0,0,1,9,30.22a4.41,4.41,0,0,1,4.28,2.42,5.26,5.26,0,0,1,.42,2.71l9.51,7.36a3.87,3.87,0,0,1,1-.2l.46,0h.05l5.69-10.92a4.8,4.8,0,0,1,1.11-4.2,4.12,4.12,0,0,1,3.17-1.45,4.56,4.56,0,0,1,3.84,2A3.92,3.92,0,0,1,39,30.05l6.17,4.87,6.7-16a5.18,5.18,0,0,1-.56-2.9,4.3,4.3,0,0,1,4.33-4,5.39,5.39,0,0,1,.85.07,4.14,4.14,0,0,1,3.07,2.18,4.93,4.93,0,0,1,.12,4.3A5,5,0,0,1,56.6,21.1L49.92,37a3.84,3.84,0,0,1,.51,3.61,4.21,4.21,0,0,1-4.13,2.93,4.26,4.26,0,0,1-2.66-.87,3.63,3.63,0,0,1-1.11-3.43L36.22,34.1a5.65,5.65,0,0,1-.7.2,4.92,4.92,0,0,1-1.07.11h-.14L29,45a5,5,0,0,1-.73,5.49A4.45,4.45,0,0,1,24.91,52Z"/><path class="cls-2" d="M56.24,13.74A2.63,2.63,0,0,0,53,16.18a3.68,3.68,0,0,0,.78,2.56L45.9,37.64l-8.72-6.88a2.41,2.41,0,0,0-.16-2,2.79,2.79,0,0,0-4.25-.31,3.06,3.06,0,0,0-.56,3.25L25.65,44.33a3.57,3.57,0,0,0-1.34-.12,2,2,0,0,0-1.25.53L11.74,36a2.85,2.85,0,0,0,0-2.69c-.72-1.72-3.91-1.72-5-.62s-1.91,3.09,0,4.63a3.25,3.25,0,0,0,3.81.22l11.22,8.88a4,4,0,0,0,.59,2.41,2.85,2.85,0,0,0,4.66.5c1.75-1.91.06-4.31.06-4.31l6.28-12.41a4.51,4.51,0,0,0,1.81.06,3.14,3.14,0,0,0,1.28-.56l8,6.5s-.72,1.94.28,2.75a2.7,2.7,0,0,0,4.09-1.25,2,2,0,0,0-.94-2.62l7.5-17.81a3.79,3.79,0,0,0,2.78-1.81A2.85,2.85,0,0,0,56.24,13.74Zm-48,23.09a1.86,1.86,0,0,1-.06-3.56,2,2,0,0,1,2.78,1.41A2,2,0,0,1,8.21,36.83Zm16,11.86a1.55,1.55,0,0,1-.05-3,1.65,1.65,0,0,1,2.33,1.18A1.71,1.71,0,0,1,24.23,48.69Zm9.94-17.21a1.3,1.3,0,0,1,0-2.49,1.38,1.38,0,0,1,1.94,1A1.43,1.43,0,0,1,34.17,31.48Zm12,9.12a1.1,1.1,0,0,1,0-2.11,1.17,1.17,0,0,1,1.65.83A1.21,1.21,0,0,1,46.15,40.6Zm9.06-22.67a1.44,1.44,0,0,1,0-2.77,1.53,1.53,0,0,1,2.16,1.09A1.59,1.59,0,0,1,55.21,17.93Z"/></g></svg>