<svg id="Layer_1" data-name="Layer 1" xmlns="http://www.w3.org/2000/svg" width="64" height="64" viewBox="0 0 64 64"><defs><style>.cls-1{fill:#fff;}.cls-2{fill:#1d1d1b;}</style></defs><title>death-star</title><g id="death-star"><path class="cls-1" d="M32.7,61.33c-4.35,0-10.63-.78-15.86-4.48C9.53,51.67,5.39,41.72,3.94,37.68l0-.12a11.75,11.75,0,0,1-.48-2C3,34.31,1.22,27.7,5.67,19.64c6.12-11.11,14.89-16.82,26-17H32c7.85,0,15.05,4.51,15.79,5.74a2.25,2.25,0,0,1,.31,1,6.75,6.75,0,0,1,2.68.37c.87.4,5.56,4,5.74,6.16a3.94,3.94,0,0,1-.11,1.48,3.72,3.72,0,0,1,.64.82c.14.24.31.52.49.8,1,1.56,2.11,3.33.9,4.73a2.78,2.78,0,0,1-.29.29,25.54,25.54,0,0,1,1.73,3.83c.08.29.16.53.23.73a2.7,2.7,0,0,1,.09,2.08,2.74,2.74,0,0,1,.13.46c0,.09.07.28.13.55.69,2.78.88,3.88.81,4.56a9.83,9.83,0,0,1-1.8,3.54,1.7,1.7,0,0,1-1.39.72H58c-.05,0-3.56-.19-7.24-.31.06.54.1,1.27.11,2.3,1.35,0,2.47.17,2.89,1.3,0,0,1.23,4.38-.92,5.45-.33.16-.47.23-2.39.29.13,1,.19,3.65-.62,4.67-.51.63-.78,1-10.75,1.61.27,4-.1,4.3-.73,4.77C37.36,61.31,33.18,61.33,32.7,61.33Z"/><path class="cls-2" d="M46.18,15.1c.5,0-.06-.69-.25-1.06s-9.5.13-9.5.13a4.06,4.06,0,0,0-.12,1.31C36.43,15.67,45.68,15.1,46.18,15.1Zm-9.62,5.69c.31.06.19-1,.13-1.25s-1.62-.06-1.94-.06l-.62,1.13S36.24,20.73,36.55,20.79Zm-3.62,5.75s-.19,1,0,1.13,19.19-.19,19.5-.25,0-.5-.37-.81S33.18,26.6,32.93,26.54Zm-3.19,3.88s-.44,1-.12,1.13a73.79,73.79,0,0,0,8.19-.37c.5-.19-.06-.5-.25-.81S30,30.42,29.74,30.42Zm-5-19.87c.44,0,.56-.31,1.31-.81S29,9,29.24,8.92s.13-.62-.12-.94-1.06-.12-2.94.44a5.06,5.06,0,0,0-2.5,1.38S24.3,10.54,24.74,10.54Zm9.38,4.06c.38-.25,0-6.56-.12-6.87s-1.76-.18-1.94-.12-.37,6.37-.44,6.87S33.74,14.85,34.11,14.6Zm-6.56-2c.5-.12.19-.69.19-.94s-4.44-.06-4.69-.12c0,0-.37,1-.19,1.13A29.77,29.77,0,0,0,27.55,12.6ZM31.43,20c-1.25-4.62-5.17-6.38-9.44-5.5C11.05,16.73,14.3,30,22.55,29.85S32.68,24.6,31.43,20ZM19,26.6c-1.62-2-3.94-8.44,3.19-10.25C25,15.62,30,16,29.74,22.85S20.61,28.6,19,26.6Zm3.81-8.19c-4.06,1-4.37,5.25-1.5,6.94s6.31-.12,6.38-2.69S26.31,17.55,22.8,18.42Zm-.75,6a2.61,2.61,0,0,1,1-4.81,2.69,2.69,0,1,1-1,4.81Zm1.38-3.31a1.18,1.18,0,0,0-.62,2.06,1.38,1.38,0,0,0,1.88-.62C24.93,21.79,24.6,20.94,23.43,21.1ZM10.24,23A13.48,13.48,0,0,0,8.49,31.1c.06.38,1.69.13,1.87-.06s0-.81.25-3.06A11.16,11.16,0,0,1,11.93,24C12,23.79,10.55,22.57,10.24,23Zm48.42,8.42c-.08-.42-6.08-1.08-6.08-1.08s5.08-.17,5.75-.25.25-.58-.08-1.83a43.74,43.74,0,0,0-2.5-5.17,1.83,1.83,0,0,0,1.42-.5c.5-.58-.92-2.42-1.58-3.58s-2.67-1.5-2.67-1.5a6.16,6.16,0,0,0,1.5-.25c.25-.17.5-.25.42-1.25S51,11.71,50.07,11.29s-4.75-.08-5-.17.58-.42.83-.58.67-.83.42-1.25-6.83-5-14.58-4.92C19,4.54,11.66,12.29,7.16,20.46S5.07,35.12,5.07,35.12A11.32,11.32,0,0,0,5.49,37c.25.67,4.33,12.83,12.33,18.5s19.17,4,19.5,3.75-.08-5-.08-5,10.92-.67,11.25-1.08a8,8,0,0,0,.25-3.5c-.17-.67-12.17.25-12.42.25s.08-1.17.17-1.58,15.08-.33,15.58-.58.33-2.67.08-3.33-15.67.58-16.08.5-.08-.75-.08-.75L49.16,43a16.14,16.14,0,0,0-.25-3.33c-.25-.25-9.08-.08-9.5-.08s-.75-.75-.75-1,2.33-.25,7-.25,12.42.42,12.42.42A11.18,11.18,0,0,0,59.57,36,31.8,31.8,0,0,0,58.66,31.46ZM9.86,19.85C13.43,14.6,19.05,6.85,32,5.73c5.24-.46,9.38,2.44,10.25,2.81s1.88.81,1.56,1.13-6,1.31-6.06,1.62-.19,1.63,0,1.69,10.5-.69,11.44-.25,4,2.94,3.63,3.13-13.75.19-13.94.5-.56,2.31,0,2.56,14.19.06,14.63.38,1.31,2.31,1.06,2.5-15.87-.06-16.25.38-.06,2.38.31,2.44,16.06.13,16.38.5,1.63,3.25,1.25,3.38-15.44.63-15.56,1A3,3,0,0,0,41,31.35c.25.13,14.56.69,14.88,1.19s1.19.63.13.69-17.31.69-32.94.38S6.8,33.29,6.8,33.29,6.3,25.1,9.86,19.85Zm47,16.81c-.44.13-19.94.25-20.06.69s-.06,3.19.25,3.31,10.13.44,10.13.44.19.63-.06.75-13.5,1-13.5,1.38-.06,2.56.31,2.88,15.75-.75,15.88-.44.31.75.06.75-15.62.88-15.75,1.19-.06,3.25.31,3.44S46.74,50.67,46.8,51s.31.81,0,.88S34.61,53,34.61,53.23s.69,4,.44,4.13S24.36,58.6,18.36,53.17,9.05,41.54,8.61,39.73s-1.38-4.31-.75-4.44,14.31.25,24.56.19,25.06-.56,25.06-.37S57.3,36.54,56.86,36.67ZM19.8,39.1s1.25,2.25,1.94,2.56,7.13.19,7.38.13.19-1.62.06-2.12-6.5.06-7.12-.19-.56-1.69-.94-2.12-9.12.69-9.56.88.19,1.38.69,2.94,3.63,5.38,3.81,5.56h1.63l-1.19-1.81c-1.19-1.81-2.56-5.12-2.75-5.25s.88-.25,1.88-.37S19.8,39.1,19.8,39.1Zm-.56,4A21.09,21.09,0,0,0,21,46.85c.5.44.63-.06.88-.31s-1.25-3.19-1.5-3.5S19.43,43,19.24,43.1ZM28,47.92c-.19-.31-6.62.19-6.62.19s0,.75.19.88a58.48,58.48,0,0,0,6.5-.19C28.55,48.67,28.18,48.23,28,47.92Zm-7,3.88C20.24,51.1,19.65,50,19.43,50s-1.06.13-.94.38a26.69,26.69,0,0,0,2.94,3c.25.06.69-.44.69-.44A9.78,9.78,0,0,0,21,51.79Zm9.44.81c-.25-.19-4.31.06-5,0,0,0-.19.81.13.94a46,46,0,0,0,5.06-.06C31.05,53.42,30.68,52.79,30.43,52.6ZM30.61,45s.13,4.31.19,5.19.31.19.69.13.06-5,.06-5.25S31,45,30.61,45Zm1.13-4.87a2.55,2.55,0,0,0-.06,1.06c.13.31,2.44,0,2.69,0s0-.81-.12-1.06A4.84,4.84,0,0,0,31.74,40.17Zm-4-3.31c-.25,0-.19.88.25,1a57.47,57.47,0,0,0,6.56,0c.38-.12.13-.56.13-.81S28.11,36.85,27.74,36.85Z"/></g></svg>