<svg id="Layer_1" data-name="Layer 1" xmlns="http://www.w3.org/2000/svg" width="64" height="64" viewBox="0 0 64 64"><defs><style>.cls-1{fill:#fff;}.cls-2{fill:#1d1d1b;}</style></defs><title>stars</title><g id="stars"><path class="cls-1" d="M11.81,57.65A3.25,3.25,0,0,1,9.08,56a4.06,4.06,0,0,1-.12-4,3.31,3.31,0,0,1,3-1.9,4,4,0,0,1,2.81,1.21,3,3,0,0,1,.58,3.19,4.41,4.41,0,0,1-3.11,3,2.92,2.92,0,0,1-.44,0Zm27.79-.19a1.84,1.84,0,0,1-1.4-.64,2.27,2.27,0,0,1-.48-1.73,1.9,1.9,0,0,1-1.64-1.83c0-1,.73-1.62,2.26-2.41A5.56,5.56,0,0,1,40.08,48a1.88,1.88,0,0,1,.87-.23c1.39,0,1.87,1.25,2.25,2.59,1.11.11,2.14.35,2.47,1.49s-.51,1.93-1.37,2.52a2,2,0,0,1-.72,2.49,1.91,1.91,0,0,1-.93.25h0a3,3,0,0,1-1.35-.4A2.54,2.54,0,0,1,39.6,57.46Zm-17.31-.8A2.12,2.12,0,0,1,20.69,56c-1.13-1.26-.45-3.31.73-6.28L21,49.3c-2.35-2.16-3.9-3.59-3.24-5.22.55-1.38,2.2-1.66,4.67-1.66H23c.87-1.67,2.67-4.66,4.55-4.79h.15c.64,0,2.26,0,3.7,4.65,3.74.41,4.32,1.26,4.57,2.11.39,1.32-.61,2.51-2.57,4.68l-.18.2c1,2.16,2.1,4.39.7,5.71a2.32,2.32,0,0,1-1.65.59h0a15.65,15.65,0,0,1-4.54-1.22l-.49-.18-.34.24C25,55.73,23.53,56.66,22.29,56.66ZM9.87,46.92a2.06,2.06,0,0,1-.46-.06,4.35,4.35,0,0,1-1.15-.5,1.7,1.7,0,0,1-.77-1.76l.17-.88a2.08,2.08,0,0,1-1.28-1.85c0-1.31,1.11-1.81,2.11-2,.39-1.08,1.11-2.34,2.34-2.34s1.74.83,2.36,2.56c1,.17,1.76.48,2.09,1.3a2,2,0,0,1-.94,2.42,2.14,2.14,0,0,1-.73,2.31,1.9,1.9,0,0,1-1.11.35,2.83,2.83,0,0,1-1.05-.23,2.28,2.28,0,0,1-1.57.71ZM42.14,44.7a2.09,2.09,0,0,1-1-.23c-.7-.37-1.86-1-1.33-7.62-.58-.41-1.08-.78-1.51-1.12a3.39,3.39,0,0,1,.31.35,3.93,3.93,0,0,1,.62,3.39,3.38,3.38,0,0,1-3.53,2.22h0a4,4,0,0,1-3.13-1.26,3.17,3.17,0,0,1-.37-3.28,4,4,0,0,1,3.49-2.36H36a3.32,3.32,0,0,1,1.88.56c-2-1.71-2-2.5-2-3s0-1.39,2-2.35a3.32,3.32,0,0,1-2.29-1.74,4.35,4.35,0,0,1-.28-4.12A3.12,3.12,0,0,1,38,22.65a4,4,0,0,1,3.61,2.43,3.33,3.33,0,0,1-.1,3.08,3.45,3.45,0,0,1-.52.69l.81-.23c2.5-4.08,3.68-4.93,4.85-5h.16c.58,0,2,0,4.27,4.22,6.05.63,6.32,1.75,6.52,2.59.27,1.14-.42,2.46-2.5,5.58l-.18.28c.39,1.79,1.15,5.88.22,6.95a1.89,1.89,0,0,1-1.36.61h0c-.76,0-1.71-.42-5.35-2.39l-.53-.29-.06,0C45,43.57,43.44,44.7,42.14,44.7Zm-11.7-9c-1.51,0-3.29-1.37-5.65-3.31L24.24,32l-.89.46c-2.25,1.19-4.08,2.09-5.55,2.09a2.54,2.54,0,0,1-2-.84c-.5-.57-1.78-2,2-9.55a32.08,32.08,0,0,1-2.75-3.7,1.78,1.78,0,0,1-.66.62,1.93,1.93,0,0,1-.9.24h0a3.47,3.47,0,0,1-2.13-1.05,3.63,3.63,0,0,1-1.37.32,2,2,0,0,1-1.67-.84,2,2,0,0,1-.18-2,2.16,2.16,0,0,1-1.07-2c.14-1.25,1.32-1.71,2.37-1.91.43-1.14,1.06-2.1,2.23-2.1h.2c1.35.15,1.71,1.46,2,2.55.93.17,2.16.51,2.27,1.77a8,8,0,0,1,1.75-.15c.9,0,1.9.08,2.65.16,3.06-5.83,4.13-6.88,5.54-6.88,1.85,0,2.72,2.08,4.15,6.49l.1.32.19,0c4.77.67,6.09,1.07,6.75,2,1,1.42.16,2.9-4.59,8.29l0,.05c.62,5.57.45,7.8-.65,8.82a2.22,2.22,0,0,1-1.54.58ZM43.36,20.84A1.77,1.77,0,0,1,42,20.15a2.4,2.4,0,0,1-.41-1.39,2.11,2.11,0,0,1-1.88-1.34c-.47-1.41.64-2.2,2.3-3.14v-.1c.34-2.25.56-3.73,2.11-3.91h.2c1.31,0,1.87,1.15,2.54,2.63.84.07,2.36.32,2.36,1.91a2.42,2.42,0,0,1-.83,1.69c.41,1,.64,2.32-.47,3.06a1.87,1.87,0,0,1-1,.31,3.55,3.55,0,0,1-1.26-.3c-1,.91-1.49,1.29-2.23,1.29ZM53,13.55a3.72,3.72,0,0,1-2.59-.89,3.17,3.17,0,0,1-.78-3.2,4,4,0,0,1,3.16-2.78,3.71,3.71,0,0,1,.72-.07A3.26,3.26,0,0,1,56,7.73a4,4,0,0,1,.9,3.13C56.68,12.44,55.08,13.55,53,13.55ZM18.37,13.3a3.72,3.72,0,0,1-2.59-.89A3.17,3.17,0,0,1,15,9.2a4,4,0,0,1,3.16-2.78,3.71,3.71,0,0,1,.72-.07,3.26,3.26,0,0,1,2.49,1.13,4,4,0,0,1,.9,3.13C22.05,12.19,20.45,13.3,18.37,13.3Z"/><path class="cls-2" d="M24.58,18.8c-.29-.17-1.68,1.66-1.71,1.79s.5.5.67.5a8.86,8.86,0,0,0,1.33-1.58C25,19.26,24.87,19,24.58,18.8Zm2,7.92c.13,0,.21-.17.29-.37a23.92,23.92,0,0,0-2.12-3c-.12.25-.67.29-.62.54A20.71,20.71,0,0,0,26.62,26.71Zm1-2.17a9.47,9.47,0,0,0-1.79-2.29c-.25,0-.73.22-.67.33.17.29,2.21,2.5,2.21,2.5A1.3,1.3,0,0,0,27.66,24.55Zm.63-1.5c.21,0,.29-.21.38-.5s-.87-1.54-1.08-1.62-.87.27-.79.38S28.08,23.09,28.29,23ZM26.75,46.8c-.12.08-.54.29-.54.42a16.71,16.71,0,0,0,1.54,2c.13.08.29-.21.33-.46A5.34,5.34,0,0,0,26.75,46.8Zm1-1c-.12.08-.54.29-.54.42a16.72,16.72,0,0,0,1.54,2c.13.08.29-.21.33-.46A5.34,5.34,0,0,0,27.79,45.76ZM11,44.17c.13-.12,1.38.75,1.67.54s-.21-1.46-.21-1.58,1.38-.92,1.29-1.12-1.79-.37-1.79-.37-.75-2.42-1.08-2.42-1,2-1,2.17c0,0-1.71.17-1.71.5s1.46.75,1.46.92-.37,2.13-.37,2.13a2.72,2.72,0,0,0,.67.29C10.16,45.3,10.83,44.3,11,44.17Zm9.63-33.79c.17-1.25-.65-2.58-2.08-2.29-1.87.38-2.37,2.29-1.54,3.08S20.41,11.63,20.58,10.38ZM18.54,9c.71-.14,1.11.51,1,1.13s-1.38.78-1.79.39S17.61,9.15,18.54,9ZM43.33,19.13c.13.17,1.58-1.29,1.79-1.46s1.58.63,1.83.46-.5-1.75-.58-1.92,1.13-1.13,1.13-1.42-1.62-.17-1.79-.33-1-2.54-1.42-2.5-.68,3.36-.79,3.42c-.37.21-2.29,1.25-2.21,1.5s1.71.29,1.83.38S43.2,19,43.33,19.13Zm-5,9.22A1.86,1.86,0,0,0,40,25.8c-.8-1.74-2.78-1.78-3.36-.78S37,28.48,38.3,28.35Zm-.76-2.7c.28-.49,1.26-.47,1.66.39a.92.92,0,0,1-.86,1.26C37.72,27.37,37.25,26.15,37.54,25.65Zm17.66-15c.17-1.25-.65-2.58-2.08-2.29-1.87.38-2.37,2.29-1.54,3.08S55,11.88,55.2,10.63Zm-2-1.41c.71-.14,1.11.51,1,1.13s-1.38.78-1.79.39S52.24,9.4,53.16,9.22ZM40.91,49.46A8.74,8.74,0,0,0,39.75,52s-2,1-2,1.21,1.79.38,1.83.63-.37,1.54-.12,1.83,1.21-.87,1.42-1,1.58.79,1.79.67-.37-1.54-.37-1.71S44.12,52.59,44,52.3s-2-.29-2.12-.37S41.29,49.26,40.91,49.46Zm15-18.67c-.21-.87-6-1.37-6-1.37s-2-4.21-3.21-4.12S43,29.92,42.87,30.09c0,0-5.33,1.38-5.33,2.29S41.62,36,41.62,36,41,42.46,42,43s5.5-3.83,5.71-3.83,5.88,3.29,6.17,3-.71-6-.75-6.12S56.12,31.67,55.91,30.8Zm-4.62,8a33.86,33.86,0,0,1-3-1.92,2,2,0,0,0,.08-.62,13.94,13.94,0,0,0-2-2.17c-.17,0-.67.33-.5.46a11.74,11.74,0,0,1,1.5,2.25c-.08.13-3.71,3.5-3.92,3.21s.58-4.67.42-5-3-2.08-3.29-2.33,3.42-.83,3.58-1.08,2.25-3.54,2.5-3.5,1.71,3.13,1.92,3.17,5,.42,5,.67-2.5,3.83-2.5,4.08A16.82,16.82,0,0,1,51.29,38.76ZM35.84,36.51c-1.91.13-2.65,2-1.92,2.86s3.37.89,3.7-.33A1.86,1.86,0,0,0,35.84,36.51Zm.81,2.13c-.16.6-1.47.6-1.83.16s0-1.35.95-1.41A.92.92,0,0,1,36.65,38.64Zm-5.82-4.72c1-1,0-8,0-8.13s5.54-6,5-6.83-6.58-1.37-6.79-1.5-1.87-6.63-3-6.63-4.42,6.79-4.58,7c0,0-5-.71-5.54.13s3.92,6,3.92,6S16,31.3,17.08,32.59s6.83-2.67,7.42-2.5S29.79,34.88,30.83,33.92ZM19.2,30.42c-.12-.29,3-6.71,2.83-7S19,19.26,19,19s2.54.38,3.29.17,1.38-1.42,1.67-2S25.5,14,25.79,14s1.54,4.75,2,5.08,5.62,1,5.67,1.17S29.2,24.8,29.16,25s.25,6.42.08,6.33-3.37-3-4.54-3.08S19.33,30.71,19.2,30.42ZM12.58,15.71c-.25-.12-.5-2.29-.87-2.33s-1,2-1,2-1.92.17-2,.54,1.71,1.21,1.71,1.33-1,1.13-.75,1.54,1.71-.46,1.88-.46,1.67,1.46,2,1.29-.46-2-.5-2.12,1.38-1,1.38-1.25S12.83,15.84,12.58,15.71ZM34.37,44.88c-.21-.71-4.25-1-4.25-1s-1.21-4.62-2.42-4.54-3.46,4.42-3.62,4.83c0,0-4.42-.29-4.75.54s4,4.25,4,4.58S21.25,54,22,54.84s4.71-2.46,5.08-2.5,5,2.08,5.75,1.42S31.25,49.3,31.29,49,34.58,45.59,34.37,44.88Zm-5,4a15.84,15.84,0,0,1,.83,2.5c-.17,0-3-1.25-3.29-1.08a6.6,6.6,0,0,1-2,.67c-.12-.12.54-2.62.5-2.83S23,46,23,45.84s2,.13,2.17-.08,2-3.58,2.21-3.54,1.21,3.21,1.33,3.25,2.79.25,2.83.54S29.29,48.55,29.37,48.88Zm-18.88,4c-.85,1.71.37,3.28,1.5,3.1s2.47-2.46,1.58-3.35A1.86,1.86,0,0,0,10.49,52.83Zm1.46,2c-.56.09-1.16-.69-.74-1.53a.92.92,0,0,1,1.52-.12C13.17,53.65,12.51,54.78,12,54.87ZM48.25,33.13c-.17-.08-.71.33-.71.33.17.08,1.83,3.17,1.83,3.17s.54-.17.63-.42A14,14,0,0,0,48.25,33.13Zm1.38-.29c.08.25.54,1.71.63,1.83s.42-.25.58-.37-.37-1.21-.54-1.42S49.54,32.6,49.62,32.84Z"/></g></svg>