<svg id="Layer_1" data-name="Layer 1" xmlns="http://www.w3.org/2000/svg" width="64" height="64" viewBox="0 0 64 64"><defs><style>.cls-1{fill:#fff;}.cls-2{fill:#1d1d1b;}</style></defs><title>star</title><g id="star"><path class="cls-1" d="M47.17,55.29a7.55,7.55,0,0,1-3.38-1.08c-.69-.38-2.31-1.41-4.2-2.59-2.1-1.32-4.47-2.82-5.69-3.51a8.52,8.52,0,0,0-2.15-.95c-1.65.84-8.68,4.58-11.09,5.92a10.89,10.89,0,0,1-5,1.66,3.6,3.6,0,0,1-1.25-.2c-1.93-.71-1.5-3.13-1.18-4.89.13-.75,1.12-4.35,2.49-9.35.37-1.37.76-2.76,1-3.63a49.12,49.12,0,0,0-6-4.61c-1.56-.93-2.51-1.45-3.07-1.76a5.33,5.33,0,0,1-1-.6,3.37,3.37,0,0,1-1-2.72A2.07,2.07,0,0,1,7,25.36a83.67,83.67,0,0,1,9.55-3.44c2.13-.53,3.88-.82,4.9-1,.71-1.58,2.24-4.91,3.24-6.87l.1-.2c1.4-2.74,2.51-4.91,4.82-5.16h.26c1.36,0,3.16.93,7.11,7.69.88,1.51,1.68,2.86,2.15,3.65,2.45.22,9.46.85,12.27,1,3.78.17,5.86.26,6.66,2.25.64,1.6-.09,2.63-8.72,9.14l-1.49,1.13A22.17,22.17,0,0,0,46,35.2c.54,2,1.8,6.6,2.69,10.18l.26,1c1.11,4.45,1.53,6.12.69,7.56A2.77,2.77,0,0,1,47.17,55.29Z"/><path class="cls-2" d="M46.81,32.23c1.66-1.31,10.06-7.38,9.69-8.31s-1.66-1-5.16-1.19-13.22-1.06-13.22-1.06-1.19-2-2.59-4.41-4.28-7-5.72-6.84-2.28,1.88-3.59,4.44-3.59,7.66-3.59,7.66A46.25,46.25,0,0,0,17,23.57a82,82,0,0,0-9.28,3.34c-.5.22-.06,1.31.16,1.5S9,29,11.65,30.6a44.68,44.68,0,0,1,7,5.56c0,.19-3.47,12.56-3.69,13.78s-.5,2.78.09,3,2.06.19,4.81-1.34,11.41-6.12,11.56-6.16,1-.12,3.34,1.19,8.47,5.31,9.88,6.09,3,1.28,3.56.38,0-2.66-1.12-7.31-2.94-11.06-2.94-11.06A21.94,21.94,0,0,1,46.81,32.23ZM43.49,40.6A26.75,26.75,0,0,0,40,39c-.12.13-.66.84-.41,1.09s4.13,2,4.13,2.19.31,1.69.31,1.69-5.25-3-5.47-3-.87.56-.72.78,6.31,3.56,6.47,3.78a5.17,5.17,0,0,1,.56,1.53c-.09,0-7.72-4.5-8-4.44s-.75.94-.66,1,8.91,5.19,9.06,5.44.88,2,.69,2-7.59-4.34-10.41-5.91-3.47-1.78-4-1.75a125.62,125.62,0,0,0-11.47,5.75c-2.16,1.31-3,1.56-3.06,1.41s2.44-10.06,3-12.5.78-2.87.16-3.66a28.35,28.35,0,0,0-5.47-4.22c-2.59-1.62-3.94-2.59-3.84-2.75.21-.35,6.44-2.38,9.22-3s3.28-.56,3.44-.69,2.81-5.59,4.19-8.13,1.88-3.16,2.09-3.16A79.52,79.52,0,0,1,35,20.2C36.27,22.45,36.52,23,36.71,23s9.34.81,12.5,1,4.63.41,4.5.63-5.47,4.13-8,6.31S42,33.92,42.06,34.29,43.59,40.67,43.49,40.6ZM29.37,16.32c-.12,0-2.64,4.36-2.31,4.69a3.25,3.25,0,0,0,1.19.44,34,34,0,0,0,2-4.72C30.18,16.48,29.49,16.32,29.37,16.32Z"/></g></svg>