<svg id="Layer_1" data-name="Layer 1" xmlns="http://www.w3.org/2000/svg" width="64" height="64" viewBox="0 0 64 64"><defs><style>.cls-1{fill:#1d1d1b;}.cls-2{fill:#c8db89;}.cls-3{fill:#fab900;}.cls-4{fill:#8ec480;}.cls-5{fill:#e6e4da;}</style></defs><title>alien-4</title><g id="alien-4"><path class="cls-1" d="M30.59,35.25s-6.33.33-9.71-3-3.46-5.79-3.46-5.79-2.67.08-3.75-.83-1.29-3.25.33-4.79,2.42-1.42,2.42-1.42a18.89,18.89,0,0,1,.88-3.71,8.94,8.94,0,0,1,1.08-2.08l-4.54-2.5a2.3,2.3,0,0,1-2.75.46,2.9,2.9,0,0,1-.75-4.71,3.93,3.93,0,0,1,4.54-.33c1,.71.5,2.13.5,2.13L20.51,11a14.41,14.41,0,0,1,9.33-4A18.54,18.54,0,0,1,41,10a14.55,14.55,0,0,1,2.08,2.46l5.54-3.71a2.55,2.55,0,0,1,2-3,3,3,0,1,1,.75,5.75,3.55,3.55,0,0,1-1-.42l-5.33,4.38a9.35,9.35,0,0,1,.75,1.88c.08.58.13,1.21.13,1.21s3.71-.21,3.58,3.29-4.12,4-4.12,4a9.43,9.43,0,0,1-4.46,6.29,19.38,19.38,0,0,1-7.71,2.83l.33,3.63a4.35,4.35,0,0,1,2.58,2c.83,1.54,1.88,3.33,2.29,3.33s2-1.37,2.58-1.83a3.18,3.18,0,0,0,.88-.92s-1.83-2.71.67-3.87S46.51,38,45.8,40s-3.33,1.75-3.33,1.75S39.18,45,38.59,45a2.33,2.33,0,0,1-1.71-.71,36.36,36.36,0,0,0-2.42-4.12c-.46-.37-.79-.25-.83-.12s1.88,9.21,1.63,11.17a5.69,5.69,0,0,1-1.75,3.25l.08,1s2.38-.33,2.83.92-1.21,2.21-2.37,2-1.37-.58-1.37-.75-.17-2.83-.17-2.83l-1-.17s.46,3.21,0,3.5-2.46.67-3,.08a1.48,1.48,0,0,1,.75-2.42c1.29-.29,1.54-.12,1.54-.12V54.41A4.45,4.45,0,0,1,28.8,50.5c0-2.79,1.67-11.21,1.67-11.21s-.5-.54-1.58.79a14.88,14.88,0,0,0-2.17,5.58c-.17,1.21-.21,1.63-.21,1.63a2.44,2.44,0,0,1,1.33,2.38,2.21,2.21,0,0,1-3.33,1.63c-1.25-.79-1.08-2.71-.54-3.5a2.9,2.9,0,0,1,1.5-1s.92-5.08,2-6.54a4.94,4.94,0,0,1,2.5-2l.63-.17Z"/><path class="cls-2" d="M11.88,7.16a1.7,1.7,0,0,1,2.38,1.29,1.88,1.88,0,1,1-2.37-1.29Z"/><path class="cls-2" d="M51,6.58a1.7,1.7,0,0,1,2.38,1.29A1.88,1.88,0,1,1,51,6.58Z"/><path class="cls-2" d="M16.22,21c.22-.07.13,1.42.33,2.46s.38,1.67.17,1.67-1.71.17-2-1.21A2.44,2.44,0,0,1,16.22,21Z"/><path class="cls-2" d="M46.13,20a1.55,1.55,0,0,1,1.92,1.38c.29,1.63-2.25,2.92-2.37,2.75s.38-1.42.42-2.21A8.59,8.59,0,0,1,46.13,20Z"/><path class="cls-3" d="M15.43,9.83c.21,0,4.12,1.75,4,2.08s-.5.88-.62.79S15.18,11,15.09,10.79,15.43,9.83,15.43,9.83Z"/><path class="cls-3" d="M44,13c.17-.08,4.42-3.46,4.67-3.21s.71.62.5.83-4.46,3.83-4.58,3.63S44,13,44,13Z"/><path class="cls-4" d="M27,8.83c3-1.08,8.5-.67,12.88,2.25s4,11.5,3.92,12.46a9.07,9.07,0,0,1-.62,2.08,15,15,0,0,0-1.62-2.21c-.21,0-.75.38-.54.58a13.74,13.74,0,0,1,1.83,2.75c-.08.25-.79,1.42-.79,1.42a21.71,21.71,0,0,0-1.83-2.67c-.17,0-.71.42-.62.54a20,20,0,0,1,1.88,3.13c-.12.21-1,1.08-1.08.92A20.34,20.34,0,0,0,39,27.75c-.12,0-.58.21-.5.42s1.54,2.46,1.38,2.67a7.5,7.5,0,0,1-1,.75s-.83-2-1-2-.92.38-.83.5,1.08,1.79.92,2a3,3,0,0,1-.58.38L36.22,31l-.58.38s.92,1.42.75,1.46l-.83.25s-.5-1.13-.67-1.17-.83,0-.71.13a9.22,9.22,0,0,1,.54,1.21,19.21,19.21,0,0,1-7.79,0,10.77,10.77,0,0,1-8.33-8.79,15.86,15.86,0,0,1,1.83-11.33C21.88,10.75,24.47,9.75,27,8.83Z"/><path class="cls-1" d="M22.59,12.12c.24-.17.63.17.5.38a6.21,6.21,0,0,0-1.87,2.83c-.5,1.79-.29,2.21-.5,2.25s-.75,0-.79-.08a11,11,0,0,1,.75-2.88A7.62,7.62,0,0,1,22.59,12.12Z"/><path class="cls-1" d="M30.68,10.33a6.64,6.64,0,0,1,8,7.46C38,24,29.05,26.41,26.05,22.25S23.47,12.21,30.68,10.33Z"/><path class="cls-5" d="M30.89,12.11a4.94,4.94,0,0,1,5.95,5.54c-.5,4.65-7.15,6.41-9.38,3.31S25.53,13.5,30.89,12.11Z"/><path class="cls-1" d="M31.21,14.72a2.43,2.43,0,0,1,2.93,2.73c-.24,2.29-3.53,3.16-4.63,1.63S28.56,15.41,31.21,14.72Z"/><path class="cls-1" d="M25.72,26.5A5.79,5.79,0,0,0,30.88,29a7.62,7.62,0,0,0,5.25-2.17c.33,0,1,.92.92,1.33s-2.21,2.75-6.29,2.5-6-2.87-6-3.08S25.38,26.5,25.72,26.5Z"/><path class="cls-4" d="M32,37c.17,0,2,14,1.58,14.83s-2.58,1.42-3,0S31.55,37,32,37Z"/><path class="cls-2" d="M25.47,48.12c.7-.15,1.38.63,1.38,1.38a1.26,1.26,0,0,1-1.71,1C24.51,50.12,24.26,48.37,25.47,48.12Z"/><path class="cls-2" d="M43.55,38A1.46,1.46,0,0,1,45,39.29c0,.75-1.5,1.5-2,1.25S42.3,38.25,43.55,38Z"/></g></svg>