<svg id="Layer_1" data-name="Layer 1" xmlns="http://www.w3.org/2000/svg" width="64" height="64" viewBox="0 0 64 64"><defs><style>.cls-1{fill:#1d1d1b;}.cls-2{fill:#cbe7f5;}.cls-3{fill:#ffe19b;}</style></defs><title>cassiopeia</title><g id="cassiopeia"><path class="cls-1" d="M10.53,37.52a3.25,3.25,0,0,1-3.81-.22c-1.91-1.53-1.09-3.53,0-4.62s4.28-1.09,5,.63a2.85,2.85,0,0,1,0,2.69l11.31,8.75a2,2,0,0,1,1.25-.53,3.57,3.57,0,0,1,1.34.13l6.56-12.59a3.06,3.06,0,0,1,.56-3.25A2.79,2.79,0,0,1,37,28.8a2.41,2.41,0,0,1,.16,2l8.72,6.88,7.91-18.91A3.68,3.68,0,0,1,53,16.18a2.63,2.63,0,0,1,3.22-2.44,2.85,2.85,0,0,1,1.91,4.09,3.79,3.79,0,0,1-2.78,1.81l-7.5,17.81a2,2,0,0,1,.94,2.63,2.7,2.7,0,0,1-4.09,1.25c-1-.81-.28-2.75-.28-2.75l-8-6.5a3.14,3.14,0,0,1-1.28.56,4.51,4.51,0,0,1-1.81-.06L27.06,45s1.69,2.41-.06,4.31a2.85,2.85,0,0,1-4.66-.5,4,4,0,0,1-.59-2.41Z"/><path class="cls-2" d="M8.15,33.27a2,2,0,0,1,2.78,1.41,2,2,0,0,1-2.72,2.16A1.86,1.86,0,0,1,8.15,33.27Z"/><path class="cls-3" d="M24.18,45.71a1.65,1.65,0,0,1,2.33,1.18,1.71,1.71,0,0,1-2.27,1.8A1.55,1.55,0,0,1,24.18,45.71Z"/><path class="cls-3" d="M34.13,29a1.38,1.38,0,0,1,1.94,1,1.43,1.43,0,0,1-1.9,1.51A1.3,1.3,0,0,1,34.13,29Z"/><path class="cls-3" d="M55.16,15.16a1.53,1.53,0,0,1,2.16,1.09,1.59,1.59,0,0,1-2.11,1.68A1.44,1.44,0,0,1,55.16,15.16Z"/><path class="cls-2" d="M46.11,38.49a1.17,1.17,0,0,1,1.65.83,1.21,1.21,0,0,1-1.61,1.28A1.1,1.1,0,0,1,46.11,38.49Z"/></g></svg>