<svg id="Layer_1" data-name="Layer 1" xmlns="http://www.w3.org/2000/svg" width="64" height="64" viewBox="0 0 64 64"><defs><style>.cls-1{fill:#1d1d1b;}.cls-2{fill:#1f4863;}.cls-3{fill:#85bfe9;}</style></defs><title>death-star</title><g id="death-star"><path class="cls-1" d="M31.74,4.37c7.75-.1,14.33,4.5,14.58,4.92s-.17,1.08-.42,1.25-1.08.5-.83.58,4.08-.25,5,.17S54.74,15,54.82,16s-.17,1.08-.42,1.25a6.16,6.16,0,0,1-1.5.25s2,.33,2.67,1.5,2.08,3,1.58,3.58a1.83,1.83,0,0,1-1.42.5,43.74,43.74,0,0,1,2.5,5.17c.33,1.25.75,1.75.08,1.83s-5.75.25-5.75.25,6,.67,6.08,1.08A31.8,31.8,0,0,1,59.57,36a11.17,11.17,0,0,1-1.5,2.75s-7.75-.42-12.42-.42-7,0-7,.25.33,1,.75,1,9.25-.17,9.5.08A16.14,16.14,0,0,1,49.16,43L36,44.12s-.33.67.08.75,15.83-1.17,16.08-.5.42,3.08-.08,3.33-15.5.17-15.58.58-.42,1.58-.17,1.58,12.25-.92,12.42-.25a8,8,0,0,1-.25,3.5c-.33.42-11.25,1.08-11.25,1.08s.42,4.75.08,5-11.5,1.92-19.5-3.75S5.74,37.62,5.49,37a11.32,11.32,0,0,1-.42-1.83s-2.42-6.5,2.08-14.67S19,4.54,31.74,4.37Z"/><path class="cls-2" d="M32,5.73c5.24-.46,9.37,2.44,10.25,2.81s1.88.81,1.56,1.13-6,1.31-6.06,1.62-.19,1.63,0,1.69,10.5-.69,11.44-.25,4,2.94,3.63,3.13-13.75.19-13.94.5-.56,2.31,0,2.56,14.19.06,14.63.38,1.31,2.31,1.06,2.5-15.87-.06-16.25.38-.06,2.38.31,2.44,16.06.13,16.38.5,1.63,3.25,1.25,3.38-15.44.63-15.56,1A3,3,0,0,0,41,31.35c.25.13,14.56.69,14.88,1.19s1.19.63.13.69-17.31.69-32.94.38S6.8,33.29,6.8,33.29,6.3,25.1,9.86,19.85,19.05,6.85,32,5.73Z"/><path class="cls-1" d="M36.43,14.17s9.31-.5,9.5-.12.75,1.06.25,1.06-9.75.56-9.87.38A4.06,4.06,0,0,1,36.43,14.17Z"/><path class="cls-1" d="M34.74,19.48c.31,0,1.88-.19,1.94.06s.19,1.31-.12,1.25-2.44-.19-2.44-.19Z"/><path class="cls-1" d="M32.93,26.54c.25.06,18.75-.25,19.13.06s.69.75.38.81-19.31.38-19.5.25S32.93,26.54,32.93,26.54Z"/><path class="cls-1" d="M29.74,30.42c.25,0,7.62-.37,7.81-.06s.75.63.25.81a73.79,73.79,0,0,1-8.19.38C29.3,31.42,29.74,30.42,29.74,30.42Z"/><path class="cls-1" d="M23.68,9.79a5.06,5.06,0,0,1,2.5-1.37c1.88-.56,2.69-.75,2.94-.44s.38.81.13.94-2.44.31-3.19.81-.87.81-1.31.81S23.68,9.79,23.68,9.79Z"/><path class="cls-1" d="M32.05,7.6c.18-.06,1.81-.19,1.94.13s.5,6.62.13,6.87-2.56.38-2.5-.12S31.86,7.67,32.05,7.6Z"/><path class="cls-1" d="M23.05,11.54c.25.06,4.69-.12,4.69.13s.31.81-.19.94a29.77,29.77,0,0,1-4.69.06C22.68,12.54,23.05,11.54,23.05,11.54Z"/><path class="cls-1" d="M22,14.48c4.27-.88,8.19.88,9.44,5.5s-.62,9.69-8.87,9.88S11.05,16.73,22,14.48Z"/><path class="cls-3" d="M22.18,16.35C25,15.62,30,16,29.74,22.85S20.61,28.6,19,26.6,15.05,18.17,22.18,16.35Z"/><path class="cls-1" d="M22.8,18.42c3.51-.86,4.94,1.69,4.88,4.25S24.18,27,21.3,25.35,18.74,19.42,22.8,18.42Z"/><path class="cls-2" d="M23.05,19.6a2.69,2.69,0,1,1-1,4.81A2.61,2.61,0,0,1,23.05,19.6Z"/><path class="cls-1" d="M23.43,21.1c1.18-.17,1.5.69,1.25,1.44a1.38,1.38,0,0,1-1.87.63A1.18,1.18,0,0,1,23.43,21.1Z"/><path class="cls-1" d="M10.24,23c.31-.47,1.75.75,1.69,1A11.16,11.16,0,0,0,10.61,28c-.25,2.25-.06,2.88-.25,3.06s-1.81.44-1.87.06A13.48,13.48,0,0,1,10.24,23Z"/><path class="cls-2" d="M7.86,35.29c.49-.1,14.31.25,24.56.19s25.06-.56,25.06-.37-.19,1.44-.62,1.56-19.94.25-20.06.69-.06,3.19.25,3.31,10.13.44,10.13.44.19.63-.06.75-13.5,1-13.5,1.38-.06,2.56.31,2.88,15.75-.75,15.88-.44.31.75.06.75-15.62.88-15.75,1.19-.06,3.25.31,3.44S46.74,50.67,46.8,51s.31.81,0,.88S34.61,53,34.61,53.23s.69,4,.44,4.13S24.36,58.6,18.36,53.17,9.05,41.54,8.61,39.73,7.24,35.42,7.86,35.29Z"/><path class="cls-1" d="M16.05,46.73c-.19-.19-3.31-4-3.81-5.56s-1.12-2.75-.69-2.94,9.19-1.31,9.56-.87.31,1.88.94,2.13,7-.31,7.13.19.19,2.06-.06,2.13-6.69.19-7.37-.12S19.8,39.1,19.8,39.1s-3.19.06-4.19.19-2.06.25-1.87.38,1.56,3.44,2.75,5.25l1.19,1.81Z"/><path class="cls-1" d="M19.24,43.1c.19-.06.88-.37,1.13-.06s1.75,3.25,1.5,3.5-.37.75-.87.31A21.09,21.09,0,0,1,19.24,43.1Z"/><path class="cls-1" d="M21.36,48.1s6.44-.5,6.63-.19.56.75.06.88a58.48,58.48,0,0,1-6.5.19C21.36,48.85,21.36,48.1,21.36,48.1Z"/><path class="cls-1" d="M19.43,50c.23,0,.81,1.06,1.56,1.75A9.78,9.78,0,0,1,22.11,53s-.44.5-.69.44a26.69,26.69,0,0,1-2.94-3C18.36,50.17,19.11,50,19.43,50Z"/><path class="cls-1" d="M25.43,52.6c.69.06,4.75-.19,5,0s.63.81.19.88a46,46,0,0,1-5.06.06C25.24,53.42,25.43,52.6,25.43,52.6Z"/><path class="cls-1" d="M30.61,45c.38-.06.94-.19.94.06s.31,5.19-.06,5.25-.62.75-.69-.12S30.61,45,30.61,45Z"/><path class="cls-1" d="M31.74,40.17a4.84,4.84,0,0,1,2.5,0c.13.25.38,1.06.13,1.06s-2.56.31-2.69,0A2.55,2.55,0,0,1,31.74,40.17Z"/><path class="cls-1" d="M27.74,36.85c.38,0,6.94-.06,6.94.19s.25.69-.12.81a57.47,57.47,0,0,1-6.56,0C27.55,37.73,27.49,36.85,27.74,36.85Z"/></g></svg>