<svg id="Layer_1" data-name="Layer 1" xmlns="http://www.w3.org/2000/svg" width="64" height="64" viewBox="0 0 64 64"><defs><style>.cls-1{fill:#1d1d1b;}.cls-2{fill:#696a9b;}.cls-3{fill:#92a0d1;}.cls-4{fill:#fab900;}</style></defs><title>falling-space-capsule</title><g id="falling-space-capsule"><path class="cls-1" d="M26.12,18.11c1.31.2,3.94,1.56,7.13,4.44S45.68,35,45.93,35.86s-.37,2.5-2.25,4.75-3.12,3.06-3.87,2.69-1.56-.81-1.56-.81-5.19,6.19-8.12,7.38-6.44,2.25-10.62-1-5.25-6.37-3.75-10.44S20.62,27.3,20.62,27.3A2,2,0,0,1,20,24.8C20.74,23.3,24.12,17.8,26.12,18.11Z"/><path class="cls-2" d="M26.43,19.61c.62-.62,4.69,3.31,9.25,7.94s8,8.06,8,9.06S41.74,40.42,41,40.8s-.94.75-.75.38,1.38-4.5,1.13-4.69-.31-.44-.56-.31-1.37,4.5-1.56,4.31-1.62-1.25-1.69-1.56,1.5-3.75,1.25-4a2,2,0,0,0-.81-.37s-1.25,3.81-1.44,3.63-1.12-1-1.12-1,1.19-2.75.87-2.94-.5-.56-.75-.44a13,13,0,0,0-1,2.5s-6.87-5.69-9-7.5-3.5-2.12-3.31-3.56S26.24,19.8,26.43,19.61Z"/><path class="cls-1" d="M24.12,24.67c.08-.3,2.25-3,2.63-2.94s.75.38.56.69-2.06,3.38-2.37,3.25S24.06,24.92,24.12,24.67Z"/><path class="cls-3" d="M21.74,28.42c.34-.21,7.88,5.75,10.06,7.63S36.93,41,36.62,41.3a11.71,11.71,0,0,1-1.12.88s-.06-1.56-.44-1.62-.25-.25-.37-.06.15,2.17.06,2.38a5.16,5.16,0,0,1-.83.83s-.08-2.67-.33-2.75-.92.38-.83.54.46,2.88.46,2.88l-.71.79s-.29-3-.58-3-.79.29-.67.58A15.94,15.94,0,0,1,31.79,46a13.66,13.66,0,0,1-4.33,2.92,9.54,9.54,0,0,1-8.08-2.54c-2.29-2.42-2.92-6-1.5-9.79A54.94,54.94,0,0,1,21.74,28.42Z"/><path class="cls-1" d="M23,34.36a5.66,5.66,0,0,1,7.79,2.75c1.5,3.58-3.38,9.08-7.37,6.88C20.16,42.19,18.74,37.11,23,34.36Z"/><path class="cls-4" d="M23.83,35.82a3.92,3.92,0,0,1,5.39,1.9c1,2.48-2.33,6.28-5.1,4.75A3.81,3.81,0,0,1,23.83,35.82Z"/><path class="cls-1" d="M24.08,37.9c.08-.25.63-.37.71-.08a12.85,12.85,0,0,1,.08,3.08c-.17.21-.79.08-.87-.08A17.3,17.3,0,0,1,24.08,37.9Z"/><path class="cls-1" d="M26,37.61c0-.34.92-.17.92.08A8.39,8.39,0,0,1,26.7,40c-.21.21-.58.54-.71.13A17,17,0,0,1,26,37.61Z"/><path class="cls-1" d="M12.29,39.82c.27-.29,2-.17,1.83.08a7.74,7.74,0,0,0,1.08,8c3,3.58,5.92,4.63,7.71,4.75s4.29,0,4.42.21.21,1.13,0,1.25a10.81,10.81,0,0,1-7.71-.62c-3.79-1.83-6.17-4.17-7.25-6.87S11.83,40.32,12.29,39.82Z"/><path class="cls-1" d="M55.79,28.36c-.33.08-1.5,1.33-4.17,4.83S38,49,33.45,52.94s-7.83,5.75-10.33,5.33-11.33-4.5-13-8.25-.67-7.5.08-9.75,7.5-14.75,10.17-18.92S31.29,5.61,31.29,5.61s-.47-.87-.83-.67c-1.67.92-9.25,12.17-13.75,19.75S6,42.78,6.87,48.11s7.67,9.17,13.58,11.42,10-1.25,16.42-7.08S57,29.69,57.2,29.28,56.12,28.28,55.79,28.36ZM32.16,17.94c.38-.21,8.17-10.67,8.38-11s-1.08-1.12-1.46-1-8.34,10.84-8.25,11C31.08,17.48,31.79,18.15,32.16,17.94Zm5,5C37.49,22.82,53,5.36,53,5.15s-1-1.58-1.46-1.33-15.71,17.65-15.71,18C35.87,22.07,36.83,23.15,37.16,23Zm3.17,1.79c.17.17,1,1.08,1.21,1s13-14.08,13.17-14.42-1-1.21-1.29-1.25S40,24.48,40.33,24.78Zm3,5.58c0,.29,1,1.25,1.21,1.17S56,19.57,56.16,19.07s-1.08-1.54-1.54-1.5S43.33,30.09,43.33,30.36Z"/></g></svg>