<svg id="Layer_1" data-name="Layer 1" xmlns="http://www.w3.org/2000/svg" width="64" height="64" viewBox="0 0 64 64"><defs><style>.cls-1{fill:#1d1d1b;}.cls-2{fill:#fab900;}</style></defs><title>falling-star</title><g id="falling-star"><path class="cls-1" d="M31,7.16c.43-.27,1.31.88,1.19,1.22S18.78,21.16,14.87,24.72A28.64,28.64,0,0,0,7.75,35.78C7,38.13,6.22,43.63,9.22,48.34s7.09,7.13,10.44,7.72,6.47.5,11.63-3.91A259.4,259.4,0,0,0,49.84,33.72c3.28-3.78,7.81-8.06,8.19-8s1,1.09.81,1.25S39.65,46.41,35.75,50.19s-9.16,7.91-13.06,7.88-8.81-.87-12.19-4.59S4.9,45.94,5.15,40.72A24.41,24.41,0,0,1,9.59,28.09C11.59,25.34,28.18,8.94,31,7.16Z"/><path class="cls-1" d="M27.9,23c-.12-.54,17.81-17,18.28-17s1,1,.94,1.22-18,16.69-18.34,16.75S28,23.25,27.9,23Z"/><path class="cls-1" d="M36.06,24.66c0-.31,18.19-17,18.56-17.09s1,.94.94,1.16S37.31,25.78,37,25.69,36,24.88,36.06,24.66Z"/><path class="cls-1" d="M36.22,34.94c0-.42,15.72-15.34,15.94-15.28s1.13,1,.91,1.34S37.37,36.13,37.18,36.13,36.18,35.25,36.22,34.94Z"/><path class="cls-1" d="M11.09,34.75c.17-.12,1.63-.12,1.53.22a9.17,9.17,0,0,0,2.44,10.44c5,4.44,9.5,4.84,10.53,4.94a3.59,3.59,0,0,1,1.84.44c.13.19.19,1.41-.22,1.5S18.65,52,14.65,48.19,10,39.94,10.25,38.13,10.81,34.94,11.09,34.75Z"/><path class="cls-1" d="M14.37,36.09c.27-.43,5.75-4.75,5.91-5.09s1.34-6.91,2.06-7.37,5.41,4.47,5.81,4.5,7.75.25,8.41.94-3.06,6.31-3,6.53,3.34,7.94,3,8.47-8.09-1.94-8.41-1.69-4.84,4-5.09,4.13-1.25.34-1.37-1.28S21,38,20.72,37.84s-4.22-.28-5-.41S13.72,37.13,14.37,36.09Z"/><path class="cls-2" d="M17.15,35.63c-.12-.27,4.88-3.84,4.91-4s.81-5.72,1.28-5.75S27.28,29.91,27.9,30s6.81,0,6.69.38-2.75,4.87-2.84,5.28,2.37,6.38,2.19,6.5-5.72-1.69-6.28-1.53S23.81,44.16,23.56,44s-.75-6.62-1-7a1.64,1.64,0,0,0-1.37-.69C20.56,36.19,17.31,36,17.15,35.63Z"/><path class="cls-1" d="M23.68,28.31c.21-.28.81-.16.81.16s-.28,3.94-.56,4-.81.16-.87-.12A22.07,22.07,0,0,1,23.68,28.31Z"/><path class="cls-1" d="M28.37,34c.2-.1,1.75.41,1.78.69s0,.78-.12.78a7.25,7.25,0,0,1-1.72-.53C28.22,34.78,28.25,34.06,28.37,34Z"/><path class="cls-1" d="M28.25,36.22a6.11,6.11,0,0,1,2,.59c.25.28.53.84.28.94a8.24,8.24,0,0,1-2.41-.59C28,37,28,36.25,28.25,36.22Z"/><path class="cls-1" d="M28.09,38.13A12.59,12.59,0,0,1,31,39.25c.13.19.44.84.16.84a26.05,26.05,0,0,1-3-.87C28,39.13,27.9,38.16,28.09,38.13Z"/></g></svg>