<svg id="Layer_1" data-name="Layer 1" xmlns="http://www.w3.org/2000/svg" width="64" height="64" viewBox="0 0 64 64"><defs><style>.cls-1{fill:#1d1d1b;}.cls-2{fill:#cbe7f5;}.cls-3{fill:#e6e4da;}.cls-4{fill:#fff;}</style></defs><title>flag</title><g id="flag"><path class="cls-1" d="M5.73,47.64a11.28,11.28,0,0,1,5.56-2.72c1.31-.09,3.28,0,4.66-.87s2.41-2.78,4.84-3,3.63-.22,4.69-.37a9.84,9.84,0,0,0,1.94-.5S27,33.3,26,26.89,23.2,14.36,23.29,14.14s1.88-.94,2-.66a3.17,3.17,0,0,1,.25.72L39.85,9.11C45.2,7.2,48,6.55,48.76,6.55s1.12.88.84,2.31-1,2.47.31,3.72,2.69,1.75,2.5,4.09-1.78,2.44-1,4.09S54.1,23,54,25.14s-1,2.44-4.22,3.41S39,31.48,38,31.48a7.69,7.69,0,0,0-3.41.63,43.91,43.91,0,0,0-5.75,2c0,.19.44,5.13.44,5.13s4-1.31,5.75-.81,1.22,1.88,3.78,1.66,4.66-1.31,7.59-.37,3,2.44,5.47,3.16a11,11,0,0,1,7,5.38c1.56,3.13,1.44,7.53,1.06,8.25s-3,1-3.62,1S39,56.55,32.17,56.83s-21.81.44-23.84.41a3.87,3.87,0,0,1-4-2.44C3.51,53,3.48,49.58,5.73,47.64Z"/><path class="cls-2" d="M25.89,15.92c.22-.09,10.19-3.81,13.78-5s7.66-2.13,7.66-2.13-.37,2.88.53,3.91,2.88,1.91,2.5,3.72-1.62,3.19-.72,4.66,2.44,2.47,2.31,3.63-1.75,1.59-2.44,2-11.44,3.22-13.94,3.66a65.42,65.42,0,0,0-6.91,1.91Z"/><path class="cls-1" d="M27.89,16.92c.16,0,.75-.34.81-.12A15.74,15.74,0,0,1,29.23,20c-.16.28-.66.5-.75.34A18.91,18.91,0,0,1,27.89,16.92Z"/><path class="cls-1" d="M46.64,14.27c.08-.17,1.47.19,1.47.41s0,.56-.12.56A6.53,6.53,0,0,1,46.45,15C46.35,14.86,46.6,14.33,46.64,14.27Z"/><path class="cls-1" d="M46.23,17.11a9.37,9.37,0,0,1,2.5.5c0,.16-.06.69-.19.69s-2.5-.44-2.5-.44S46,17.2,46.23,17.11Z"/><path class="cls-1" d="M45.67,18.92a8.49,8.49,0,0,1,2.78.47c.09.25.19.69,0,.78a18.84,18.84,0,0,1-3-.56C45.39,19.55,45.51,19,45.67,18.92Z"/><path class="cls-1" d="M45.23,21.27a9.81,9.81,0,0,1,3,.78c0,.22.09.47-.06.53a21.75,21.75,0,0,1-3.22-.66C44.85,21.83,45.1,21.36,45.23,21.27Z"/><path class="cls-1" d="M44.29,23.14a29.07,29.07,0,0,1,4,1.41c0,.16-.16.66-.25.66s-4.16-1.28-4.16-1.37S44.17,23.17,44.29,23.14Z"/><path class="cls-1" d="M43.17,25A17.31,17.31,0,0,1,47,26.36c-.06.19-.09.53-.25.56s-3.81-1.16-3.91-1.22S43.07,25,43.17,25Z"/><path class="cls-3" d="M8.42,48c1.49-.7,3.37-1.72,4.81-1.78s2.47.13,4-1,2.44-2.44,4.66-2.78,4.09-.5,4.69-.59,1-.19,1-.19-.06.81.16.91a3.1,3.1,0,0,0,1.66-.16c.31-.22.25-1.53.25-1.53a6.41,6.41,0,0,1,4-.94c1.84.41,2.75,1.81,4.91,1.69s4.75-1.25,7.25-.31S47.6,43.36,49.57,44s5.16.75,6.88,3.88,1.81,7.16,1.47,7.44-6.28.25-12.72.06-14.38-.06-22,.16-14.59.47-15,.34a2,2,0,0,1-1.91-1.41C5.73,53,5.17,49.48,8.42,48Z"/><path class="cls-1" d="M21.07,43.77c1.58-.26,2.19,1,1.53,2.13a1.93,1.93,0,0,1-3,.31C19,45.36,19.73,44,21.07,43.77Z"/><path class="cls-4" d="M21.1,44.5c.81-.13,1.11.53.78,1.08a1,1,0,0,1-1.53.16C20,45.31,20.41,44.61,21.1,44.5Z"/><path class="cls-1" d="M38.95,42.45c.72-.31,2.38-.44,2.47.19s-1.06,1.22-2.12,1S38.14,42.8,38.95,42.45Z"/><path class="cls-1" d="M50.82,46.8a4.21,4.21,0,0,1,3.09.66c.78.78-.66,1.5-1.31,1.5a3.08,3.08,0,0,1-1.75-.84C50.51,47.8,50.29,46.92,50.82,46.8Z"/><path class="cls-1" d="M19.17,51.52a3.29,3.29,0,0,1,1.78-2.69,8.6,8.6,0,0,1,5.31-1.22c2.59.13,2.59.69,2.41,1s-.62,1-.87,1-2.81-.78-4.84.19-2.12,1.47-2.31,1.84S19.29,51.77,19.17,51.52Z"/><path class="cls-1" d="M14.67,47.89c.14,0,2.44,1.13,2.34,1.34s-.25.5-.41.5a18.35,18.35,0,0,1-2.53-1.12C14,48.48,14.54,47.89,14.67,47.89Z"/><path class="cls-1" d="M12.85,49.36a29.66,29.66,0,0,1,4,2.72c-.12.16-.34.5-.47.47S12.2,50,12.17,49.89,12.7,49.39,12.85,49.36Z"/><path class="cls-1" d="M10.89,50.3a40,40,0,0,1,4.31,3.13.81.81,0,0,1-.47.41,41.78,41.78,0,0,1-4.53-3C10.2,50.64,10.79,50.27,10.89,50.3Z"/><path class="cls-1" d="M9.07,51.39c.16,0,3.81,2.81,3.59,3s-.62.44-.75.38A33.69,33.69,0,0,1,8.17,52,2.76,2.76,0,0,1,9.07,51.39Z"/><path class="cls-1" d="M26.73,44.23a11.06,11.06,0,0,1,2.91,2.13c-.06.25-.19.41-.31.38s-3.25-2.06-3.25-2.06A3.36,3.36,0,0,1,26.73,44.23Z"/><path class="cls-1" d="M28,43.67s.59-.41.81-.37a15.53,15.53,0,0,1,2.78,1.63.75.75,0,0,1-.47.34A29.25,29.25,0,0,1,28,43.67Z"/><path class="cls-1" d="M30.45,42.67c-.07-.09.53-.41.75-.44a18.83,18.83,0,0,1,2.41,1.5.44.44,0,0,1-.31.22A12.22,12.22,0,0,1,30.45,42.67Z"/><path class="cls-1" d="M27.35,53.48c-.17-.17,1.44-1.41,2.38-1.16s.72.72,1.28.84,1-.09,1.22,0,.34.47.22.53a2.81,2.81,0,0,1-1.34.09c-.47-.12-1.37-.75-1.78-.62s-.78.91-1.19.81A1.66,1.66,0,0,1,27.35,53.48Z"/><path class="cls-1" d="M52.2,50.67c.31-.06,3.56,1.84,3.47,2.13s-.12.44-.28.41-3.81-1.53-3.78-1.78A1,1,0,0,1,52.2,50.67Z"/><path class="cls-1" d="M50.2,52c.19,0,3.69,2.06,3.56,2.25s-.91.28-1.12.25a22.77,22.77,0,0,1-3.22-1.84C49.39,52.45,50,52,50.2,52Z"/><path class="cls-1" d="M35.51,45.33c1.22-.1,3.69-1.34,6-.91s5.84,1.63,5.78,4.72a4.49,4.49,0,0,1-4.81,4.5c-2.22-.12-3.78-1.94-4.94-2.09s-4.78.53-5.53-1.91S33.23,45.52,35.51,45.33Z"/><path class="cls-4" d="M36.17,46.77c2.07,0,4.19-1.31,6.81-.47s3.19,2.78,3.06,3.44-1.75,1.78-1.84,1.78a33.42,33.42,0,0,0-2.91-2c-.31,0-.87.44-.72.56S43,51.8,42.85,51.89a2.64,2.64,0,0,1-1.31-.12c-.59-.16-2.5-1.69-4.41-1.84s-2.91-.28-3-1.28S34.89,46.77,36.17,46.77Z"/><path class="cls-1" d="M43.2,48.33c.23,0,2,1.09,1.94,1.28a2.16,2.16,0,0,1-.91.66c-.12,0-1.84-1-1.78-1.19S43,48.33,43.2,48.33Z"/></g></svg>