<svg id="Layer_1" data-name="Layer 1" xmlns="http://www.w3.org/2000/svg" width="64" height="64" viewBox="0 0 64 64"><defs><style>.cls-1{fill:#1d1d1b;}.cls-2{fill:#e6e4da;}.cls-3{fill:#fff;}</style></defs><title>moon-waning-cresent</title><g id="moon-waning-cresent"><path class="cls-1" d="M41.48,6.07c.66,0,1.31.63.87,1.13s-1.94.66-1.75,2.09.66,3.56-.69,5-2.53,1.38-2.84,2.59,1,3.06.31,4.44-2.12,1.78-2.84,3.66,1.06,2.69,1,4-1.09,3.53-1.22,4.5a3.09,3.09,0,0,0,1,3.22c1.25.94,3,1.44,3.06,3.13s-.78,2.94,0,4.66a5.49,5.49,0,0,0,2.31,2.72c.69.44,1.56.38,1.66,2.13s-.19,2.66.5,3.84a12.62,12.62,0,0,0,1.62,2.41c.13,0,.81-.44,1.19.06s-.31,2.28-.72,2.34-10.78.19-16.84-5.19S19.79,40.48,18.54,35.2,19.86,23,22,19.23,28.79,10.6,33,8.57,39.89,6.07,41.48,6.07Z"/><path class="cls-2" d="M38.77,8.22c.19,0-.21.83,0,1.81A3.44,3.44,0,0,1,38,13.61c-1.29,1.52-3.17,2-3.06,3.88S36,20,35,21.28,32,24,31.92,26s1.38,2.23,1.44,3.4S32,33,32.21,34.7A4.86,4.86,0,0,0,34,38.24c1.08,1,2.42,1.15,2.44,2.25s-1.25,2.94.25,5.25,3.58,3,3.77,3.69-.12,2.6.4,3.6a8.63,8.63,0,0,1,.92,2.4,19,19,0,0,1-3.4-.46c-.1-.21,0-2.81-1.77-3.56s-3.06-.9-3.81-1.46-1.17-1.08-2.27-1.06-2.19.35-2.69.31-2-1.62-4.5-6.81a27.86,27.86,0,0,1-3-12.06c.08-2.25,1.85-7.15,3.44-9.85A27.81,27.81,0,0,1,30,13,29.26,29.26,0,0,1,38.77,8.22Z"/><path class="cls-1" d="M34,12.66c.32,0,.84.66.28,1s-.91.19-1.09-.12S33.2,12.63,34,12.66Z"/><path class="cls-1" d="M27.51,18.45c.21-.06.66.09.56.34a21.29,21.29,0,0,0-2.53,4c-.81,2-.91,3.28-1.22,3.34s-1.09-.12-1.06-.25a36.35,36.35,0,0,1,1.41-3.62C25.45,20.51,27,18.6,27.51,18.45Z"/><path class="cls-1" d="M25.29,31.2A2.3,2.3,0,0,1,28,33.82,2.46,2.46,0,0,1,24.17,36C22.61,35.13,22,32.1,25.29,31.2Z"/><path class="cls-3" d="M25.2,32.2A1.22,1.22,0,0,1,27,33.41c.06,1.31-.5,2-2.16,1.38S23.79,32.7,25.2,32.2Z"/><path class="cls-1" d="M29.51,40c.1,0,2.13,3.13,2,3.44s-.25.66-.41.41-2.47-3.16-2.34-3.41A1.06,1.06,0,0,1,29.51,40Z"/><path class="cls-1" d="M27.54,40.85c.13,0,2.66,3.34,2.47,3.63s-.37.5-.47.44a35.35,35.35,0,0,1-2.72-3.62A3,3,0,0,1,27.54,40.85Z"/><path class="cls-1" d="M25.86,42a23.76,23.76,0,0,1,2.72,3.78c0,.19-.31.38-.41.34a38.38,38.38,0,0,1-3-3.72A1.28,1.28,0,0,1,25.86,42Z"/><path class="cls-3" d="M28.83,50.2c.06-.12,1.75-.72,2.25-.34s.81,1.19,2.19,1.53,2.59.63,3.13,1.31.94,1.91.72,2a17.21,17.21,0,0,1-4.81-1.78A11.16,11.16,0,0,1,28.83,50.2Z"/></g></svg>