<svg id="Layer_1" data-name="Layer 1" xmlns="http://www.w3.org/2000/svg" width="64" height="64" viewBox="0 0 64 64"><defs><style>.cls-1{fill:#1d1d1b;}.cls-2{fill:#e6e4da;}</style></defs><title>moon-new-moon</title><g id="moon-new-moon"><path class="cls-1" d="M32.3,56.84c-.75,0-1.52,0-2.27-.11-9-.89-13.39-3.06-18.22-9-4.36-5.32-5.07-13-5.17-16.84a21,21,0,0,1,4.92-14.61c4.37-5.05,7.9-8.64,21.33-9.14a21.14,21.14,0,0,1,16.72,6.48c7.21,7,7.57,12.29,7.75,18.31A22.89,22.89,0,0,1,50.9,48.61C47.75,51.68,41.15,56.84,32.3,56.84Z"/><path class="cls-2" d="M19.47,12.31a9.73,9.73,0,0,1,2.92-1.8,8.67,8.67,0,0,1,3.43-.84,2.73,2.73,0,0,1,.18,1.2c-.09.15-2.07.6-3.49,1.29s-2,1.26-2.28,1.2S19.23,12.49,19.47,12.31Z"/><path class="cls-2" d="M28.94,9.33a22,22,0,0,1,3.16-.15c1.05,0,2,.12,2,.39s0,.75-.24.81-2.1-.09-2.77,0a14.79,14.79,0,0,1-2.28.15C28.73,10.48,28.7,9.42,28.94,9.33Z"/><path class="cls-2" d="M38.14,10.38a11.89,11.89,0,0,1,2.07.54c.57.18,2.37,1.05,2.37,1.32s-.33.87-.48.81a7,7,0,0,0-2.31-1.29,11.08,11.08,0,0,1-2-.27C37.75,11.41,37.87,10.45,38.14,10.38Z"/><path class="cls-2" d="M45.51,14.05a31,31,0,0,1,2.89,1.44A3.39,3.39,0,0,1,49.93,17c0,.18-.18.66-.33.66s-2.1-1.68-2.86-2A17.57,17.57,0,0,1,45,15,8.19,8.19,0,0,1,45.51,14.05Z"/><path class="cls-2" d="M52,19.55a8,8,0,0,1,1.35,2.34c.24.63.48,1.29.18,1.38s-.87,0-.93-.12a5.42,5.42,0,0,0-.78-2c-.48-.45-1-.84-.87-1.08A1.24,1.24,0,0,1,52,19.55Z"/><path class="cls-2" d="M51.85,24.81c.2-.22,1.38-.15,1.41.09s0,1.92.33,2.22.93.6.9,1,.06.66-.15.75-1-.3-1.32-.36-.51-.45-.66-.72S51.55,25.15,51.85,24.81Z"/><path class="cls-2" d="M53.38,32.27c0-.45,1.83-.27,1.92.12s-.15,4.54-.51,4.6-1.71.18-1.71-.06S53.38,32.45,53.38,32.27Z"/><path class="cls-2" d="M52.12,39.54c.14-.22,1-.6,1.38-.3s.24,1.2-.18,2S52.24,43,51.85,43.06s-1.23-.27-1-.57.63-1,.9-1.47S51.94,39.82,52.12,39.54Z"/><path class="cls-2" d="M48.45,45.83a.93.93,0,0,1,1,.33c.15.33-.15.78-.36,1a15.46,15.46,0,0,1-2.37,2.1c-.9.57-1.11.81-1.32.75s-.81-.24-.51-.66,1.62-1.23,2.16-1.8S48.3,45.95,48.45,45.83Z"/><path class="cls-2" d="M41.12,51.84c.31-.18,1.05,1.05.66,1.35a13,13,0,0,1-4.12,1.53c-1.68.27-2.28.27-2.37.09s-.12-1.14.18-1.23,2-.48,3-.78S40.91,52,41.12,51.84Z"/><path class="cls-2" d="M23.77,51.78a6.62,6.62,0,0,0,2.43,1.08c1.23.18,2.47.36,2.5.63s-.06,1.2-.27,1.26a9.39,9.39,0,0,1-3.37-.66c-1.86-.63-2.16-.9-2.13-1.14S23.62,51.72,23.77,51.78Z"/><path class="cls-2" d="M15.66,46.13c.56,0,1,1.44,2,2.19s1.89.72,1.83,1.11-.57,1.35-1,1.38S17,49.8,15.84,49s-1.71-1.62-1.53-1.86A8.83,8.83,0,0,1,15.66,46.13Z"/><path class="cls-2" d="M9.34,37.44c0-.19,1.59-.84,1.77-.51s-.27,1.44.27,2.71,1.2,1.53,1,2a1.57,1.57,0,0,1-1.53.69,7.59,7.59,0,0,1-1.32-2.4A7,7,0,0,1,9.34,37.44Z"/><path class="cls-2" d="M8.5,29.92A9.62,9.62,0,0,1,9,26.68c.48-1.5.69-1.89.9-2s1.32,0,1.41.57-.66,1.77-.78,3,0,1.68-.21,1.8A3.38,3.38,0,0,1,8.5,29.92Z"/><path class="cls-2" d="M11,20.82a13.65,13.65,0,0,1,2-3.58,3.43,3.43,0,0,1,2.5-1.29c.27.15.75.69.45.9a6.74,6.74,0,0,0-2.28,2c-.78,1.23-.9,2.07-1.14,2.19A3.63,3.63,0,0,1,11,20.82Z"/><path class="cls-2" d="M14.94,24.24A10.39,10.39,0,0,1,16,21.33a7.38,7.38,0,0,1,1.71-2.25c.27,0,.78.24.66.42A8.73,8.73,0,0,0,16.5,22.2c-.48,1.38-.48,2-.66,2.16S15.06,24.18,14.94,24.24Z"/><path class="cls-2" d="M13.76,32.63c.25-.17.69.15.6.33a1.87,1.87,0,0,0-.45,1.17c.06.57.3.69.15.75s-.81,0-.9-.15A1.88,1.88,0,0,1,13.76,32.63Z"/><path class="cls-2" d="M15.66,32.51a1.4,1.4,0,0,1,.9.27c.15.18.15.57-.09.63a1.75,1.75,0,0,1-.9-.09C15.42,33.23,15.39,32.51,15.66,32.51Z"/><path class="cls-2" d="M17.4,34.13c.07-.1.54-.06.54,0a3.67,3.67,0,0,1-.27,1.23c-.24.57-.45.84-.63.9s-.6-.12-.51-.24.45-.72.6-1S17.25,34.34,17.4,34.13Z"/><path class="cls-2" d="M14.15,35.91c.07-.11.48-.15.48-.15s0,.81.36.81,1.11,0,1.2.09.3.15.06.33a1.92,1.92,0,0,1-1.71.15A1,1,0,0,1,14.15,35.91Z"/><path class="cls-2" d="M18.9,42.82a5.85,5.85,0,0,0,1.62,2.65c1.56,1.56,2,1.56,1.92,1.77s-.12.39-.36.42a6.87,6.87,0,0,1-2.74-2.16c-1.08-1.32-1.26-2.22-1.11-2.4A1.5,1.5,0,0,1,18.9,42.82Z"/><path class="cls-2" d="M20.32,42.58c0-.11.42-.33.63-.15a7.08,7.08,0,0,0,1.26,1.77c1,1,1.32.9,1.35,1.2s.06.57-.21.57a7.73,7.73,0,0,1-2.22-1.77A3.08,3.08,0,0,1,20.32,42.58Z"/><path class="cls-2" d="M22.39,42c-.07-.11.39-.45.51-.33a3.89,3.89,0,0,0,.75,1.14c.48.39.69.48.69.6a2.16,2.16,0,0,1-.3.54s-.72-.63-1.05-1A4,4,0,0,1,22.39,42Z"/><path class="cls-2" d="M27.68,38.67c.24,0,.84.27.66.54s-.78.09-.78.72.21.72.06.93-.54.33-.66.21-.6-.84-.39-1.32A1.67,1.67,0,0,1,27.68,38.67Z"/><path class="cls-2" d="M30.3,38.76c.43,0,.81.51.45.69s-.75.27-.9.06A.51.51,0,0,1,30.3,38.76Z"/><path class="cls-2" d="M28.16,42.58c.17.09-.24.54.24,1s.93.12,1,.42.15.63,0,.66a1.41,1.41,0,0,1-1.44-.39,1.9,1.9,0,0,1-.57-1.71C27.5,42.37,28,42.49,28.16,42.58Z"/><path class="cls-2" d="M30.24,42.58c0-.15.51-.12.6-.36s.06-1.44.15-1.47.66-.15.75.09a3,3,0,0,1-.36,1.71c-.33.57-.45.66-.66.66S30.27,42.73,30.24,42.58Z"/><path class="cls-2" d="M37.27,45.44c-2.34,1.29-1.08,3.19.18,3.16a2.3,2.3,0,0,0,2-2.37C39.5,45.14,37.83,45.13,37.27,45.44Zm1.38,1.41c-.27.87-.93,1.23-1.56.81s-.3-1.47.72-1.68C38.44,45.85,38.92,46,38.65,46.85Z"/><path class="cls-2" d="M49.93,31.73c.29.07,2,.84,2,1s.09.69-.3.69a5.09,5.09,0,0,1-1.89-1C49.66,32.3,49.81,31.7,49.93,31.73Z"/><path class="cls-2" d="M49.45,33.59c.12,0,2.43,1,2.4,1.35s-.06.81-.18.78a14.49,14.49,0,0,1-2.53-1.35C49.15,34.19,49.21,33.62,49.45,33.59Z"/><path class="cls-2" d="M49,36.78a10.21,10.21,0,0,1,2.13,1.47c0,.21,0,.6-.3.51a10.79,10.79,0,0,1-2.07-1.23C48.75,37.41,48.88,36.75,49,36.78Z"/><path class="cls-2" d="M41.84,33.92c-.11-.11.24-.48,1.2-.72s1.59-.33,1.65-.12.09.66-.06.72a2.48,2.48,0,0,0-1.38.24c-.57.39-.66.54-.87.57S41.9,34,41.84,33.92Z"/><path class="cls-2" d="M40.1,36.21c.13-.09.81,0,.78.18s-.6.36-.42,1.29.48,1.23.42,1.41-.57.3-.69.24a2.76,2.76,0,0,1-.54-1.44A3.55,3.55,0,0,1,40.1,36.21Z"/><path class="cls-2" d="M46.86,36.09c.09-.16.6-.15.69,0s.66,2.43.36,2.47-.81.06-.78-.09S46.77,36.24,46.86,36.09Z"/><path class="cls-2" d="M44.76,40.9c.27,0,.75.18,1.23,0s.51-.57.78-.57.45.09.39.21A2.68,2.68,0,0,1,46,41.62c-.75.36-1.05.42-1.26.21S44.58,40.93,44.76,40.9Z"/><path class="cls-2" d="M41.6,40.42c.17.09,0,.66.54.87s.84,0,.9.15.3.69.06.78A2.77,2.77,0,0,1,41.3,42c-.39-.33-.57-1.05-.39-1.23S41.48,40.36,41.6,40.42Z"/><path class="cls-2" d="M19.93,23.37c-.07-.17.27-1,1.2-1.62s1.32-.87,1.65-.72.6.54.48.6-1.2.42-1.53,1-.12.9-.6,1.05A1.2,1.2,0,0,1,19.93,23.37Z"/><path class="cls-2" d="M19.47,25.51c.15-.11,1.5-.09,1.53.12s-.42,1.26-.09,1.62.75.24.72.6-.6,1-.84.9a2.62,2.62,0,0,1-1.29-.9C19.26,27.4,19.11,25.78,19.47,25.51Z"/><path class="cls-2" d="M25.61,20.64c.42,0,1.59.72,1.59,1.17s-.09.66-.27.66S26,22,25.55,22s-.66,0-.63-.3S25.1,20.61,25.61,20.64Z"/><path class="cls-2" d="M28.76,23.67c.14-.24,1.2-.21,1.29,0a3.45,3.45,0,0,1,0,1.83.52.52,0,0,1-.78.15C29.12,25.51,28.55,24,28.76,23.67Z"/><path class="cls-2" d="M29.61,27.37c.18.06.84.33.51.6a13.41,13.41,0,0,1-1.77,1.23c-.66.36-.75.48-.9.45s-.54-.39-.39-.48,1-.78,1.47-1.08Z"/><path class="cls-2" d="M22.93,29.14c.24,0,.72.72,1.38.78s1.14-.12,1.14.06-.06.69-.39.84a2.93,2.93,0,0,1-2,0c-1-.27-1.2-.48-1.14-.72S22.63,29.14,22.93,29.14Z"/><path class="cls-2" d="M35.92,19.4a1.68,1.68,0,0,1,.51-1.56c.72-.57,1.2-.69,1.5-.54s.42.72.21.78-.72-.21-1.08.3-.06.78-.3,1A.85.85,0,0,1,35.92,19.4Z"/><path class="cls-2" d="M36.55,21.39c.09-.26.81-.27.9-.15s0,.63.42.87.66,0,.66.3.06.45-.18.54a1.69,1.69,0,0,1-1.41-.33A1.62,1.62,0,0,1,36.55,21.39Z"/><path class="cls-2" d="M40.22,17.54c.2-.23.75-.09.93.42s-.45.69-.81.54S40,17.78,40.22,17.54Z"/><path class="cls-2" d="M40,21.36a1.83,1.83,0,0,0,.69-.27c.21-.18.12-.51.45-.36s.51.36.45.66-.51.51-.87.69-.51.33-.63.12S39.92,21.39,40,21.36Z"/><path class="cls-2" d="M46.11,18.8c.14.14,2.56,1.56,2.53,1.83s0,.48-.45.42a9.79,9.79,0,0,1-2.43-1.62C45.72,19.28,46,18.68,46.11,18.8Z"/><path class="cls-2" d="M45.42,20.64c.2-.2,2.5,1.56,2.37,1.86a.63.63,0,0,1-.51.33,28.17,28.17,0,0,1-2.4-1.62C44.88,21.09,45.24,20.82,45.42,20.64Z"/></g></svg>