<svg id="Layer_1" data-name="Layer 1" xmlns="http://www.w3.org/2000/svg" width="64" height="64" viewBox="0 0 64 64"><defs><style>.cls-1{fill:#1d1d1b;}.cls-2{fill:#e6e4da;}.cls-3{fill:#fff;}</style></defs><title>moon-waning-gibbous</title><g id="moon-waning-gibbous"><path class="cls-1" d="M36.25,6.48C37,6.33,38.18,7.42,39,8s4,2.62,4.19,4.12-.84,3.63,1,4.75,4.25,2.81,4.25,4.25-1,4.34.38,5.34,2.34,1.09,2.94,3-1,5.59-1.09,6.19a2.35,2.35,0,0,0,.78,1.69,3.19,3.19,0,0,1,.34,4c-1.28,2-2.72,3.28-2.44,3.91a5.16,5.16,0,0,1,0,3.5c-.53,1-4.22,4.44-6.19,6.06s-2.16,2-2.87,2.19a20.25,20.25,0,0,1-13.59-1.81c-6.37-3.47-11.12-8-13.41-14.84s-1.87-11.06-.31-15.78,5.66-9.37,9.25-12.41S33.4,7,36.25,6.48Z"/><path class="cls-2" d="M36.37,7.86c.19,0,3.41,3.28,4.19,3.75s1,.78,1,1.38a12.37,12.37,0,0,0-.19,3,6.47,6.47,0,0,0,.25,1.13,3.34,3.34,0,0,0-.94,2.31c0,1.5.34,2.31,1.37,2.44a2.59,2.59,0,0,0,2.12-.94,3.28,3.28,0,0,0,.69-1.19s1.56,1.13,1.69,1.88-.81,4.44,0,5.13,3.44,2.75,3.5,3.53a9.59,9.59,0,0,1-.37,2.34,2.93,2.93,0,0,0-2.31,1.28,6.69,6.69,0,0,0-1.28,3.66c0,.91-.28,1.81.53,3s1.19,1.28,1.53,1.47.84.41.84.41a15.15,15.15,0,0,0-1.66,2.41c0,.38.47,2.19.28,2.78a2.77,2.77,0,0,1-.81,1.09s-.12-.78-1.25-.62a2.86,2.86,0,0,0-2.12,1.41c-.16.44.66,2.16.34,2.56a7.94,7.94,0,0,1-4.06,2.78,26.2,26.2,0,0,1-5.87.19c-.84-.09-1.59-.12-1.59-.12a18.69,18.69,0,0,0-2.66-4.12C28.5,49.83,26.78,50,26,50a23.71,23.71,0,0,1-3.06.19,27.76,27.76,0,0,1-7-9.25,21.48,21.48,0,0,1-1.5-15.25c1.41-5.16,6.09-10,9.5-12.56A39.7,39.7,0,0,1,36.37,7.86Z"/><path class="cls-3" d="M42.25,18.2a8.54,8.54,0,0,1,1.47,1A2.9,2.9,0,0,1,43,20.45c-.44.31-1,.66-1.31.22S41.62,18.29,42.25,18.2Z"/><path class="cls-1" d="M30.59,20.29c2.5-.37,4.59,1.72,5.44,4.94a5.29,5.29,0,0,1-4.44,6.59,6.08,6.08,0,0,1-6.62-4C23.93,25.11,25.46,21,30.59,20.29Z"/><path class="cls-3" d="M30.56,22c1.44-.09,3.25.72,3.72,3.44s-1,4.28-2.62,4.53-3.94,0-4.72-2.41S27,22.17,30.56,22Z"/><path class="cls-1" d="M21.31,19.11c.23-.07.72.75.72.75a9.55,9.55,0,0,0-2.75,3.56c-1,2.28-1,3.41-1.22,3.53s-.87.06-.87-.09a9.43,9.43,0,0,1,1.28-4C19.62,20.89,20.34,19.39,21.31,19.11Z"/><path class="cls-1" d="M19.25,33.54c1.52-.47,2.13,1.06,2.06,2.09a1.89,1.89,0,0,1-2.56,1.59C17.46,36.67,16.4,34.42,19.25,33.54Z"/><path class="cls-3" d="M19.28,34.45c.54-.31,1.22.34,1.06,1.06a.91.91,0,0,1-1.34.72C18.37,36,18,35.2,19.28,34.45Z"/><path class="cls-3" d="M49.06,33.51c.21-.14.44.28.31.66s-.94,1.28-.59,2.34,1.34,1.91,1.44,2.75.16,1-.06,1.44-.31.81-.56.81a3,3,0,0,1-2.34-1.94C46.78,38,46.68,35,49.06,33.51Z"/><path class="cls-3" d="M44.46,49.48a1.74,1.74,0,0,1,1.5-.62c.16.09.28,0,.22.25a6.59,6.59,0,0,1-1.06,1.47c-.31.28-.47.66-.59.44A2.29,2.29,0,0,1,44.46,49.48Z"/><path class="cls-3" d="M24.71,51.33a4.38,4.38,0,0,1,3.94.22c1.31,1,2.72,3.22,2.34,3.28a7.62,7.62,0,0,1-3.87-1.53C25.31,52,24.62,51.48,24.71,51.33Z"/><path class="cls-1" d="M25.25,40.79c.25.19,1.75,3,1.56,3.19s-.19.31-.34.22a15.82,15.82,0,0,1-1.84-3C24.71,41,25.25,40.79,25.25,40.79Z"/><path class="cls-1" d="M23.37,41.79a17.48,17.48,0,0,1,1.91,3.72c-.16.16-.34.41-.44.31A26.61,26.61,0,0,1,22.65,42,1.08,1.08,0,0,1,23.37,41.79Z"/><path class="cls-1" d="M20.53,42.61c0-.21,1-.31,1.16-.19a26.69,26.69,0,0,1,1.75,3.72c-.06.16-.09.41-.34.28A23.93,23.93,0,0,1,20.53,42.61Z"/></g></svg>