<svg id="Layer_1" data-name="Layer 1" xmlns="http://www.w3.org/2000/svg" width="64" height="64" viewBox="0 0 64 64"><defs><style>.cls-1{fill:#1d1d1b;}.cls-2{fill:#e6e4da;}.cls-3{fill:#fff;}</style></defs><title>moon-full-almost</title><g id="moon-full-almost"><path class="cls-1" d="M32,6.08c4-.25,8,2.41,14.41,7.06s7.91,7.5,7.91,8.66-.87,2.53-.22,3.66,3.16,3.16,3.25,6.72-1.81,8-4,12.59-3.09,6.69-6.28,9.16S40,57.33,35.58,57.77s-10.25.09-14.25-2a36.05,36.05,0,0,1-11-10.31C8,42,6.8,36,6.61,30.46s3-10.34,5.94-13.75A38,38,0,0,1,22.89,8.33,23.74,23.74,0,0,1,32,6.08Z"/><path class="cls-2" d="M31.58,7.61c3.64-.67,6.91,2.09,11.25,5s9.41,8.47,9.34,9.13S51.08,24,52,25.52s2.69,3.56,2.94,5.13a14.2,14.2,0,0,1,.19,2.72s-2.69-2.12-2.78-2.09-.53.47-.31.63S55,34,55,34.3a7.87,7.87,0,0,1-.28,1.75c-.09.09-3.41-2.16-3.53-2.16s-.62.34-.44.66,3.72,2.19,3.72,2.47a5.08,5.08,0,0,1-.59,1.63c-.09,0-3-2.47-3.22-2.34s-.5.59-.37.75,3.41,2.19,3.34,2.41-.56,1.34-.56,1.34a31.62,31.62,0,0,0-2.66-2.12c-.16,0-.5.66-.37.81a24.4,24.4,0,0,1,2.63,2c0,.25-2.12,4.53-3.12,6.56a13.18,13.18,0,0,1-5.12,5.28c-2.19,1.25-4.25,2-8.56,2.31a37.4,37.4,0,0,1-8.16-.25,8.91,8.91,0,0,1-1.5-.25s-1.37-3.47-3.31-3.75a23.38,23.38,0,0,0-4.34-.09,33.17,33.17,0,0,1-5.5-5.41c-2-2.72-4.12-9.09-4.31-12.25a20.54,20.54,0,0,1,2.75-12.19A29.27,29.27,0,0,1,31.58,7.61Z"/><path class="cls-1" d="M48.3,19a9.59,9.59,0,0,1,2.22,2.53c0,.22-.06.59-.31.44s-2.34-2.34-2.34-2.34S48,19,48.3,19Z"/><path class="cls-1" d="M47.24,21.05a13.75,13.75,0,0,1,3,3c0,.31-.12.47-.25.44s-3.19-2.72-3.28-2.84S47.11,21.18,47.24,21.05Z"/><path class="cls-1" d="M46,35.14c2.05-.43,3.34,1.72,3.44,4.16s-2.41,4-4.87,4.34-3.28-2-3.06-3.84S42.67,35.83,46,35.14Z"/><path class="cls-3" d="M46,36.08c1.2-.26,2.59.66,2.72,2.59s-.56,2.69-2.09,3.5-3.06.94-3.78-.16A4.31,4.31,0,0,1,46,36.08Z"/><path class="cls-1" d="M39,49.18a1.74,1.74,0,0,1,1.91,2.16,2.86,2.86,0,0,1-3.44,2.34C35.8,53.43,35.08,50,39,49.18Z"/><path class="cls-3" d="M38.89,50c1.1-.28,1.72.91,1.09,2s-2.16,1.44-2.69.69S36.92,50.46,38.89,50Z"/><path class="cls-3" d="M19.86,52.14a5.77,5.77,0,0,1,3.47.5c1.28.84,2,2.38,1.66,2.38a18.33,18.33,0,0,1-3.12-1.34C20.64,53.08,19.64,52.14,19.86,52.14Z"/><path class="cls-1" d="M20.33,41.36c0,.28,2.53,3.91,2.41,4s-.19.34-.37.22a29.54,29.54,0,0,1-2.81-3.78A3.89,3.89,0,0,1,20.33,41.36Z"/><path class="cls-1" d="M18.27,42.27a22.64,22.64,0,0,1,2.84,4c-.09.22,0,.31-.28.28a24.58,24.58,0,0,1-3.25-3.87C17.64,42.55,18,42.21,18.27,42.27Z"/><path class="cls-1" d="M16.86,43.64c.27,0,2.66,3.16,2.47,3.38a.61.61,0,0,1-.53.25,19.69,19.69,0,0,1-2.69-3.09C16.11,44,16.58,43.64,16.86,43.64Z"/><path class="cls-1" d="M29.89,40.11a2,2,0,0,1,2.28,2.59c-.53,1.69-2.28,1.66-3.34.75A1.91,1.91,0,0,1,29.89,40.11Z"/><path class="cls-3" d="M30,40.84a1.25,1.25,0,1,1-.67,2.1A1.2,1.2,0,0,1,30,40.84Z"/><path class="cls-1" d="M15.39,34c.74-.27,2.53-.34,3.22.94s-1.37,3.5-2.59,3.75a1.78,1.78,0,0,1-2.31-1.53C13.74,36.14,14.46,34.36,15.39,34Z"/><path class="cls-3" d="M15.67,34.77a1.85,1.85,0,0,1,2.17.63c.46.86-.93,2.36-1.75,2.52a1.2,1.2,0,0,1-1.56-1C14.55,36.2,15,35,15.67,34.77Z"/><path class="cls-1" d="M26.46,21.08c2.68-.34,5.69.16,6.41,4s-1.69,7.41-6.25,7-6.09-3.34-5.75-6.66S24.74,21.3,26.46,21.08Z"/><path class="cls-3" d="M26.6,22.88c1.8-.23,3.82.1,4.3,2.71s-1.13,5-4.2,4.7S22.62,28,22.85,25.82,25.45,23,26.6,22.88Z"/><path class="cls-1" d="M17,20.71c.12,0,.91.44.78.63A6.77,6.77,0,0,0,14.86,25c-.75,2.56-.72,3.13-.94,3.16s-.75-.06-.75-.16a22.74,22.74,0,0,1,1-3.44C14.67,23.24,16.11,21,17,20.71Z"/><path class="cls-1" d="M39.08,17.11c1.34-.33,2.88,1,2.47,3.34s-3.5,2-4.53.78S36.67,17.71,39.08,17.11Z"/><path class="cls-3" d="M39.08,18c.86-.21,1.84.66,1.58,2.14s-2.24,1.3-2.9.5S37.54,18.4,39.08,18Z"/></g></svg>