<svg id="Layer_1" data-name="Layer 1" xmlns="http://www.w3.org/2000/svg" width="64" height="64" viewBox="0 0 64 64"><defs><style>.cls-1{fill:#1d1d1b;}.cls-2{fill:#cbe7f5;}.cls-3{fill:#e6e4da;}.cls-4{fill:#e7413e;}.cls-5{fill:#fab900;}</style></defs><title>space-satellite-dish</title><g id="space-satellite-dish"><path class="cls-1" d="M19,34.29a19.32,19.32,0,0,1-.94-14c2.5-7.5,7.81-12.06,10.75-13.37s6.69-2.5,7.87-1.37S43.4,22.19,43.4,22.19l4.13-.58S47.61,19,50.82,19s4,3.75,3.13,5-3.67,1.38-4.21,1.21l-1-.29a30.49,30.49,0,0,0-3.17,2.17c0,.17,6,14.92,5.88,15.67a5.91,5.91,0,0,1-2.08,2.63c-.75.5-4.71,3.29-11.71,2.46a25.7,25.7,0,0,1-13.42-6.17A23.26,23.26,0,0,1,20.48,37L18.73,38.1l5.63,9.63s6.5-.37,11,3.25,4.42,7.38,4.13,7.67S9.86,59,9.78,58.73,9.36,55.81,12.23,53a24.61,24.61,0,0,1,7.25-4.46s-3.37-7.92-3.58-8a4.43,4.43,0,0,1-3.33-2.67,3.2,3.2,0,0,1,1.92-4.29,4.1,4.1,0,0,1,3.33.71,2,2,0,0,1,.5.63Z"/><path class="cls-2" d="M35,6.77c.55-.06,7.08,16.67,7.08,16.67s-1.46-.12-1.42,0-.12.67.08.67,1.58.13,1.63.29,1.5,3.75,1.5,3.75A18.79,18.79,0,0,0,41.23,27c-.08.13-.29.54,0,.75S44,29.1,44.11,29.31s1.92,4,1.92,4-5-3.67-5-3.5-.37.75-.21.83,5.38,3.58,5.54,3.88,2.17,4.79,2,4.75S40.94,34,40.82,34.1s-.42.88-.25,1,8,5,8.21,5.38a13,13,0,0,1,.88,2.25.79.79,0,0,1-.46.5c-.17,0-8.83-5.75-9.08-5.67s-.58.63-.42.75,8.88,5.42,8.67,5.63-2.29,1.25-2.29,1.25S39,40.64,38.78,40.64s-.62.33-.5.46,7.13,4.38,6.92,4.5a10.47,10.47,0,0,1-2,.63,3.36,3.36,0,0,1-1,.08s-4.75-3.67-5-3.67-.79.33-.5.54a49.87,49.87,0,0,1,4.38,3.25A21.67,21.67,0,0,1,31,44.27c-5-2.42-10.33-8.33-11.54-13.71a21.24,21.24,0,0,1,3.71-16.42C26.4,10.06,31.36,7.19,35,6.77Z"/><path class="cls-1" d="M29.65,11.14c.35-.09.67,1,.54,1.25s-2.46,1.13-3.25,3-.75,2.33-.92,2.58-.79.38-.92.13a6.64,6.64,0,0,1,1.29-3.67C27.53,12.64,28.73,11.39,29.65,11.14Z"/><path class="cls-3" d="M43.9,23c.09-.19,4.33-.62,4.46-.87s.29-3,3.08-2.29,1.67,4,.33,4.38-2.83-.42-3.17-.21a33.48,33.48,0,0,1-3.37,2.13A11.59,11.59,0,0,1,43.9,23Z"/><path class="cls-3" d="M14.61,34.44a2.21,2.21,0,0,1,2.25,0c.88.5,1,.83.92.92s-.92.58-.79.75.17.75.46.54,1.79-1.62,2-1.42.83.83.54,1-2.33,1.5-2.21,1.75,5.83,9.54,5.54,9.67-3,.54-3,.54L16.73,40.1s.71-.42.67-.62,0-.58-.17-.54a3.53,3.53,0,0,1-1.62.5c-.62-.08-2.5-1-2.37-2.67S13.94,34.69,14.61,34.44Z"/><path class="cls-1" d="M16.15,35.39c.24,0-.08.5-.21.63s-1,.42-.83,1,.83.54,1,1,.25.63,0,.63-1.87.29-2.12-1.29S15.15,35.19,16.15,35.39Z"/><path class="cls-4" d="M12.28,56.89c-.54-.11,1-3.79,5.54-5.79s6.25-2.46,12-1.12,7.71,7,7.42,7.29a8,8,0,0,1-3.12.08c-.08-.17-2.62-3.42-3-3.5s-.79.08-.62.29a33.05,33.05,0,0,1,2.46,3.13c-.17,0-1.21,0-1.21,0a19.79,19.79,0,0,0-2.42-2.58c-.25,0-.75.33-.54.5s2,2,1.83,2-1.08,0-1.08,0a18.88,18.88,0,0,0-1.83-1.79c-.21,0-.58.25-.54.42s1.29,1.25,1,1.38S12.9,57,12.28,56.89Z"/><path class="cls-1" d="M32.44,53.14c-.15-.22.46-.54.75-.42a18.92,18.92,0,0,1,2.88,3.63c-.12.21-.62.42-.75.29S32.53,53.27,32.44,53.14Z"/><path class="cls-1" d="M15.78,55c-.14-.09.21-1,.75-1.62s.67-.83,1-.79.79.17.63.46-1,.75-1.12,1.29-.08.63-.25.71A1.21,1.21,0,0,1,15.78,55Z"/><path class="cls-1" d="M20.86,51.73A2.13,2.13,0,0,1,24,53.23c.42,1.83-2.87,3.38-4,1.75A2,2,0,0,1,20.86,51.73Z"/><path class="cls-5" d="M21.3,52.57a1.15,1.15,0,0,1,1.71.81c.22,1-1.55,1.82-2.14.94A1.09,1.09,0,0,1,21.3,52.57Z"/><path class="cls-1" d="M25.44,50.56a2,2,0,0,1,2.38.21c.42.54-.08,1.46-.92,1.92s-2,0-2.17-.58A1.19,1.19,0,0,1,25.44,50.56Z"/><path class="cls-5" d="M26.36,50.89c.61-.13,1,.17.75.58s-1.08.79-1.42.5S25.4,51.1,26.36,50.89Z"/></g></svg>